<mxfile host="app.diagrams.net" modified="2023-06-13T06:59:43.828Z" agent="Mozilla/5.0 (Windows NT 10.0; Win64; x64) AppleWebKit/537.36 (KHTML, like Gecko) Chrome/114.0.0.0 Safari/537.36" etag="t8VQxAEwFoLx4Ttu8S6t" version="21.3.8" type="github">
  <diagram name="第 1 页" id="Tgg0gWqXbbaTjMJcC-7g">
    <mxGraphModel dx="2166" dy="1128" grid="0" gridSize="10" guides="1" tooltips="1" connect="1" arrows="1" fold="1" page="0" pageScale="1" pageWidth="827" pageHeight="1169" math="0" shadow="0">
      <root>
        <mxCell id="0" />
        <mxCell id="1" parent="0" />
        <mxCell id="GYVFRlJBhWlMOk5l2gX6-1" value="文档资料挂接流程" style="text;html=1;strokeColor=default;fillColor=none;align=center;verticalAlign=middle;whiteSpace=wrap;rounded=0;fontStyle=1;fontSize=32;dashed=1;" vertex="1" parent="1">
          <mxGeometry x="80" y="-58" width="696" height="84" as="geometry" />
        </mxCell>
        <mxCell id="GYVFRlJBhWlMOk5l2gX6-31" style="edgeStyle=orthogonalEdgeStyle;rounded=0;orthogonalLoop=1;jettySize=auto;html=1;entryX=0;entryY=0.5;entryDx=0;entryDy=0;" edge="1" parent="1" source="GYVFRlJBhWlMOk5l2gX6-2" target="GYVFRlJBhWlMOk5l2gX6-3">
          <mxGeometry relative="1" as="geometry" />
        </mxCell>
        <mxCell id="GYVFRlJBhWlMOk5l2gX6-34" style="edgeStyle=orthogonalEdgeStyle;rounded=0;orthogonalLoop=1;jettySize=auto;html=1;entryX=0.5;entryY=0;entryDx=0;entryDy=0;" edge="1" parent="1" source="GYVFRlJBhWlMOk5l2gX6-2" target="GYVFRlJBhWlMOk5l2gX6-32">
          <mxGeometry relative="1" as="geometry" />
        </mxCell>
        <mxCell id="GYVFRlJBhWlMOk5l2gX6-35" style="edgeStyle=orthogonalEdgeStyle;rounded=0;orthogonalLoop=1;jettySize=auto;html=1;" edge="1" parent="1" source="GYVFRlJBhWlMOk5l2gX6-2" target="GYVFRlJBhWlMOk5l2gX6-33">
          <mxGeometry relative="1" as="geometry" />
        </mxCell>
        <mxCell id="GYVFRlJBhWlMOk5l2gX6-2" value="获取文档列表" style="rounded=1;whiteSpace=wrap;html=1;fillColor=#dae8fc;strokeColor=#6c8ebf;" vertex="1" parent="1">
          <mxGeometry x="80" y="120" width="120" height="40" as="geometry" />
        </mxCell>
        <mxCell id="GYVFRlJBhWlMOk5l2gX6-22" value="文档ID" style="edgeStyle=orthogonalEdgeStyle;rounded=0;orthogonalLoop=1;jettySize=auto;html=1;entryX=0;entryY=0.5;entryDx=0;entryDy=0;" edge="1" parent="1" source="GYVFRlJBhWlMOk5l2gX6-3" target="GYVFRlJBhWlMOk5l2gX6-4">
          <mxGeometry relative="1" as="geometry">
            <mxPoint as="offset" />
          </mxGeometry>
        </mxCell>
        <mxCell id="GYVFRlJBhWlMOk5l2gX6-3" value="勾选挂接文档" style="rounded=1;whiteSpace=wrap;html=1;fillColor=#dae8fc;strokeColor=#6c8ebf;" vertex="1" parent="1">
          <mxGeometry x="360" y="120" width="120" height="40" as="geometry" />
        </mxCell>
        <mxCell id="GYVFRlJBhWlMOk5l2gX6-8" value="资源ID&lt;br&gt;identify：服务名称&lt;br&gt;originalUrl：.../archive/manage/publish/文档ID" style="edgeStyle=orthogonalEdgeStyle;rounded=0;orthogonalLoop=1;jettySize=auto;html=1;entryX=0.5;entryY=0;entryDx=0;entryDy=0;" edge="1" parent="1" source="GYVFRlJBhWlMOk5l2gX6-4" target="GYVFRlJBhWlMOk5l2gX6-5">
          <mxGeometry relative="1" as="geometry">
            <mxPoint as="offset" />
          </mxGeometry>
        </mxCell>
        <mxCell id="GYVFRlJBhWlMOk5l2gX6-4" value="执行挂接" style="rounded=1;whiteSpace=wrap;html=1;fillColor=#dae8fc;strokeColor=#6c8ebf;" vertex="1" parent="1">
          <mxGeometry x="660" y="120" width="120" height="40" as="geometry" />
        </mxCell>
        <mxCell id="GYVFRlJBhWlMOk5l2gX6-7" value="注册成功的服务ID&lt;br&gt;前端构造的服务元数据xml" style="edgeStyle=orthogonalEdgeStyle;rounded=0;orthogonalLoop=1;jettySize=auto;html=1;entryX=0.5;entryY=0;entryDx=0;entryDy=0;" edge="1" parent="1" source="GYVFRlJBhWlMOk5l2gX6-5" target="GYVFRlJBhWlMOk5l2gX6-6">
          <mxGeometry relative="1" as="geometry" />
        </mxCell>
        <mxCell id="GYVFRlJBhWlMOk5l2gX6-25" style="edgeStyle=orthogonalEdgeStyle;rounded=0;orthogonalLoop=1;jettySize=auto;html=1;dashed=1;" edge="1" parent="1" source="GYVFRlJBhWlMOk5l2gX6-5" target="GYVFRlJBhWlMOk5l2gX6-9">
          <mxGeometry relative="1" as="geometry" />
        </mxCell>
        <mxCell id="GYVFRlJBhWlMOk5l2gX6-5" value="&lt;b&gt;addRegisterServiceById&lt;/b&gt;&lt;br&gt;根据资源ID在当前资源上注册服务(服务原始地址为originUrl)" style="rounded=1;whiteSpace=wrap;html=1;" vertex="1" parent="1">
          <mxGeometry x="640" y="280" width="160" height="60" as="geometry" />
        </mxCell>
        <mxCell id="GYVFRlJBhWlMOk5l2gX6-12" value="true" style="edgeStyle=orthogonalEdgeStyle;rounded=0;orthogonalLoop=1;jettySize=auto;html=1;entryX=0.5;entryY=0;entryDx=0;entryDy=0;" edge="1" parent="1" source="GYVFRlJBhWlMOk5l2gX6-6" target="GYVFRlJBhWlMOk5l2gX6-11">
          <mxGeometry relative="1" as="geometry" />
        </mxCell>
        <mxCell id="GYVFRlJBhWlMOk5l2gX6-26" value="" style="edgeStyle=orthogonalEdgeStyle;rounded=0;orthogonalLoop=1;jettySize=auto;html=1;dashed=1;" edge="1" parent="1" source="GYVFRlJBhWlMOk5l2gX6-6" target="GYVFRlJBhWlMOk5l2gX6-10">
          <mxGeometry relative="1" as="geometry" />
        </mxCell>
        <mxCell id="GYVFRlJBhWlMOk5l2gX6-6" value="&lt;b&gt;addMetaData&lt;/b&gt;&lt;br&gt;为指定的服务添加服务元数据" style="rounded=1;whiteSpace=wrap;html=1;" vertex="1" parent="1">
          <mxGeometry x="640" y="420" width="160" height="40" as="geometry" />
        </mxCell>
        <mxCell id="GYVFRlJBhWlMOk5l2gX6-9" value="RegisterResourceController" style="text;html=1;strokeColor=none;fillColor=none;align=center;verticalAlign=middle;whiteSpace=wrap;rounded=0;" vertex="1" parent="1">
          <mxGeometry x="870" y="295" width="170" height="30" as="geometry" />
        </mxCell>
        <mxCell id="GYVFRlJBhWlMOk5l2gX6-10" value="RegisterResourceController" style="text;html=1;strokeColor=none;fillColor=none;align=center;verticalAlign=middle;whiteSpace=wrap;rounded=0;" vertex="1" parent="1">
          <mxGeometry x="870" y="425" width="170" height="30" as="geometry" />
        </mxCell>
        <mxCell id="GYVFRlJBhWlMOk5l2gX6-15" value="meta_surl：服务代理地址" style="edgeStyle=orthogonalEdgeStyle;rounded=0;orthogonalLoop=1;jettySize=auto;html=1;" edge="1" parent="1" source="GYVFRlJBhWlMOk5l2gX6-11" target="GYVFRlJBhWlMOk5l2gX6-14">
          <mxGeometry relative="1" as="geometry" />
        </mxCell>
        <mxCell id="GYVFRlJBhWlMOk5l2gX6-27" value="" style="edgeStyle=orthogonalEdgeStyle;rounded=0;orthogonalLoop=1;jettySize=auto;html=1;dashed=1;" edge="1" parent="1" source="GYVFRlJBhWlMOk5l2gX6-11" target="GYVFRlJBhWlMOk5l2gX6-13">
          <mxGeometry relative="1" as="geometry" />
        </mxCell>
        <mxCell id="GYVFRlJBhWlMOk5l2gX6-11" value="&lt;b&gt;getServiceBySId&lt;/b&gt;&lt;br&gt;获取指定ID的服务元数据" style="rounded=1;whiteSpace=wrap;html=1;" vertex="1" parent="1">
          <mxGeometry x="640" y="520" width="160" height="40" as="geometry" />
        </mxCell>
        <mxCell id="GYVFRlJBhWlMOk5l2gX6-13" value="ResourceMetaDataController" style="text;html=1;strokeColor=none;fillColor=none;align=center;verticalAlign=middle;whiteSpace=wrap;rounded=0;" vertex="1" parent="1">
          <mxGeometry x="870" y="525" width="170" height="30" as="geometry" />
        </mxCell>
        <mxCell id="GYVFRlJBhWlMOk5l2gX6-21" value="服务代理地址" style="edgeStyle=orthogonalEdgeStyle;rounded=0;orthogonalLoop=1;jettySize=auto;html=1;entryX=0.5;entryY=0;entryDx=0;entryDy=0;" edge="1" parent="1" source="GYVFRlJBhWlMOk5l2gX6-14" target="GYVFRlJBhWlMOk5l2gX6-19">
          <mxGeometry relative="1" as="geometry" />
        </mxCell>
        <mxCell id="GYVFRlJBhWlMOk5l2gX6-29" value="" style="edgeStyle=orthogonalEdgeStyle;rounded=0;orthogonalLoop=1;jettySize=auto;html=1;dashed=1;" edge="1" parent="1" source="GYVFRlJBhWlMOk5l2gX6-14" target="GYVFRlJBhWlMOk5l2gX6-16">
          <mxGeometry relative="1" as="geometry" />
        </mxCell>
        <mxCell id="GYVFRlJBhWlMOk5l2gX6-14" value="&lt;b&gt;httpproxy.jsp?url=服务代理地址&lt;/b&gt;&lt;br&gt;获取文档元数据" style="rounded=1;whiteSpace=wrap;html=1;" vertex="1" parent="1">
          <mxGeometry x="610" y="640" width="220" height="40" as="geometry" />
        </mxCell>
        <mxCell id="GYVFRlJBhWlMOk5l2gX6-18" value="" style="edgeStyle=orthogonalEdgeStyle;rounded=0;orthogonalLoop=1;jettySize=auto;html=1;" edge="1" parent="1" source="GYVFRlJBhWlMOk5l2gX6-16" target="GYVFRlJBhWlMOk5l2gX6-17">
          <mxGeometry relative="1" as="geometry" />
        </mxCell>
        <mxCell id="GYVFRlJBhWlMOk5l2gX6-16" value="ArchiveManageController" style="text;html=1;strokeColor=none;fillColor=none;align=center;verticalAlign=middle;whiteSpace=wrap;rounded=0;" vertex="1" parent="1">
          <mxGeometry x="870" y="645" width="170" height="30" as="geometry" />
        </mxCell>
        <mxCell id="GYVFRlJBhWlMOk5l2gX6-17" value="" style="shape=image;verticalLabelPosition=bottom;labelBackgroundColor=default;verticalAlign=top;aspect=fixed;imageAspect=0;image=data:image/png,iVBORw0KGgoAAAANSUhEUgAAAmIAAAFsCAYAAABvtNULAAAgAElEQVR4nOy9b2xTeZrv+e3VvEBCQsJRrFQGCM6fEnAjVtABpnL7QsL2klKrIlqbOKi7tiskKecFxZ2rGRQIiWakmVYcV1JoNFcUL+IBllu3uyuxM7cpo1Il20UCty5FiCto2QxBlZA0VFUS7I2lrRUS786++J3/Psc+dpw4wPcjWbF/f5/zO+fEj5/fc57nJ5IkSSCEEEIIIevO/5RvAQghhBBCXleoiBFCCCGE5AmTIhbHYGsFPKUV8EfzIxAhhBBCyOvCTww+YtEAPH+qw0LnvjyKRAghhBDyepC0NVlbvi0fchBCCCGEvHYYFLH4nx/nSw5CCCGEkNcOWRG7D39pBc7BjyuNhfmViBBCCCHkNcHgIxYP+6iMEUIIIYSsE4atycKdZfmSgxBCCCHktYNxxAghhBBC8kSSIjY2930+5CCEEEIIee0wKmJVbQh828SAroQQQggh68BPmPSbEEIIISQ/0EeMEEIIISRPUBEjhBBCCMkTr7EiJhKct4bj+RaEEEIIIa8peVDERBR/fxSYClTAE7hvKPeoLx8Gl9OPNhWwe7BAN15rCKtVt+Jhn43SZpY7gCmHY9rLbofd2q2OeNgnZM/ReIQQQghxRp4sYjUos8wt3obh+VkszM/iXh/Q2bUaBWofuuZnsXDHj1rL+kKcuDKboywCmtwLQ0BDBspY5titXbbcR/BsmZC/c18uByaEEEJIGvK6Nbm9vAa15dZaReHPjqF2/DG+g9kaFcdgq8la9ucQWmWLlKOtxmhAtWAltdfVJVvlxjXrl531qKoNgZrL+CKqyKqzlimWOXmOhgEg2JRsSZsKpLewWa7dsliHjEOP1JRhe4ZdCCGEELJ68qCI7UPXfBAnioDCxqCtRSr+1SjG2uuw38GIwc+BD+dnsTA/hPKzXem3NKs6ZatbjXlWDF56jMAd2boly6kwdnYUZXfEPL6BSzbzFKLiTWDuz3EoVrcFxcr3i1GcC8fV+YfbAd+QUt+pHuv+Tq3PwhDQoCp9ztYuI5bnMLf6UQghhBCSBX+RbwGMXEZD6WXxtsaPe1ecbZX5TnkhVJJ9eLt9HF98D6AodR9rClHx5jgaqivweGgWXVXG2to+v6yYbUOZWYezYSogLF/aGOn7xMM+HDw7rhW01zmbrMiLK/NeZ20V2b71494VZf0IIYQQsp5ssKcmdb5WWSkHccx+uzofKsUa9fafKrLMMBDH7LdA+c5CIBpAw4De782B9rYcwrmz0KxyQ23ZHIYj9nfOYsEPnMvBwwyEEEIIyZwNpojZo+TAjIe70Dlu02h5HCPjZajIyhpmZH+nUJzEFqNz4uEudMIPn2JNU/2v7iN4Nllw6/GVY4hj8NJl55Nn4yNWVI7yDJoTQgghJHe8FIpYYeMp+AZEDsyDc8cQMBmWVIf36lHU3ZF9rWSlxFPdhbHxLhzUOdgr4RoOnh3H2NlqneXLGIri4NkynHbkh3UZDUqfz49pW31VbQhAnrt0BGUmi9j+k35Anl91yi/y4nS7Ml4X8Iu1s4gRQgghJL8w1+Rrz334S0fwtu5hAUIIIYSsDy+FRYysJfvg63ssLHAM6EoIIYSsK7SIEUIIIYTkCVrECCGEEELyBBUxQgghhJA8QUWMEEIIISRPUBEjhBBCCMkTr7QiNhWQnwSMBmyTZ1smEbfBmHw8lzJkiJKYnBHxCSGEkJeaDZZrMvfUlq8i39GGlEFLTH4iBxkECCGEEJI/XmmLmMq2MtSqqYYEUwElgn61IWWSVq6Ldi9H6ddH4veU6qxoioWqNEV+SgsZlEj+mVrZtBRIhBBCCHmZeS3jiMXDPhycO4WFzn0QW5NdgD+YbGGKBuD5U53cTvQ7Bz+upEx7lEmk+vvwlzZhru9OmjGzHZ8QQgghG5lXfmsymThufg4E/Pusa8M+HNQn526vSz/kcgit1V0YUwva8LYjWfaha37WUUtNtjIMUwkjhBBCXglej61JpyyHcO4sELgzi4X5WSwMOUm4HcdgVxfQd0f0mR+Cb43EK2wMYmG+Dl/kyumfEEIIIXnlNVTEClHx5jhGvhJ+WfFwl8FHTPO/imPw0uWk3mNz31uOWr6zUB7vEoKOZcnGR2wbymoyaE4IIYSQDctrqIgB+0/6Adnp/hxOIaAoNkVenG6/LBJgl3YBvzBaxAobT8E30GRy1i/EiVNtCDZVyOMdWzOLGCGEEEJeLV5LZ/2XmxQPFxBCCCHkpeK1tIi93BTixKkydFYzoCshhBDyskOLGCGEEEJInqBFjBBCCCEkT1ARI4QQQgjJE1TENiq5TBJOCCGEkA0JFbFcsBxCa6kPg8txDLY6iws2FbDJSemYOAZbdfkus5AhFbHhZoRawogthhFxNWNi0dQgegEhlwuR4ZiheKbfZVkeG25GyCXqQv2TzoSQ5wi5XEIWQ+Ukbip1rguYSSpTXjrZ9eM5lSFpXG085VhDLhduRtO3BwAshhExyKxht3bOiGGiRT+XvQx6ufVyGM6RwzWKDTenkFeRweL60dcbzm0MEy1WcuvLra6HzLFbB8dEL2hrpL+2MpBvpl9e5+iF7GQghLz0UBHLGTlOxF3ViYWMUxnlWIY9JXBbVkzi5rEHKDhfrysTX5RLtQlUnk9uP32jHkcSCXgTIyjorTMpLlbEMPExUJlIwJt4hB1ox4T6hT+Jm66L2DydgDeRgDdxBrsBAAdwNKGUyXNhL7YUQyhAx5TxEqhEnWOFJzZ8Ec+Dj+Qxr+FQsVBApjGizoNjitIQw0RLHTAqyzBdj1i3/KUcvYBQN3BoegCbzMdqu3bZkFqG6YcD8rlI4EjwAeZ067BJPc4EvB0HshdhMYyI6zbeSIygwKbJTH8dnp/vNqzFTP8uxN55pMldqSgnbhy6qp3byj366yEL0qxDVpwf0dbuaqPNvZPMptKS1c1LCHmpoSKWUwpR8aYWZR/LIbQGQhhsrZCDwFpvNcbDPl2A2HjK9lMBpa7alBHARgZ9v2zCXRSXYLOizMjM9NfhebAflaX6huKL8miV1SAHcFT9YjqAN0zKhsESo1oS3Dh0VVGw3PC8U69rfxHPg/04VIyUiHa/wW4Asa8jgPweiOHHh8CLG7fluYzWFrOSuDIfweYS/ddqDAs3gB3vyorK4hM8RwSxr2MAnuD59W68oaxD8WG4EcHCIoCqMzZf0KnWDjorWrLlRrPq7MLT60ppChmKS7DpuvweMSzcMB9b5jIAtzXrm2IhKm5EvaogWyArQofe1Sshk1jq7UZ5gyzP4hO8QA+WkpR2cf4MchssUnr5jOdWVb5TrYPJumW4HvTrcKwn3aol97GzehWXYNPxElullRDy6vIaJv1eA4q8uDIvv++cNVqxBrrweGgWC1fkpN2B+1jo1CUcjwZMibwLceLKLE7gPvylI4Zp4mEfGjCEhfl9UAO7OpEhC9wN1+CV3x9N6CwjiiWhww0MZzPyJJZ667H5XW28WzfqcSRxLYUFQf6i/OAaAFkxKq1HxNWOF4CwRCRZbyYx7duL8oRb61N7DcKaVgcEB7Dphmg5078Lzz9IwHsVcn0zJqavwfN1M275IqJRrwshdS7g+fW9eOOqkD90DNgRrNdtRT3Aj4sAigFEP8HT68AOh9/ZVut1s/IJyhMJodRELyDUEkbB1UZAtcodgFA4OnT9bGQobkR9okQoTqjHjukEjuoU2he+XQj5AKAeO6avycpuChkAvPCJuqOIYaJlF25GUyiVyjEde4Ad02fgRlgrXnyC57IyEhtuxq0b9dhxHniu7+eqwwogzoMyh87aaVb8VAvbVdPVlWodqs7Amzijm/MCZhJnsBuTuFkZgXs6IdYlegGhMd2YvXUI9Yq3BaPKGtivnRvA7g5F5kbUX021ZoSQVxVaxNaaGj988hdG4c+OofbbOdUqFWyqgKcJOiUsFXHc/BwInNyXtqUV+ztnsXDFi8L0TVMgf4H2ON92MSK2zPTWrJmxHhR8kHq8mf5deLpnRP5iE9aQlRvAIWXb8mHyVmds+CJWzh82fTFrW5pH39LKlnqBlWOKxUL+ooesjCbEdmHBqMV2XfQCQh+X4EjiDDxq4QEcHd2Lp5XyeGMl2HE885XS5riNFfRgOskKY7LKGUglg6yIjipbf5rFRzlebyIB7+hePFW2BW1lEGxSLY3Ccvn8SeotPsWiamfRXBluxq350/BebcQW83HptpYV65vR2qnHZGEz1dmtg9GCpV0PiN7GyvnT1nJXndHWbnoAz5Wt6jRrRwghtIitJ98/xhjK1I++Pj/mzo5idhnY/zKkK4rexgoiWKl04alaGEHoxgCOpPWJEdaSp3tG4LX8YrRmpt8lLHBXFYXDjS17gIJaZT7x5T/xJAZUKeNOYtoH7JjWlJSC0npMH7uoWXmiT/ACyrZYNypTbaMlUYLNx3sw/bF23DPzEaC0X1QnWVRk61m2WFr8YlhI1cdGBqGgKtakRtSPPkHo4zBi5vNXdRgFuJ1GBiQ5pGuWRzuE4vsCiuVNcMsVwY7p09h8vQ7Te5S5hNKN2uRRdtd2Y/rjJ4ghOz82+3U4jIXudiD4SL5OJ3HTdTvNaCaKD8N9PKJ9tlk7QggBaBFbV6b+dBm1v6jRrFI7vbhy5xhGqnVPP9pSiIo3xzHylbCnxcNdNj5iNnNn6yOmR/+rP5HAkWC9cO524JisWLXMX0gFpfVY+dj6CbPYcLOshBnHLyitx8qY8kRfsp+T+JI1Wi7cb9Vj0/F6eIpFn4mPe7DpncNw4wDeON+ToaO2UP5EfwCLYcz11sP9VvIqCOuPlbXGIVWHUdB70eKpQze27FH80oDYcIfOR8xeBnfJXuDhE3W9Y08eWD6UERu+iBXFZ8lWBjPytnNK3z3TAxXTA9h0fABHEtdwqFj4DxbUytdI9BM81fu66Y9prEddf3fJXrzwfWLheyUUZqtzm24dlOspNnxRs4gVl2BT723tCV0761b0Ezy9LvtVOl47C5ZDaC1d/RPQhJCNDS1ia814Fw6Wyr5c7UNYaDRtDhZ5cWXoMTzVFXg8NIuuqvvwlzYhKFcHSy8DNX7cu+LF/pN+oLoanrNAbd8QAjWX1vVQ0jHT78J0r/JpF0I+2c9o8YJcrvnQ4LisYDVcQ+W8C7dc7cbyxTAmfBEAEa1OsVw1XENlvwshlyjdFHyEevXLOtkaBgAobsShd5q1sc5rlrndHSNYcuksNMfTW/jcDf1wt2h9CkYTquIXG9Z8yzYFH6FedT4PI1Ip+7UBmHb1YFq2ltiuXbHYZgzprJDKmLvfHcBcpZBhU3AEO45fVOWzlaHqDCr3mNdbrJVBBsMa2MsA6P3K9Oug8+cChBXVwbqKcyH748l+akKJNY5nPqYjwWbccrkwDUCzcLpx6OoIburOrdovxToc+qAboWNChk3BARTgiWhT3Ijy8y5x3tCNytFurIwlr7fRwpp67VJSVI5yAMG574FVOhUQQjYuzDW5liyH0NoFfLhq3yxCyOtHHIOt1Rj5xR1cMf+AI4S8MnBrkhBCNhrRADylVMIIeR2gRYwQQgghJE/QIkYIIYQQkieoiBFCCCGE5AkqYoQQQggheYKK2GvPffhLK+BPm4SbEEIIIbmGilguWA6htdSHwWWRsHvDBWBcDqF1NcFcowF4AvflD5riNhWo0JVnyWIYEVczJhZFcuaILvimIRm4q1kLimlKyqwlCocpPY1uvMUwIi3WgWONyLkF1WO/YD0P9Am3zYnC9Ymmmx0F8zQeqy55dqp1cIDSV5NvUkvQbZoHgHH91OM1Js7WjxcbbjacM0ekOhd2588ge6o1iGGiRam3lztpHdQxzeVW8ynjWiTwlq8XVW7ztWpxHVkehe31kOqYdP1M5zU23CzmVe+3NAIQQtYNBnTNGWWoKAJm8y1GxuxD13ymUtegbFsuZRBRyH/UFy2GMeHbi8rENS1Z8u8mcUiJzG+T9meiux2bRxNygNdJ3HR9gpmGTNIXmcb7WEkmLVI0TQwfRn2DW0T9VxNua4nCDxWbEk0vhhGpVJJGp8Yy0Ge6dUiF3LfgvC7djhzZXj0+fZLuxTAi+gTVBvRJwNeKFOdPlW0EcF1MN5COVHJbpbbSr48iw20RJV+RcrgDT/d0oyApk4HIxVpwvl5LVG5INQU5UXhyJgMr7AO/Wh/TTL8Lc6WPcCQI3Jq36LanBG4lOC0hZMNAi1hOKUTFm0D5Tjnuz3IIrYEQBlsr4CmtgKc0gCmlaTQgl4mXtjUYx2CrD4NhrV5vYZsKVNiUW/URFjpPdRfGxrtw0NQvHvZZzA9NdkW+psuWR7u9vAa15dss+2W+1SlySKqpiopLsBk9WJLHmRnrwabSEvvuujHU9EfR21qaHpkF1Yqlt2borQy6JM9w49DVM4aE1kp7Q8LtxSd4DiXdkCnR9OITvFCPw2TNcGKhS7MOequc0XqkKDVn8Ibt4E/w/LqWkmjmd6J95krrbc2KpLfEGKxbydaj5HOR4vwVN6I+hTKrrcMu21RP2RAbvmhMUaUoxh2HLWQQycwrS21Hw8THD4yJ2lNYXDNld0cifcT+4hJsln/4EEI2CBJZO5aGpBZPudQzKT7GQu9LO3unLBpOST2eXukb0Ur6tKVc106ri4Xel1pCMblctFPG/qa3XNrZMiTF1HmV8eTPSp0F3/Rq42hzvi99uiR/nOy1kTv9Ma+OZ9Ldk1uloa1bpS/1401+JA1t3aq+vjTN9Sz8nqjru6cV/hCSPtO1fRZ+T61/2LdV+iz8TG54T/py60fSQxtZRH9dm8mPpKGtH0l3w++JMX4ISZ+dDEnPlDlOhqS7fckyKjIo86oyb90qDW19T7r7Q/p10Pc3ypd8fIb55bUY2rrV1P896W5YW1vz2Kp88vFpcivrZbNGyjop/VKcC8Na6M+fyj3pS9P6GPvLx/FDarnFOLo627n014Kz4zOeFx2THyVfk+a1lOvtr4dUx2S1HoSQjQ4tYmtNjR8+OQ9i4c+OofbbOeGrpbc46XJLyp0QOLlPfr8PXfOd2I84bn4+jrGz1XKf6qSk375TciolOUdd1kRHEGw/hRNFWfQt8uLK/Cy6LBI1Z4bYNou98wjexAhwTGfx0Scfnx7A82Oaz0tsuBm3btTjSCKBStQZrQzHB1Apy+V+qx6bHj5BzGzBskFJWn5Uf1zRCwh9XIIjiTPwmNqvDDfj1vxpeK82YothHM2CpeUmBNwN17RjGt2Lp5WKlchuHUSy8xe+XcmWINVqY7N9WdyI+kQC3sQjuG/sksd7gufXI3g6f1iWYwSbfR3yurpx6KqWqLtyTztu6Sxfm1SLkbAaPn8SE9Ys9GBasfaYE2Rbnos0588Sk3XSQCq59cnHH2HHw7okXzeRPP6wag0TW5KmawCAsiW5oydVHk2RaF5NaA4g9nUEL66341ZG10Pqc0EIefmgIraefP8YIkdwHINdXUDfHSzMz2Jhfgi+NF0FNQjcmZX7iNfqFZ4NSvQTPMUADjW4ARzA0ekBwPdJsnN08WG4jysf5ITf8hfi7o5H2IF2TFttky4+wYs9znx1ZvpdmH44gCOqYlOCzcd7MP1xiZrEemVe/hItLsHm6+2Ynj8t+7DF8OND5ZguYLq3G5Xyl+iRYH3yZABQdVjbTk25DvXYMa19KXsTwtcr9nUEL3RK0HQvsHLMwjFfVpxezD+Rj6lep9AcwBvnI3hu4dS9u7bbdq1W5iPa9vL5EYNsXruE3+q5yOD8ZYG93PptZwVZFnU9hOKL3jrdFrZY45uf3MYKInhaqSlUL3y7jEqkfB4rTffrpuAj4xpZKc/668HxMRFCXhaoiK0jU3+6jNpf1KgJwBVfsnj4kskiZkUhjv4C6Pw/snxKcfwxvnPadlsZagdGZH+2+/Db+IhZkrWPmIniEmy6/kTz11p8ghcmfy8A4gvuuuLzUoLNx/XKg9EHSo/mayWUKtUHq1/vIyYsNNMPB1SFSyC+uDe9c1iULYYx11sP91tCWXrjPDTLR/QTPL3ejTeUL2D1GCYx7dM70evnvKjzjbJbBzc87wBPf5dsDTFYUxIJVJ4HCkatvuSFciFkdWPLHsXPTci31Gu1dsKyY+2vp+tTdRgFvRcdPZ1nPBfOzp/uaA1yx4Y7bHzEUss97dMpkFCsYad1DvFGS5Q3MYICCKX66G/OGNb7SLBeKFjqNSNbwz4wKqLut+qtf1yYJddfD46PKTOE76nOh5UQsm7wqcm1ZrwLB0u7xPv2ISzICXxPnGqDp6kCQQC1fX748DjtUIWNfgRaq+FRnYHbMDzfif3pOhZ5cbq9Ag2lQqGq7ROJhKcCFWgYkNsMVCCIGgTuBHHC0L4Nw0NtCP4ps8NeNcWNOBRsxi2XC9MAxBNu4ossNtys28bRP/nmxqGeAUQqXQjJtQWjCfFlugjgejtuudpFxfkReOXtyEMfdCN0TPQpGB1BQe9t0WYxjAlfBEBE66fM19APd8suhHymeQDs7hjBkkuRQTzhthsAqn6DHdglj9WNHUHt6bqZfmG5AgAc1yl+KdYBDf3Y0bILIZeyaFZPAZpYDCNS2Y4XuvVRttp2dzzCj5bHNImbuocYzE/zvfBZ9TmAo6N7Eap04alVP7tzYXf+TDKsVLrwVF6n3e8OYK5SyLApOIIdx5WnKlPInWIdVGvYtIMnU50gW8OOmK3XSedWk8P2ekhxTMb7IoJQr/m47NleXgPgMWaXgf3ZuCQQQrKGSb/XkuUQWruAD694VSsYIYRsOKIBeJrg7IcdISSncGuSEEJeW+QQN1TCCMkbtIgRQgghhOQJWsQIIYQQQvIEFTFCCCGEkDxBRWwdiId98Kwm6bZxtI2ZWJwQQgghGUNFLBcsh9Ba6sPgci6VpPvwq5H3fRhcTt06Zd5IO9ZA7ge/BX76E+Cv/7DqoQghhJBXHsYRyxllqCgCZi1qChuDWGjMbLR4+BLm+u6occd0o+HElVmcsJljKlCBLzKayV7uTPljE7Dwt8BVAP+Sg/EIIYSQVx1axHJKISre1CLmG6xaSVuTeotXsjXqu7lx3Tgy0YBt+5To+llvkZrlFggrm/No278cAv7mr5yLRQghhLzu0CKWC4q8uDIvv++c1cXi2Yeu+Vl0yYFd9dhZvOJhHw6elbN5D4jI+2gfwkLnPqCqEwvznYiHfTjnVLblEFovleHe/CwKlfED5WI8W7kJIYQQsh5QEcsThTvLMNZUDc+crGQp5fotxp+vPql3/KtRjI2Pa2mWAKD9lDMZs9hSJYQQQohzuDWZL6o6sTA/i4Wfj4gtw0CWybwdUNt3R8ylvHSKHyGEEELyBxWxfFPViYU7ftR+O5ej8BZGCn92DDh72bGfl55MfcTSMRWoyOl4hBBCyMsOtybXkuUQWqu7MCZ/PFjapfp7TQUq0DCgNfUNzaZNDG7wH0M1PGdFv64qGMcbqEAQNQjcCeJEkRcf9vlwsLTCMNdqtzytePBboOXvtc8//TXwd98Bv9wmPm8vrwHwGLPLwP6i3M9PCCGEvGww1yRZP6IBJhcmhBBCdHBrkqwDImAslTBCCCHECC1ihBBCCCF5ghYxQgghhJA8QUWMbGhCLpfl+9WOlUldLvtkO67TuZy0y2T8TMsJIYRkBp+aJK8EZsXAm0hk1N+bSCDkctn2y0QhyXTu1WInd6rjMWN3/OnWhRBCyOqgRSwXLIfQWurD4LJwSrfLAxkP+xzmiLwP/4aNtyVyZPqjclyw1QaiXQwj4mrGxGIMEy0uRIZjAFIrPuaXgjeRcKww2I3jZHxlDv1n67kncdPlQsjVjIlFpwuSLKeV3HoUZcnczolyZnf85vFzQWy4WZuvf1Jfg4kWRQ7TWkUvaH1awohZlbtcuBm1mcc0XlYyrPJY9bKtaryWMGLq/bL6MQkhGwNaxHJGGSqKgNl8i7Eu1KBsWy7H24stxcCPKVroFQinFhq7LTiz0uRkPDtlx6odAKFgVj5BeWIEcF1MK6sTFDn1SpOVPFb1ZsuWeR3W3uo1iekb9TiSuAY3JnHTVYebtQkcrQJm+nch9s4jeK+65XW7gJnEGexGDBMfA5WJhHjfsgsTw4dR3+AGqs7Amzgjhjb0AdwN1+BtkKeNXkCoOwzP1Ua4s5IhOxQZZvpdWMrB6gEA9pTAjSe5Go0QskGgRSynFKLiTaB8py40azQgUhiVVuiCsRrLPbKFCVCizzchiMtoUOoVq9NyCK26Pnrr2lTAh8FwwKJODh2h9GsNiQj+yyG0tgbgbxXR7gfDPoMcxrmsrXPby2tQW27SyOR+/oytAG5s2QNsLnEn1ZiVBCulyAora9VqlA07a5i5DgBQ3Ij6DL/IzZYpfbmV7HbHZiejfg47RdQ8r5WFLDsO4OjVRrjl92+cV8onsdTbjfIG+bwvPsEL9GApCgBuHLqqrKEbnnfqrYdefIIXx0tQYFEVe/JAVmCylcEO2YKmWtWE9VOx6KbsabDYXcCMVf/FMCJW1rTiEmyWf7gQQl4RJLJ2LA1JLZ5e6Rv5Yyz0vtQSilk0nJJ6dO2SP1sRkz5teV/6dEl8+qa3XNrZMiTFLOY19FJkWBqSWjzlUs9kTPq0pVza2Tulk880/2SvNrajYy6XeiadNLZnaOtWw18n7fWvVGOm65tuHHOf1NyTvtz6nnT3B0eHYZBTP75+HvOcdnVO1sGqjd342ayTNbo1+SEkfXYyJD2TJOlZ+D1p6GRIutu3Vfoy6fp5Jt09aSx/Fn5Pnj95fR/2KbJ9JD3MmQxWMokxnoXfkz4LP0tq8TBpnHvSlyllEnXJ/QghryrcmlxD4l+NAn1+6wCmpvRHQBveTjviffhLmxBUP9cgoKv1nfKKNElF5SjHY7XcnE6ptk/p7oevCriJGgRO7gO+ksujIwjiMoKll7VONf600gEAiry4Mu911jYDUlllzJYgs1XHiRXMzp/Kblh2hJsAACAASURBVH6zRSnVONnixPJnZS0090+3DevU4pXpdq41MUy01OF58BGOFgOQfZ1WhpsxPX8a3qsHMNPfjuemXjP9u/B0zwi8utRc6hbkYhiRymZMTF/DIdlStLsjgd0dkH3JLgAG62R2MiTjxqGeekQqXXh6fABHriZbc5MpwebjPZh2PcCPOnkFB3B09LY4H+eNx0oIeXXh1mReiGOwqwvou4OF+VkszA/B56DXVKAJwfYhuc8dBGocdIoG0DDQhuH5WSzMz+Jen5NOEDkx5T4L87NYuOJNmwtzrUm5FZiiTy621qy2OfVbhpk8KLAa0jnSO1EY9duNdtuaa4Pw83q6Z0T4eQFiq+16u1CAOg4AiOHHh8ZeM/0uTD8cwJGOA9bDFh+G+3gEz60c2KsOowAP8KNal50MKTnfbbktao0bh64m4E30A93WDwZsOt+NTRlMTwh5uaEitoYU7izD2Ofjqk/WOb2PGDRfsnj4ks7KpSCSY5tRfbKil9E5nlxvSU0ZtgMA7iN41kGnqjr4Bi5h0GL+tGTtI5YfMnH8z/Qpy7XArAhmIlPqJzyNc1ix2mNTrVoGhUr4ahXUymXRT/D0ejfekK1BseFmoYSpvl0WLN5GTNfHQPQ2Vo7Xw1OcvQyKHMlK0yRuVkbgfvcMKt+J4JbhKcx0CIWs8rxOgVwMI3IMKO84g3LUOfI3E4gnmVf9BDMhJC9wa3ItqWpDANU4WNoF1Pgx3FcD8fxcIU6caoOnqQJBALV9fvh0W4nAPvj6gIPVFegEhHWqcx/2n/QD1dXwnAXQ7keg5nHynKlkQBsCfTWYS9tpH7qGyuBR5gdQ23cHVxrXzyaWjWXGTlHIhZXHalvO/NeIeCpvRf60om5fpVAodKTacrR68tNKrlRjm8fMVJ6MiV7AdC8A1CHUK5fJ67G7YwRLLhdCAIB67Ji+JrYRF8OY8EUARHDL1S536kZl4gwKhptxyxcxlClbjzP9LnkubQ53tjLYYtrebOjHjpZdCPULJc8gQ68LIXnMQwgjUtmOF8owxwdwpAMQSl07No8mxLwdI1hy7UIEjzTLnS3bUFYD4Ns5xLEv75ZrQkhmMNck2dCYQzZYYReawW4su8/p2pvLsgmpkQorBSmdDKn6OS0zH4NTvzIGed04TAUq0ADxg40Q8nJBixh5aUjlUG9nPdK3MZelc9BPp8SYZXNiaYoZLDl66rFjOmFy3k7t45ZqPjs/NnN/J2FBnCpcBiuQAaPFiuQQ5aGfdiphhLys0CJGCCGEEJIn6KxPCCGEEJInqIgRQgghhOQJKmLkpcdpWAU7X7FcyZDqlelYuZIvVf9sxl6r8ByrOTdO2mUyfqblhBCyGuisT156nIRs0OPkqUqnuSyt3luNuxakC+6ajnTrlolCst5PUDp9MjYVdsef6fVECCGrgYpYLlgOobV6FHV3/EBXNUZ+YR1zKx724Rz8DuJx3Ye/dARvz3dap0fKIVOBCnzx81l0GYJhpppfpFnC0Cze/lMOHplfDCNSGYF7uh/o3oXYO9Zxk2LDzZhAP+ob3KtWEJyGaMhUucpO4ZrETddtvJE4g2kHT3KaZctEccxm3ZyE+zD3V56e3BR0EgPLWp50T6w6PYepxks3fk6IXkDoWI94b4ojp3/KtGA0gaPqPaiPQSfHHys2l0OkQZID0xqfxtX3yVaGzNHLsNqx1PFu1ONIDzBRGYE7KSUUIa8GVMRyRhkqioDZfIuxLtSgbFsux9uLLcXAj7b1k5j27UV5Qnx9ZBMvzFyXidLllGwi0seGL+J5sB+7AUxb9Ms0TlmqUB2Z5oq0CmeRWtkV6YOef5BAJVwOAgenxxxHzk4eq3q7+HK5jP2WmhgmPgYqEwnsltdmYvgw6hvcImMARuBNHIBQsLRcmbHhi8BoAt4qWRnpDsNztRFuHMBR01rfjAqFR827CQjFS+2TnQzZoMgw0+/C0uoXT7CnBG48ydVohGxIqIjllEJUvAk83qmzeEUD8DRpybPVhNumct+QsErpE3SrSbeVGEGmROH6aPdTAR9my8vQefayqS6OwdZqLR1SjR/3rnhRqJ9/oEJOsdSGYZ0VbDbsQ8PZcQA1CNwJ4kSR8Wi3l9egFiaNTJaxfMhsZUuHG1v2AM9LrKxhmrKSDVYBS/Wkix2WjkysUcYvfqOCaW6fzgJkRa4Dr9opLdbjirQ9ADAzBkdYKcn68lQKszkAbTqLXbpAtmZ5Vq+kuXHo6hn1veedeoikRTEs3AB29MgplRaf4DkieP51DGhww91wDUeVXm/VY9MNq7Gf4Pn1emzuSa6JPXkA7DksW72yk8EOYfXaq8aFU/OApssYobfKqRY7Le+nsOwJi99zsyW1uASb5R9rhLySSGTtWBqSWjy90jfyx1jofaklFLNoOCX16Nolf7YiJn3a8r706ZL49E1vubSzZUiKqf21OkMvkwzf9JZLPZNW8pRLO3un1D7K+7QsDUktHqsxs+WZdPfke9LdH6xrh7ZuTflZX25XZ9U3k7bZ1EuSJEmTH0lDffeS+jjqK2nHlOrY0q2H1cvJfOl42LdV+iz8zNFx6OXUj5/qfNjVOVkHqzZ242ezTtY8k+6e3Cp9OSlJknRP+nLrR9JDSRLXwNaPpLvh9yzX61n4PcM1Iv0Qkj6T5ze3f9inyCaPnSMZrGT6LPxMyHIyJJl7POxT5tDPa3cPa3XPHM5PyKsGLWJrSPyrUaDPb+3nZbJuAW14O+2Iwj9LSxBeg4Cu1nfKK+eZ24e328fxxfcAioxWNkBnlUtJG4Zl36/CnWVwvM9U5MWVea/Dxg6IfoKne07Dm6Nfw2u1HZV5uqQYJj5+gB09Z1L2sSOVj5jTY0zn75XqYYDcWo6Mc6SzMFpZC839naRocipPqnGcoiYb11uJoxcQ+rgERxKNwHAzklJ8Ry/I1iddgvLiRtQnGqFsTepzUe7uSGB3hzyu6wJgymaQlQwWuBv64W7ZhZBPWLbSewG6sWVPBNOVLjxP8h1z41BPPSJqLtbMfQoJedlh+Iq8EMdgVxfQdwcL87NYmB+Cz0GvqUATgu1Dcp87CNTYjz/7rfw2GkDDQBuG52exMD+Le322nTYgsrLy7gHbFmb/oXQ+Y3rFJV2IiUzCUVj5MaWUS1Yw0/nj6H2arHzb7Prk4klNZT6zX5W5bq1J93SoE4VRf97M18JaH4O6fdehXMcl2Hy8B9Mfl6hbeivzprRX0QsIHXuAHdN2qaHENuOLeQv/qarDKMAD/Li4ShlS0o2C885b7+4Q18obY+I83IyaGpzvRkEGsxPyKkGL2BpSuLMMY5fGEW/0onA5hHNnxwGdNapc9iWLhy8hiDKTRewxZpeB/Sa/rNpy2Screhmd4zBYxFSWxzEy3obTVwBEAdSUYTsA4D6CJhkAYO7PcaAq3ZOcDsnaR8yCxduIod6RspLKWpEqF6OeTMJBpFLGnPgtzYz1oKDW3hq2lqzG8d+ufC2VGSd+e3YyZRLKwm7c1RxbbLjZwodK8dWS/bgWw5jrrYd7Wm6xGEbk2APjk4/JI2PhRgQFH1xLrorexsrxelQWr0IGRY7KdsDkszXTLz/d/NZtRCovYCaDPKK7OxIoKG3GxJMYUOUGMImb8hORnq+bcau/RH0SNB3C0m/0ayXkZYSK2FpS1YYAqnGwtAuo8WO4rwYXAQCFOHGqDZ4m4SRf2+eHD491HffB1wccrK5AJ6A66+8/6Qeqq+E5C6Ddj0DNY8N0wSbF6V441+83y4A2BPpqDLuMhjGxsf6pzfyuHZs/SKTd+kin9KwXjmNSLYYx93AAhzqQ1DabOa3I9VOgjhVMQ+JvbfvKyZN4qbYc7Z52dXru7Zz/M5EnYxbDmPBFAERwy9UuF8oJ0NXtPVFaMKokfI9horsdLwA8rXThKbT6o8VCMXqhL5N/7BjWXR+iIisZ7FGVug43gEYcCjbjlrwNCr0MvS6EVKd8U9gNdKMy4RbH2iKc848WA2jox46WXQj1jzhSxraX18DuByshLxNM+v2KYB0P7CVmMYxIN3AoxdNYdk/Dmcv0dem27ax8rpy2TeVPpG8z0+/CUq19nCWncjoJb+E01laq+lRPGK5W4XOydnbHYdXPaZnVk7SZykDyTDQATxM21I9HQrKBFjGyMSluRP1V66pUyla68Ad2Zfo+6dqZ2zpxBNe32d2RcLyV4zQcgxMZ0oV3MI+TzoqkVxZTKiiLRkuOHqugr6mU0EzPfTplym4upwqX0QKop1sN8UByjRKSZ2NZ8AnJFlrECCGEEELyBJ+aJIQQQgjJE1TECCGEEELyBBUxQgghhJA8QUUsFyyH0Frqw+ByHIOtFWgNxy2bxcM+2zoj9+EvDWAql/K1huBk5rWSYSpQAU/gvnjSadXjTuKmHBRypt+FUP+kWhMbbjYGX20Ji2jhi2FETEFZRVBJMZZ+jJl+U53uFRlWYo/HMNFiMQ8mcdN1ATM6aVONZ11u7B8bbhbjL4YRcTVjQheokxBCyMsNn5rMGWWoKAJm8y3GBkYNRpsT6rHZJuaR1ZN4SmqY2HAzbs2fNsUpqsemh7cxgwOmp9wO4GgioaWB0YXSUIJaejNOyWL3NJ2u3CpFzZ4SuGERRZ0QQshLDS1iOaUQFW9qEfMByBagCnhKK3Dw7Lhluae0An455cdUoAKe0iYEcRkNSn3gvqhcDqFV18doXbsPf1KdsNB5qrswNt6Fg+Z+WchgtOrFMdjqw+ByKhlMbCtDrRrpH4bj8pvTnjigoLQem0pLMu9oYC/KPwDmhp1k2lsHqn6DHcd7sGRej+ISbMZebMlR3k1CCCEbgPzmHH/FWRqSWjy90jfyx1jofaklFLNoOCX16Nolf7YiJn3a8r706VK6sWU5WoYkm9qMZDDOk4EMqVgaklo85VLPZOZdzTwLvycNbd2qvfruJdcbyu5JX279SHoo3ZO+PBmSnkmS9LBvq/SlXpbJj6QhuU7lh5D02dat0tDW96S7P0im8bYaZdiqjJdcp5V/JD3UjfKwb6v0WdgwIyGEkFcQbk2uIfGvRoE+v3XAQTkn45ha0GbKNWnFffhLm+Q0RgBQo+aaLNxZhrGmanjmRDokR2Qlgz1ZyQAARV5cmfeuYmYjlluTaTmAyncuYjraiDecNJe3OkWwUhdC+rQypu3HmX4XltSODPRJCCFEg1uTeSGOwa4uoO8OFuZnsTA/BJ+DXlOBJgTbh+Q+dxCo0VVWdYryn48YtzNzLENKMpZhY+F+qx7PxybTN9RT3Ij6xCPsQDums9hatSaGHx8Cm0syVSYJIYS8bFARW0MKd5Zh7PNx8bTicgjn9D5i0HzJ4uFLOiuXgkhma0Z1eI9eRud4cj2qOrFwx4/ab+eMT0mOP8Z3Fs2zkWFs7nu5T1dmMtixCh+xnFLciHLc1lmvnPIEz6/nTozYcAeeYgCVjvKGyn55L5nSSwghREBFbC2pakMAspN8F3C6TzFhFeLEqTYEm4RT+zkcM1mj9sHXB3RWGx3l95/0A2erRdmfygwWMeFgL7+qu1B+ygv1kYEiL063a473wok+OxkKG0/BN9AkHj6YO+Zchnwjh6+45YsAvXW60BFGdtcCK2ruQDmsxLEe4Ho7bqnhK0yhK1x1eB58ZJvE20gPppPCVxjLb92oNzyhmZptKKsB4FTpJYQQsqFgrklCXnKmAhVoQIZ+eYQQQjYEtIgR8rIib+lSCSOEkJcXWsQIIYQQQvIELWKEEEIIIXmCihghhBBCSJ6gIkYIIYQQkieoiBECQAlVYRXSItfEhpsRagljg2S2JCQF63dfEPK6QkUsFyyH0Frqw+CySLJtmewa5oTZqbgPf2kAUxmKMRVYj6CoIoCoPyrHDVttINHFMCKuZkwsithckTVLvC3HBHO51kUJmulf7y+vSdx0XcDMhh0vH+jjvdkcixxfLmWbtWQxjMi6KeW6e8DVjIlFkxzruQ7RCwj1Z5jFIo+s//2ca2KYaDGdcyvW4HqMDTdn9n89ekGNs5iL74OM53eA3fUw0+8S13X0Qkb3EXNN5owyVBQBs/kWY12oQdm2XI63F1uKgR9zOWQSB3A0kRD/aLpT1K8D7oZr8DbkdszY8EU8D/Yzh6UBNw5dTeAQJnHTdduyxczv2rF5NIF6R8F4X27ENfIIXos8rPbrsH73BSEAgKoz8CbOIDbcjIl8y5IFm0pLMu5Di1hOKUTFm1raIABANKBGmz+oT3GkK/fo0vuI6PRNCEKLhK9aneS4UR5DhHxtrIYBqJHyPbJFbSpgstBFA/C0hhAHMBXwYTAcSB4vaS5r69z28hot5ZKpX+aWOTe27DHmV5zp10ev135dxIabcXNY9wte98t6pr8ZE8OZ/aKKDTdbRLpXaw1R9NXxDBYEXbn8a266F1g5ZpY9lVVOb63QyzGJmy1hTPTbWDLkNtO+vShXvmAXw4iYfo2pv+AWw4j0h20sRfpjrcNK2pVLsT7p5Nb96tWvhe35i14wjCHO2QXMyJa7m/3yHHJfZ7+AY/jxYT02F5vL7c6FbFVIki+1DNbXsbxule14IWdtSFo/q+srq3MhWJmP2OQvtV6HrO4L0/EaZNDfM8d6bOcy3xuWdSbLjWb1SHM92Fn+7O6LlPdzKkzZN9T/UanuCyH7hOW6G8ezKzevnXYuduGpPg2b/v6z+J+y0G91rHYywPp+1mUzeeHbZZgrNtyMSP8FcS7UdV+dJdZwnSSNdVu7n/SW2BSWYMvr2On1UFyCTcdLUOBUeImsHUtDUounV/pG/hgLvS+1hGIWDaekHl275M9WxKRPW96XPl3SSr7pLZd6Ji1kaBmSYhZtvuktl3aqdVNSj0cZzzT/ZK+uXRqWhqQWj4Ucq2XyI2mo754kSZL0LPyeNLT1I+mh+CTdPblV+lKe72HfVmnoZEh6JkmSJN2Tvtz6nnT3B904P4Skz9R6Iw/7tHH0ZZ+FrVrreSbdPWmcx2osexmMx2CU+5705VZNhmfh99R1UNGtjfX896QvlfX6ISR9ttW4XsrYxmPV9UmBsY/+OIxyS5MfaefFdPz6YzKcvx9C0md6GdTj1MumzaP2TVqP5GN52LdVGtpqfAlZU50LUaeNrYzrRAbzMcjYXI/Pwu85uO6M2J0Lcb+Yjle/3pbrYBzX6X1hlNt8PejuEf066K8NyXSNm+pULK4hMW+qc2G6DszXpM19YbcGKbE7/6nuC3Od7hiT72fT/7WkdTD/r9D/j0r+f6Uir4PV/wRbGVLcz2aZ9GVDWz+SHqrrnixTZveA/f8rMZf+/6n+vfX1YH8dSxZrsXpoEVtD4l+NAn1t2G9VabA4NVkk3LZCTvBcWgFPabV1wm0zRTWowyhuLov+X3zrh0+3/eBT80Huw9vt43j8PYDoiNEi13TZkXRiPi+uzM+iKwdbPYZfOKZf0JuCv5G34dzwvFOP50+034EFHyh5Gg/gjfMRPE/nF2HLJJZ6uzVLk6lOs1iYfm1mzBM8v96NN9Q1M8utyeAu2WvqG8PExw+w490DhtLdtd1YGZN/+UVvY+X8YW3b8riWULygtF49HvtjtUNYUtxvKX3M50I3XtVhFFx/ghUAsa8jBivQLV/EMKp6/opLsFlfUXUGlahDyFUHjJ7RbcNq82jnPjW7OxLwJh5hx/F67JhOwJtIoL7BjfTnol631gdwNKHIYS9DquvYDnfJXmFFsPCjsv7lb38u3A3X4E0kUHkeKBgVx+rtOJBmHVJhd63EsHBDb/3Q3RfR21g5fxqHkqyPQOzJA2x657C6Zu636rHp4RPEAMyM9Tg+pxo25yJ6Gyv6XK/mc2F5X2RJcQk29dbZ+KNa3xdJdcWNqL/aCDcmsWSwwBit1XrLjXYvxbBwA0n/FwRubNkTwdNKG7+34wM4pKyf4f+DtQzp7mc71P/hunXPnhJsPt6DacsdA2BTsF++9kqw+bhcaHs9pLiO1wj6iOWFOAa7uoC+O1hoLIRQsEbS9poKNCHYrqSziWOwtcvBXIU4caoMrV/FcWLnCHCq0yYRdxyz3wL4ufyxPc9pcxbDmPABO6YT4gaKXkBozLrpynwEKO23qInhx4cAanMv3kx/HVbOj8hfaDFMtHTkfhInRD/B0z2n4TV/wVX9Bjs+/gQzOACMPcCOd8/kRTyVxSd4rvu4KfjIwRe+FfUoOJ8rodaBDK5jA7KfjNgKqQPUa21tfAxzRz12TF9LVrg2iqO7bh3XlOJG1Cca1a2vF8cHcOSqhUJpui/s6UZl4kyyD2j0AqZ7tTqnflW7OxLY3SErcceEgn40rTJkLUMMq7mfc4XiDypvn163uQ7NWF4PMSzYXcdrBC1ia0jhzjKMfT6OOAAsh3DurNGEpfiSxcOXLCxijzG7nDym6pMVvWxpEZv7s8VTmVV1KP98HIN/At62u9mWxzEy3ibqq+rgG7iEQYv505K1j5gVwolfWH3sLAmTWOrVWwJ0LN5GzGDdyBTxK2vOxj9HdcqMfmL5i0lvpXMyz5KyZothzPVa+S4lMzPWg4Ja61+9nnceYCk6iaWH9fCkHcsow0x/so+YsMTof3GKX9axrzW/pmmftR9S7OsIXshWOfdb9YDvk4z9QWLDzZjGaRztOA0cc/AEWFZkfy7sSXMdGywiJqrOwDs9oFqI7HF+LlaP3X3hhucd4OnvLJ6GLC7Bpt7bmq+kzhrlLtmLFzdua36Cv2vHiz0lcENYZFY+tnmKT1m3xTAmnFhhqg6joPdi1teN3f0sLFI2/k3FjahPjJisXhr6+8KeA3jjvP3/Iai+SOKcC4zXQ2y4w/J/1O6OBI4E6x38r7KXwcn9/GL+SZrxM0BWbq39JoVCVulkJ8T2ekhxHetw/v9dQd7Rsog0QIvYWlLVhgCqcbC0C6jxY7ivBhcBCCtVGzxNFQgCqO3zw4fHuo774OsDDlZXoBNQrVP7T/qB6mp4zgJo9yNQ89gwnaEebRie75S3Rffh7TebRHJok4hBWQagBoE7QbV911AZPMr8AGr77uBKo7UtbU0obkT5eRemXT2YRj12BLuBea36hW8XQj7xvmA0YfjlsnLMhRAA5df5bkDcvJXteCG3ueVqV38NzfQL50sAQK8LIfXXkBuHro7gpkubS/nlt/vdAcxVyuXnB7Dj+AOD+IZ65ZdkChkO9QwgUqnInXxMliyGMfdwAIdsjHHut+rxvLIOCD5ysLXjxqEPuhGS165gdAQFvdZPGhqOs2MES+b1URXfHvn8ATg+gCNXZYWxuBGHgs245XKJOjj4RR69gFu+vahMiDGOju5FqLIZmD6dotMkbuq2UFZcPZi2s0youLM7F3akuY6N9dr1ZbgmZRnSncPU5yJzsrkv3A392NGyCyGXMop87RuOsxuVo91YUSyDVWdQuccl7gfAcK24G66hct5c1wi3abwdwXoHIRcOyNeNC09hlDsdlvdzivax4WbDFt2m4CNde5v7ItX8pnOrrkPVb7ADu+T1EeugWNj0Mm8KjmDH8YtyjfG+EMfjYA3sZEhzP7sbTqPAVYdQL6D8T/akmMe4dhGEfA7+P5j+t+L4AI6k3aSwvx5sr2NlLTK8HgTbUFYD4Ns5xLHPsDPFpN+vBfI2pj+IE0Va6VSgAl/8PDf+XOuJML/3W/4Dnel3YanWiZn95WdjH6sIGfGGo39QhLwu8L54nZkKVAiDiMnth1uTrzQiwKyntBqPTxmVMPLys7tjoyphhBBCVGSXHSslDKBFjBBCCCEkb9AiRgghhBCSJ6iIEUIIIYTkCSpirxRaQm5CCCGEbHyoiOWC5RBaS30YXBbO8YacjVmjj6LvM8T0iod9Wp5Ki5gkjsm13IthRFzNmFgUQfVWn+dxfWQghBBC8gXjiOWMMlQUAbM5Gi0evoQ5NfK+nvsIni3D8HzQInXSPnTNZypBbuVWglf+6LC1EiV8pt+FpTzJQAghhOQLWsRySiEq3tQi5gMm61VpAFNy+VRAv4V4H35dHQB8NzduGEdleQ5zNWXYbirWz6PfmhTlxnk9rSEYbV/Jclv1dY4bW/ZAjeotrF5a5OmZfpdNDjYTcqZ78VIiqcspLNQcfCLnY7LlyygDIYQQshFh+Io1ReSQfFuNcK9hDKaqtdse9uGgKRWSiKwP+JOSg4to+OmCtMbDPpyDH1d+No7WLuDDK16bfJNG4mEfDp4t00Xozx41COtbtxHpBg6ZopsnByeV8zf2WOX70uo8X9sHdyWEEEI2OrSIrSnbUFZzGQ0mH69UFDYGsTA/i+F2wDc0i4X5WTkAnNh2XLjjR22NH/fmZ7Ew7yxIa2GjH3WfV8NTPYo6vzMlTJNl9UoYALgb+uG+sQuhygjcPalSzKg9sGVPBE8rrXzH3DjUU49YpQu3btTjEJUwQgghLylUxNaUQpy4MouFeT/Qlex0v760wdeer7kVulFw3nnr3R0JeBMJvDFm48x/vltOdksIIYS8nFARWxeEQjbcPo7H32ulc38WnlpTAfOWY26ZClRj5Bdt6Dp5DCPVzn2+svcRS2amfxdi7/wGR9+tR6xS8xdzwu6OBI4E63XZ7idxszIC97tnUPlOBLdUf7H0TAUqcnZMhBBCyGqhIraWyPmlFCf6hm/98Mk+UPtP+oGz1fCUVuBiuR++1COlRSgYFWgYAIJNmvUtHvah4Vs/PmwsBIq8+LDvMRrWWRGJDTdj+uGA2EIsbsSh4ANMy877M/3C2jXdC6wc0zvlCyd8xVn/lm8vyhvcEP5hdXge7MehYrHlueNhnc55PzXby2sAPMZs3iyThBBCiAad9cnrRTQATxNy8gACIYQQslpoESOvCSJoLZUwQgghGwlaxAghhBBC8gQtYoQQQggheYKKGCGEEEJInqAi9poQD/ssUhsRQgghJJ9QEcsFyyG0lvowuCwcwlvD1upOPOyzrTOSnHty43Affjmf5VSghIkodwAAIABJREFUAp7A/VWP+OC3wE9/Avz1H5LrVv4g6sz1avlvnY2nH0d9WfQlhBBC1pO/yLcArw5lqCgCZvMthg2FjUEsNOZqtBqUbcvNSH9sAhb+FrgK4F9MdSt/AI7NAd+YHid58FvgX8qB0d+LeifjFfwK+OZXxrH/ITeHQAghhGQNLWI5pRAVbwLlO3XZHKMBNaCrIZm3rtwjW5gAJTBrE4K4jAalXrE6mQLEGq1rwlKVXKcrN21NKkFgPVb1hrmsrXPby2tQW27SyOR+/qT8kNb8cgj4m7+yrvsvvwau/l1y+d6/A/7zr5LL041nHvt9mzEIIYSQdUMia8fSkNTi6ZW+kT/GQu9LLaGYRcMpqUfXLvmzFTHp05b3pU+X0o2tk6VlSLJr8U2vNlbS/JO90s4UfZPm8ZRLPZNOGmv8X/8oSf/x97qC7yTpP3ol6b/9oyTth3j9t++Mff6f30vS/n90OJ6pn10dIYQQsp7QIraGxL8aBfrarIOHGixOTnNN6q1e1ejUGdgKd5Zh7Gx1Vj5b8bAPX/w8iBNFckF0xGiRa7rsfLAiL67Mz6KrKmMxjHwP/I8QsPC/iq3Jb74Gfvu3wMoqhwWENezof8jBQIQQQsgqoSKWF+IY7OoC+u5gYX4WC/NDjnJNTgWaEGwfkvvcQaBGV1nVKcp/PmLczkzHcgjn5k4lK07qPPLriheFlgOsEduAf+8F3lO2Gf8K+N9DwA+rHHblD8B//UfglznycSOEEEJWAxWxNaRwZxnGPh8XflfLIZzT+4hB8yWLhy9ZWMSsE1OrPlnRywaLmEpVJxbu+FH77ZyDUBVxDHY9xunOfaYx6uAbuITBbBJjZ+gjZss2wBMC/vv38ue7wH/1An+5ymH/y6+Bv2uxqJDldvZUKyGEEJIbqIitJVVtCKALB0sr4OkCTvcpJqxCnDjVhmCT2Po7h2Mmi9g++PqAzmqjs/7+k37gbLUo+1OZwSJmcLyv7kL5KdmCpWyBVndhbFyWRR4vHu5C57huC7LUJytf+9A1VKbNv4YKihJqouXvgf/xa/H+j7Ly9TffATe3y6Em3gKuDgEF0EJRHPs1gL8X7//pbvrxUlrDispRDmBs7nuLSkIIIWRtYK5JQgCIpODVGPnFHVxpXNdNWEIIIa8xtIgREg3AU0oljBBCyPpDixghhBBCSJ6gRYwQQgghJE9QESOEEEIIyRNUxAghhBBC8gQVsdeEeNiXlGuSEEIIIfmFilguWA6htdSHweU4BlvtY27Fw74NFTB0KpBN4FWRZskflWOXZZFSadVM/ivCW/4Z4S3/jBsh43rGQlfVurHJ9ReNEEIIyYS/yLcArw5lqCgCZvMthg2FjUEsNOZqtBqU5TNF0IH/DY0/CqXrnqnK7W1BoxeY+fCfkU1iAEIIIWQ9oUUspxSi4k0tdREAOUaViE5/0JDiSFjPlDqDZUrXR4t2b1UXwJQyWtiH1nBISwqubkPetyjT8Wct+bjBWmdISq7No2d7eY2WcsnUz6mlbebDq7gXsrJw/RvGtvwrZpSGk/+K8If/5mxQQggh5CWBilguKPLiynwn9gPY3zmrJdBeDqG1CRiWE2ff69NyEk0FqvH41Kya9BtNisIVx+ClxwjcUeqCOFFkPd6CPKfC2NnHeFuuG36zC8EoAOxD1/ysyD9pIXrwc+BDWYbys12yDPfhr36M08o8Q0CDqsTtQ5csU2FjMAcBUH/E0xsuHP7xP6Fx5n8G2v67pnwRQgghrzjcmlxD4l+NAn1+g7IkuI8vBoDgQIUu2XcNAgCEVW0cDdUVeDykU+pSjieo7WtT6/Z3ztq20+NTclJiH95uH8cX3wP4fgRBXEaw9LLWsMbvYDTISqnXWVuZgtM1cAPAXxZiMxIZ9SWEEEJeZqiI5Y02DJssWgr7O2ex0Ck7wzcBPpNCtjbEMfttDcpOAvgeQPsQFjr3rfWkhBBCyGsNtybXkMKdZRj7fFxs6S2HcE71EduHt9sv42KaJyj3d4rtzLk/x7Xxzl629NdaNcvjGBkXDxygqg6+gUtG3zTH42TmI5aa/xf/3w8A8G8Y+1++y8WAQrm18XkjhBBC1htaxNaSqjYEUI2DpV1AjR/DfTW4KFft7xxCeWk1PGflgho/7l3xohD34S9t0m1ZtmF4XvbDqurEvT4fDpZW6OqsrWoqyyG0VndhTP54sLTLYO0KNinbozUI3AnKY+1D11AZPNUV6JT71fatd0Lsf4d/d/kebu/+ZzzFFuy4vB0r86ImFrqK220/yu1+j3AbUPDlf0LtAfG05L/1yFU9/4wwtmDHTAsO/qUo2l5eA+AxZpeB/UUghBBC8gqTfpPXi2gAniakV2AJIYSQdYBbk+Q1QQ4XQiWMEELIBoIWMUIIIYSQPEGLGCGEEEJInqAiRgghhBCSJ6iIvfZoSbwJIYQQsr5QEcsFyyG0lvowuCwcwlvTxAdbK6YCa6RQRQPwBO7LHzTFbSpQoSvPksUwIq5mTCzGMNHiQmQ4ZmogykOuC4bUR7HhZoRcLoT6JzMcjxBCCNk4MI5YzhDBUGfzLUbGiFyUmVGDsm3pWzlnL7YUAz9a1MSGO/B0TzcKrmtlM/0uzJU+wpEgcGs+s/EIIYSQjQQtYjmlEBVvAuU79YFPhQXJI78Ui1U87ENrOKTVqUm1oUanF310UeAN5TrLWzQAT2kFGgZEgNakfnK9eZ542JckF6zmaroMK7aX16C2fJtlv8wtc25s2QNsLnFrRYthTPj2orLjsKHl7o4E6hvcSI3FeIQQQshGQyJrSEz6tKVc6pm0qAm9L+309ErfyJ+/6VXaTUk9unJpslfa2TIkxSzHfl/6dEkr0cbQsTQktej6x0LvSzt7pwxNkvtNST0e3diTvUl9bFkaklo81secGc+kuye3Sl9OSpIk3ZO+3PqR9NDcIvyeNNR3b7UTEUIIIXmDW5NryfI4RuDHhzYJu2v72tTAovs7Z8X76AiCuIxgqc4KVeOX35jTH9UgkEaE+FejGBsfF6mNFNpPpe4UHUGw/RQWskkBVOTFlXlvFh2NiC3JEXjXPNk5IYQQkj+oiG1EdLkg9UwFmhBU6+IYbO1K7mvB+ueJXC0xLNyIANcjCPVqpSuuHiyNJnCUyhkhhJBXBPqIrSVF5Sgf70IwE3+pqjr4Bi5hcNm6WvXJil5G53hy/dyfjU9sFv7sGHD2suYv5oRtZagdGJH73IffxkfMkqx9xPS4cehqAt6E8hpBAbpRmVi9EjYVMPnPEUIIIXmEitiasg9dd/yYa0p21k/ZZ6gMndXJTvn7T/qBs9Wi/E9lCNQYexrqFWWjyIsP+x6jweKBAaGU6J38fUIBLPLidPtluc8I3h5qy+2yrBIldMUtXwTorUPI5cJNh4rf9vIaAI8xa6PoEkIIIesJc02S14togIm/CSGEbBhoESOvCSLYLpUwQgghGwlaxAghhBBC8gQtYoQQQggheYLhK8iGJ+RywZtIrEtbp/1DLpdtnb6/03aEEEJeT6iIkZcKK8XGSqGxU4CsFC9znbmvN5GwbKdvb9c3U/kIIYS8XnBrMhcsh9Ba6sPgsnAIV3NAvpKI3Jn+qBz+InB/dcMthhFxNWNiMYaJFhciwzG1KuRyqQqL8levBKWyZpnb2bXVt7MqsxovU5Tj0L+siA03I9QSRkxdk4ynIoQQ8pJBi1jOKENFETCbbzHWhRqUbUvfyjl7saUY+NFUamVxssNslcp0e9Gs8Onf241l1dZMxorbnhK48SSzPoQQQl5aaBHLKYWoeBMo3ymnE1oOobU1BMU+Fg/7dNYyYVkyB21V+6l1uijw0QA8gZAIw2Cqmwr4MBgOWIwX17WvgEeRZzmE1tYA/K1inMGwzxhw1k4GHdvLa7RI/ybZM4+s78aWPcDmEnfKVqm2ARVrk91WoLlcby2ze6XCznpmlifVy5LiEmyWlVNCCCGvNrSI5YIiL67My++V5N1piIcvYa7vDhaSckDeh7/6MU7Pz+IKIJSv1hDuXfGiEAAGRoE7s1goEorduXBcziM5js7Pj+He/CwKl0Norb6MqcZO7EchTlyZxQl1Xh/OhWtw5WcAxi8DQ3cQQDU654Zwrw849+c4UPV9Chn2oWteTjveGBT1q6G4EfWK/tKRwG75rZWSBRgtTFbvU/le6cdw0t6qXSYPA5hltJNHwd1wDUq69KOJA47nIIQQ8vJCRSxPFO4sw1hTNTxzpgTf0REEcRnBUl1+xxq/9r79FE4UyWOYFCHfKVlZKypHOR6r5VMBkcZIobZPG9dXBdxEDQIn9wFfOZQhFUVeXJn3pm+XBvOTh06c4VMpSat1ptf7kFm1ceJ8n6kSRwgh5NWHili+qOrEwnynsDaVNgHtOoWs3aScrYZoAA0DbWo0+XjYh3NO+uVShiyxU1yslCE7p36n/mWZYqcoEkIIIZlAH7G1ZvwxvgOA5RDOnR1Prq/qxMIdP2q/nRO+W1V18A1cEsm3c0VNGbYDAO4jaCVDkkyrkCFrH7HUpPSpQrK/l7483bZiNv5hZj+vtH5fq0b2KVztU6qEEEI2FLSIrSVFXpxur0BD6WUAbQj01WBErjJvF/qGZsW2Ivaha6gMnuoKdMp1tX13ZD+wLKhqQwDVOFjapcowl7ZTjmXIAXoLlxM/MH0fq21Fuz528+rbmhU1p5Y7vVLoRNkzsg1lNQC+nUMc+5C/M0EIISSXMNck2bBYKVXp2toFWbVTxtIpaGbfMqdPZNrJla48FVOBCjQg/1vGhBBCcgcVMbIhSeegryeVcmXlYO80BZHV2E77OFW0HPmXLYfQWt2FsQ3gt0cIISS3UBEjhBBCCMkTdNYnhBBCCMkTVMQIIYQQQvIEFTFCCCGEkDxBRYzYEw3Y5pkkhBBCyOqhIpYLlkNoLfVhcFkk2DYk8F5HpgKZB1LNpk82TAXkYKQ5Uu5W/gD89CfAT39rUfk98Nc/keubgBW5+MFv5TL59cA8lvz64/dyxV1jearx/umuhWw/SZbRqQzm49LX//UfRNkfm5LlU+SwPaY0shNCCFlfGNA1Z5ShogiYzbcYuaSqEwvz6Zs5pbZ8W07GefBb4F/KgdHfA8fM0Wm/B/56O/C+BPxnffldoOX/BkYloABCUfmHPwD/+VdAwa+Ab36ltfvp3wL/YQgo+CvgG8k4xk//T61/C7T6f/oJ8MfvgF/Kh/jvfy/GNpBCBts+crtjcyZZAPxyCPil7vMfmwBsE2vwD78GrkrAXkXuq8Av/864fubxCCGErD+0iOWUQlS8CZTv1Mc9l1PTyC/F+hQP+9AaDml1rSH8/+3dX2xU19nv8W+kXkSKxAXIyE1Mw/xDL2mgskMomNDaJDUIBbU5eBwlh/6xnfEFL02VvIrrOoKqWJiBqo4S5eQCx6btyYHaY2peESHspngKDSZgbIUkpcJ/JilOYtk10slRpNzNudh7ZvYez4zH9tjbsX8fCclea9bajyc3T5619lrxOpp5TZAxxlI9srVbKm99QVxu46T+5ooU48x+23MyjjEqe1PmYYBGd5DGoA+XO0BbR9Aeh21cmkpbgYfS+JVL9r8r28rcxoOpExaAmyfB1WsmILbnwrYQXDYrQ5c7weWaOn4yAmwwEqVkZ5vgYGVifOxnRiECXLw8TeBZxpDsj8/CyYPTfOgqNGwwE8ECcAF/NStdN/8C27yJWN/8AH6d5vsTEZEFFpV5NB79U6U3euR6ip7Qc9G1rqPRG+bvN47GPtcfPWJpj14/Gl1b2R4dTzn3c9E/fZ5oScxh8Xl7tNIyfjz0XHTt0f7MY+KSYon2R4+4vNHK0Hj0xlGvEdf1o/H57HP1R4+47PGl9Xl7tNKVKY7U/n0qGi06bG/r9Eejnaei0SKMfz8/Ze9vMts779jb3z+cGPN+qof12p/VFPtcrznfqcSz/m15fqpnpYoh7Zg70ejP/dFo5+H088X/7jtT24qIRpt6p/4dsb60f6+IiCwIVcTm01iYLhoJbErdXXq8miLz56K6Qeo3AX1dNNPC3lgFq6LFMsJaXSumLov7uyf+3k1PuJ7N5rjN2Vz6nVE1B8w7JwP7/ZY7Dwe4YKuuVdCc7ZT5flpHzL9/jiIhaDCX8W5EwfVsYn/UK/cAvXDjDlxcY98btfGgOaYXKi17t2LONsG+HyQ1XoVHmoylxu2W5lXPJJ5/oxca1iTmSxdD2jGj8G4IIj+w9L2Y2KcWi6MB2G5Z+T1bARefMpcftyb2lU1GgENAk9HXfQoqU+2zExGRBaE9YotRmqts+oMVNMf7Jmirqs9quoW7sLuaMyN18eTSCS6/ZckQePww/HUUJi/DW4fhxhaj/bVeI4n6SXvSMuQW2AeMjMLGWGJjJjrdW+zPqWyCbnP8zSHAy1TmfGDs9ZpJDICxnOmHn2yx9IXgUxJjzjbBvhctc8TiNZcfX7hj7Ju7+QxsdAGHE3vZVm2HbZ1GYpdqOVZEROaXKmLzKd+LN1xP80zeSty0k8CJN2gbS90d3/De15KyIjb0sf2NzbzHyqC2JeNbisljZqeQXTUtvD6bN0ZnuEcsE/cG+16tvx4CVwGscgEfJCpJafeCXYW3/EnVpeREB9j+FGx7ymwbhTcPwY7tTDF52pjvAbKPwTqGAnBZ9pXF4nvAEm8DlkTNHLPNTNYw43vXMt+2Q5a3NS/Du9YYzP8WTr35KyKy3CgRm1eF1F9pZKhimg3syWPaPdQVT92UX/SzRqgtNtrf8RAssY+09cc22ef7OXZ8OLHUmRRDyjHxJdCKxDKp9WWCNIrq2vHG58puzGzEjmYoexY4ZD+CYeNB2NGZOJqBXrP6swVOboAys72sE7otbxHGj3qwVLmA1IkOxlJi/DlrjBcEYlUm63xlnZb5sozBNgajonVxjdm/FU62Z6iGARTAr08ZS6xTxhQYlbjKFDEAxv88AD1DSeddiIjIvNCl3yJiMUFbVTFduxdqOVtEZHlTRUxEDH1BXG4lYSIiC0kVMRERERGHqCImIiIi4hAlYiIiIiIOUSK27BlvSC7Exd8iIiJip0QsF8ZCVLkDtI0Zdy3m9AymviCu4EBWH+0PzlNCZYshkbj1B31Zx5ZT1/9Mx4pX6VjxKm+H7N/1eOhkvK/n+sKHJiIiMhM6WT9nPPjyYdDpMGaskPqRmUZdgqdg+k/Nm0f/B+VfGEnXtaSu1f5Kyv1w69irpDkTV0REZNFQRSyn8vCtA+9a89X/sRBVlkNNJzoC8WpZfzBAW0dwyqGt8XGp7pq0tlvH9Bnz7LXd9RhMnKbfF0x5yOpERyD9QbPpYrBY4y1JnPSfNC7bytytYye5FkpV4fqInhV/5lbsg9f/TMexj7KbVERE5GtCiVgu5PtpNe9YjF/ePa0wdec9XBsZJDLSjre23rzWaIDG4m52XhkkMjJIpL066Tlm+8gVdp43x2yqIzIyyJkaCLTH+s07H8dCVL0Re84g13Z3s9lcTswrb46Ps8sQA4XUjzTzdL4xfu7nTX3Bv95eyfe++AXlt74D1ZcTyZeIiMgSp6VJBwX2+zHSmEJ21YS5MAqMdtFcs59IfqoRAzS6K2iO/15CcJpnTPy9m55wmM1uywXhNfszD+rLFMM08v20jvhnNGTVgRJWAzyQx33cncVDRUREvp6UiC0KEwzeBp7I/Kn+YAXNNe1E6goxrqKpzzzAVHpcJ6WLiIgsRlqanG/hYe4AjIX4ZW049WfGwnSFq9m1CSjwUHqiK3H5dtL+rPierL4W6lJMN/Sx/S3CvMfKoLYlsV8sG9PEkNEM94hl9n/5f58CfETP43dyMaHxpqd1/5yIiIiDlIjNp3w/B2pa2Ov24SoeZufxElt3fGN9cTc7r5h7uqxj3F3ssuzPKvpZI9QWG2Pe8RC0T2fvjyUb+X6OHR8257NvzDeSEusm/4Cx5yxDDAvn23y7Bf61/lU6VlzjvpY18Z7YERWXqr/gq+pTtqMqbh0zNv1/dAQmH3+VjhUnufZpYtY13hJgmEG9UikiIouA7pp0SH/Qx4Unst3YLznTF8RVAWdiLzOIiIg4SBUxWSaMw3aVhImIyGKiipiIiIiIQ1QRExEREXGIEjERERERhygRExEREXGIEjFJry+oM7dERETmkRKxXBgLUeUO0DZmvJlnu8B7rvqCuMy7IafTH5z5QaqzGTMb/UGf8XfkKLmbPA2P3AOPNKToHIXn7zH7K2DSbL7ZYLaZ/24mz2X+Oztqdly1t2ea75WrKWK7Z2qM2cYQH5MphuQ+S2zpvoNMMYiIyMJTIpYzHnyzuZtxMdtUl7g8PAfitwLM0c0G+A3QfSpF5yg8vwaei8KNKNxoh1UAV6HyA+g227tPwZunjSGrnjE/G4UbvdDwopm4bLG0m31sMOabPA2VJPrYaknggG2nLOMOmo0ZYkg7JkMMABy29LUn2l9ZAzvumM95CsoasotBREQWlhKxnMrDtw68a817HcdCVFWFiNXHJjoC8WpZfzBAW0cwftq9rYpmXhPkcvtwWa8XsrZbx/QFk07IT7rGpy/xHFcsnoxjzDO3kudhgEZ3kMageQq/GX8iduu4NJW2Ag+lJR7WWNtmeC3SxoPw2jOp+26eBFcvbJzyXNgWgstmsnS5E1yuqeMnI9gTHYuzTXCwMjE+9jOjEAEuXp4m8CxjyMQaQ1pX4a3D8CMz7/10CDhkVr5yEIOIiORQVObP5+3Rysr26Lj563jouWhlyPjtxlFvdG28rz96xPVc9E+fJ/8cjUavH42uPdqfYvLx6J8qLZ8z5zxyffoYrPOlHBPXHz3iOhq9YfvdG60MjSfit8Rnnyvp78jk8/ZopStTHKn9+1Q0WnTY3tbpj0Y7T0WjRRj/fn7K3t9ktnfesbe/fzgx5v1UD+u1P6sp9rlec75TiWf92/L8VM9KFcN0Y1LFEHt27F9Tb2KuWCydfuPnpqS/K933ICIiC0sVMQcF9vsxameF7KoJMzwK9HXRXLOfp1Mucw7QGK+IFae89DvZxN+76QnXs9kctzndxeNZq+ZAeV5S/EZsF2zVtQqas50y30/rSG6ue4qEoGEosVznejaxZPjKPUAv3LgDF9fY93VtPJhY+qtMsW/qbBPs+0FS41V4pMlY5ttuaZ6y1LkmMV+6GDKNSRuDddnyDkSSlkfPVkDkxanVw0zfg4iILKxvOB2AAEwweBt4IvOn+oMVNNe0E6krxFgGrM9q9tLjV2gtz5v+g3NW7fj1QS6/fenu8cPw11GYvGws193YYrS/1mskUT9pT1qG3AL7gJFR2Bjb0nYVGoDuLfbnVDZBtzn+5hDgTRGQOR8Y+8pmEoNNihhsCmCH3/hxlQve3Wos0b6whfjS6YxiEBGRBaGK2HwLD3MHYCzEL9NVo8bCdIWr2bUJYw/ViS5zX9YAjdY9Ylg2vPe1pKyIDX1sf2Mz77EyqG3J+JZi8pjZKWRXTQuvz+aN0RnuEcvEvcG+V+uvh8BVYCQnfJB4ezDtXrCr8JYftlveKzjbBPtetH92+1Ow7SmzbRTePAQ7tjPF5GljvgfIPgbrmEwxJMfdEAJ3AfFE7nEz2bp5Et49bOybmzYG879FTt/8FRGRtJSIzad8PwdqWtjr9uEqHmbn8RJbd3wZr7ibnVfMSpJ1jLuLXe3V8c8X/awRaouNMe94CNqns/fHNtnn+zl2fNicb+om+pRj4kugFTRjxmJ56SCdorp2vPG5shszG7GjHsqeBQ7Zj4/YeBB2dCaOZqDX3LS+BU5ugDKzvawTus03E23HOViqXEC8EvWTpErUqmcsz1ljVJ9im+Ot85V1WubLMgbbmAwx2I682Aono4mXFF4wl1gfucd8S9LyFma6GADI9+IFeoZGERGR+adLvx3SH/Rx4Ync7IsSyZ0J2qqK6dq9UMvZIiLLmypiImLoC+JyKwkTEVlIqoiJiIiIOEQVMRERERGHKBETERERcYgSMUcZbycuxKXbIiIisvgoEcuFsRBV7gBtY8Zdi+nOYLLeNTlbuZgj2+e4qkJMxP+2uc1367crCf32OvT9jtDK33Er3nOdiytXEjL/XexL3R6q7GDcMt/4mZ8m+mzjgM86OLdyJefOjCd9/qe895nlM+act3670jZX/FnmPCn7rDH+9vqUZ4eS/l3sS92X7u+Nt/f9LsXnYt+fMeZin+X7FRGRrxUlYjnjwZfyWqJMCqnP0dU+82Kdl1y+O3ev+8GklnHeq9zJl83/xH/3Lv4PT/BlmSVZ4mUevnsX/91/8i1qeM9MrMbP/JS/BTaafca/HZbvcLz3HPd1d3Hf25dsydu9P4TxXmuLYf1Ld/Hf7WIVe/jWh3fxnyxnNcD95eyxPOPhX8Gq/zT7APou8WVzF9/6x6VEYhkfY5kvFp/Z9/3mPfCrLkvc03wPP9zDlz3pkqw93Hf/tF+9iIgsUkrEcioP3zrwrrWkL33B+AGn1nseJzoCKQ9YNc5xCtDWkRhX1TERP/F8c22YnvihqWalaixEVfww1tgc5rxjIaqCIdqqfEmHtiY+lzoOU74X75Qk01hSnVVl7v4HufeHDxqHlX52iXFO8N29ZmpzfznfbU6VLK3G9eQevhr5BBgn8vY5VnX/F+tTPmCcyNsb+eamB7mPc0Q+s3Q9eYDVb/9vSzVuBj7rYIguW8J3q+cmq7c+yoqHjvD5XJaXp/seHjqAl9ctCepUq9x7UiS6IiKy2CkRy4V8P63mHYtFdZYK11iIqgo4MzJIZGSQa5aT9fPKm4mMDHKmJtWEYeqGdhIZGSQy0o63toV+82Lsa8dLKD1+xexrNi4HN0/jvxBLBsbCdNFIIBbHiXqG98diGGZvcACA/mBxvD0y0g4ViSXIvPJm807LQupzcH/k+pfusmfvaqMqFKs4ffYJXz30YKLCBKx+cKOZcFmZyVfpo0bS8t8v881N2Jb64kt3n11i/KFKQwzkAAAPrUlEQVTvsZ7VuJ5MTuoexPXkzVkkTeO89/IneF961NJ2nc//sQfX/bC+9GUm01asspDF97C+dGOKBPVRdtz9A9+9H1bv/YPx/YqIyNeKErF5NPH3bjhePYskpoTgzwrNn7NLhIqeqKb5nYH4c737/YllxZJEUpb3WBmlt4eYYIALJyzXLLkraM46PmNJdf4P/TzChytXElr5H4w/+U9bNQqIL/U9/KtE03jvOTArQ6u37oGk5cnVew/A/7LvN5vO+JmXGH/yx/YKXN8lJmPJ06bvseropdlV2rK16cezr+aJiMiipURsqdhUTfB2F/1McHGoLFENSzY6TE/8l+p4tc5WYVso9z/Ivf/4xL4J/5ObliU2c49Y98t8FXjJWJq7/0Hu4yZfpFymMypnXwX+w9j0/nANX/130vIkj/LNh5LbMrnOh2/vSSwbmm71HIGjO83N9TuZZA7Lk9N+D2Asz86mmiciIouZErF5lLfWQ8/5sHHx9ViIX1r2iM1F6guZ89ixe5gLHWGGvSVpN9n3v9NC6e4S8ihkV00Lr8/qDcw57BGzuv97rKaGD+PLih28F4DVW5OW2Db9mG/98Bz/+j/XgUd5uBn+9XKKqpa51+r7tg325/gyKela/z/38GVP8vJnard+uxOsG/QBuM7nR1+2vSzw/eY9fPnJTOpsFll+D6v3HoCeS9nPa+4rXIi3bEVEZHaUiM2nTdUEqWez24erHg5Y9oj1B40lwb3x5cHsjojIK99P4ESFfbN+rO+xMoZqu/E8lpSGhc0Y3D720h5fUiyqa8cb3/jvM46ryMXfnbXVfPfICb4sM49tePgcqz809jyl+ty95vLf6r1/4OGHavibuT/sw6PGp8Z7z03Za5Vy/9b93+O+fxzhK/NX4/iKnUxyjn89bD++YugoTJZZj5z4Hbf6LjEZe+EgFmGKZdApzD1tfwuci1fTjL1t2X4Pj/JNjjA53dcak+/FS7rEXUREFgPdNbmU9AVxvbPT3GRvGgtRVQ/HWv05PYpCvg4maKvSJd4iIouZKmJLQeyIjDc8XLMmYbJ89QVxuZWEiYgsdqqIiYiIiDhEFTERERERhygRExEREXGIEjERERERhygRy4WxEFXuAG1jxt2Ni+3cpv6gD1dwwNzAbb1rcqF8RM+KV+lY8SodPw3bDy4NnTTaV7zKXG4JEhER+TpSIpYzyRdjLy6l3gIHn/5tSr/4BeW3vsO9ST2r/ZWUf/ELvv2yI4GJiIg4SolYTuXhWwfetYnjAiY6AlMPTO0LGhUqq3jbAI1VIdqCvpSHtvbH2+2Vt4mOAFUdIRozHc5a4KG0xMMaa5t5+npjllfnjIdO0hMK83aswnXso3jfrWPWqtZH9Kz4s+5GFBERyUCJWC7k+2k1L+YuqhukPnbPY1+QzefLuGbe5XhtdzebgwNGQgQYB24aidbEx8OJqlW4ni7vFWPMcaj7vXmZd0eA1832yMgVdp4vtiVQPbXD7DKfdWZdPc1mX1GdeUF3vp/WHBzsOll9F88Xv6D8iydYdeQa1z6d44QiIiLL1DecDmApm/h4mNLd1fHEJ++xMkrPDxmVqttDTIwNMQwwCjuIVdJGgWoOmIdw5q31wBDABBfPh+kJF+OqTTwjsD/xc+nxaorMn4vqBuM/Z5Tvp3XEP6O/696W7awHYDX3PTWjoSIiImKhRMwJ+V684S7ujAL798M7A9wBPI9NN7CE4JVmnl7Ee9FEREQke1qanEd5az30nA/H92r1/76ennVe8ijAUzLMhXc87NpUgOf2G7x+e9rZ2LE7sUyZMzPcIzadLz82/tpbx97J/nLqDIw9dtldiC4iIvJ1o4rYfNpUx5l1Pja7643fSxq51mrcBelbF6budhkB8lizG+pqPRyYptKVV95IsKoYlzvWUs0Zc2/aYrB+33cYXn+Kjmq4t+U7rOKu0fFpmLfXv89X5ucudb4PLz9B+S+/za1jr/LREbPjyKt0sIJv3apk8wNGU95aD9DC8CigSqCIiCwxumtSFrexEFXF3ezUkqyIiCxBWpqURas/6MOlJExERJYwVcREREREHKKKmIiIiIhDlIiJiIiIOESJmIiIiIhDlIiJiIiIOESJWC6MhahyB2gbm6Ctyn4Z95yluiB8xrElLgp3zebw1rnGgPkGZHDAmMsdpH8Oc52tgEfusf975arZOQrPW9qfP20fe7MhxRjT5Omp7bZnVWA7pNbalzyXiIhINpSI5YwH32I8YiHfT+vIINeOl0BNO5ERy6XkCyx+qfkc/agdbkQT/w76wWVOffZFcPUm+lzPwk1z3M0GeNOb6Hthi2XSUfjNs7DvcPpnndwAv4kldlfh4lNmXy+8tTXxHBERkWwpEcupPHzrYpd3G4wresxqVFUoft3RREeAqo4QjSn6bFWsihbbE/qDicqWtfKWcb40+oMB2jqCKeebeQwDNFp/T3d1UoGH0hIPa6xtc7lm6So0bIAfmYmYewO89ZdE31t+eABgFN78AH79TOppYgnc4xkeNfIBuFzmL1vgtWcSP++bRegiIiJKxHIh30+redVQUZ2l4tQXZPP5Mq6NDBIZGeTa7m42W5b4emqH2WX2nVlXT3MfwACNxd3svGK0R9qr45+f6AjwuveK0T5yhZ3ni23JS+r5MglTd95jxHelEWpbzCXD2cRQSP1IO15zjv7f1+NtT3wXRXWDtJbnGd9Vq5+8KbHMztkmOFiZ+H3jQej2mkuGf4Eb7bAKYBTe3QCXLcuJsQrW5GkjmbNVyCxeMT+f9jPWhE9ERGQGdNfkPJr4eJjS3dXxpCPvsTJKzw8xgXHfZOnx6vg9kUV1g8bPfV001+wnMmWZc4KL58P0hItx1SZaA/sTP6ecbxqB/WZSlO/Fy7DROOsYCqlv78Ll9hnLoNkugeb7aR3xZ/lhi6vQAHRbVjwnT0NZJ3RH4dMGY19XdzsQAQ4Bd4zkbPI0lDXAjUpjSfJkhmONX4jCC5j7yxrgxkFL5yg8vxUO3jETPhERkRlQIva1UkLQ8et+po+htKY6fWcOnW2CfS/aE6A/PptIilYdhIMV8Mer8IILOJxYwly1HbZ1wtBleBd49x7LJIfgrcNJCRew8QdAk7FhP1Zle36NsaT5o9xsfxMRkWVGS5PzKG+th57z4fherf7f19Ozzpt5Wa7AQ+mJrsQSYXx/Vh47dkPd7+f29mJWZhvDWIiqCjhQV8cBKrJ/e3Q2e8TMathPkpYKXX6IjCZ+j4TMjfwFsO2QZTnysrFU6X3GvvH/5GHY1zs1CQO4+RfY9lQi8XvFTMLSLWmKiIhMR4nYfNpUx5l19Ww2N7bvvd3ItbrCzGPy/RyoaWGv24fL3cUuy/6svPJGgrcrLEdRZHEMhJnkbK4Nw4mK7I6vmFUMAzQW1+Ntj+2Va8dbW5zbozwsUlXDAH7UBJGtiX1gxKpVBfBaL1Sa7WWd0J0i2Ur2iuUojDe9iQ36NxvgLYy3JdMdlSEiIjIdXfotIiIi4hBVxEREREQcokRMRERExCFKxEREREQcokRMRERExCFKxEREREQcsoQTsQnaqnzZHdcgIiIi4oClf3xFXxDXGx6u5fB+QxEREZFcWMIVMVOBh1KnYxARERFJYeknYvlevOFh7jgdh4iIiEiSpZ+IUUj9yE4uuH3zdt2OiIiIyGx8w+kA5t8Aje4udo0MUuR0KCIiIiIWS78iNjbEUImHNVM6Bmh0+3AFBxwISkRERGQ5JGJpFeApAW4PoQVLERERccLSX5ocHaYHT4qOPHzrALw61kJEREQcsYQrYuaBrhUtBPYnnSE2FqLK7WMv7UTqCp0KUERERJa5pX+gq4iIiMgitYQrYiIiIiKLmxIxEREREYcoERMRERFxiBKxVPqCuNxB+p2OQ0RERJa0JZ2I9QfNA1vTJFYTHQFcbp/xb7qDXfuC8c/O7Kok8+DYbJ8zB/1BH419qdszfQ8zNXkaHrkHHmmY40QiIiLL3JI/R6zUW5CmZ4DmWg9nRpqnXn20qY7ISKq2OiY6Avwy66cP0OiuYOj4FSLlzp5Wlv57mJmbDfCmF7pPQdlQTqYUERFZtpZ0RSyuwENp8jVHKa8+Ms8ec/tmWDmyjrNUpfq6aC5p5FjKJMxeKUtUsgZotD67Lxivok10BGjsMM5As1XXzGrd3hPQXJEh/pTfgzFfqkpaKhsPwmvPZPdZERERyWxJJ2JFdYO0ludBvp/W1tihrmYCVFxPT7iezW4fLneAtjGAPJ5uHSQy0k5gBs/pDxYzvH+QyIgxlgpjvomPhyndXZLi5P4J2qoqoH3qmOk01w5zwBwTOPGGMWZTHZGRQc7UQCA+Z1280pf6exARERGnLfmlyakKqR8ZpH4sRFU9HJtzYjLAhRPQfMJHc7ythCBwZygM3lRjRhkOV7OrNRHTrpowF0aB/MxPKz1ebSZY5l2Zc5Xvp3XEn4OJREREZKaWYSI2H6o5Y6lAxUx4S+gZGgXVoERERCSFJb00uTAK2VXTwusp3qTMe6yM0hMVKfZfFeApaeFCrH0sxOsnSvDE99MPMzgGMEBjRcuMohn6eCZvdDLjPWIiIiKSO0rEbGIb6CtopoW9bh+uqhATJI662Fwbpqe22LbBvqiuHa/Z5rKMId9P65VGhiqSj6/I4+lGS3txPd72Zp7OBygkcBzqin243G/gOV6ddfRFP2uEeBzzcw5a7OiKsmeBQ8bPr1ydhweJiIgsA7r0W0RERMQhqoiJiIiIOESJmIiIiIhDlIiJiIiIOESJmIiIiIhDlIiJiIiIOGThE7Gx2F2J83O8goiIiMjXhWPHV/QHfbzuvWLcgSgiIiKyDDm2NLnGm4uLEkVERES+vhxLxPLWesx7GEVERESWJ+c262+qI/JEFy53gLYxx6IQERERccw3HHtyXxDXOzuJjBQ6FoKIiIiIkxyriE18PEypt8Cpx4uIiIg4TueIiYiIiDjEsUTszlDYqUeLiIiILAoLv0dsLERVcT09VHNmRGeIiYiIyPLl2IGuIiIiIsud9oiJiIiIOESJmIiIiIhDlIiJiIiIOCSeiPUHfbjcPqo6JpyMR0RERGTZsG/WHwtRVTzMgZE6ihwMSkRERGQ5sC9N5nvxOhSIiIiIyHKTtEesAE/JMIO6hFtERERk3iUlYnk83doI9T5cwQFnIhIRERFZJpJO1p+graoeGgeJ5DsTkIiIiMhykVQRG2U47MGnJExERERk3ukcMRERERGH2BOxsSGGHApEREREZLmJ7xHrD/rYewJKj1/RGWIiIiIiC8B+oKuIiIiILBjtERMRERFxiBIxEREREYcoERMRERFxiBIxEREREYcoERMRERFxyP8HW37sg0rZynoAAAAASUVORK5CYII=;imageBorder=default;" vertex="1" parent="1">
          <mxGeometry x="1080" y="478" width="610" height="364" as="geometry" />
        </mxCell>
        <mxCell id="GYVFRlJBhWlMOk5l2gX6-30" value="" style="edgeStyle=orthogonalEdgeStyle;rounded=0;orthogonalLoop=1;jettySize=auto;html=1;dashed=1;" edge="1" parent="1" source="GYVFRlJBhWlMOk5l2gX6-19" target="GYVFRlJBhWlMOk5l2gX6-20">
          <mxGeometry relative="1" as="geometry" />
        </mxCell>
        <mxCell id="GYVFRlJBhWlMOk5l2gX6-19" value="&lt;b&gt;publishPreview&lt;/b&gt;&lt;br&gt;通过服务代理地址+/preview/文档ID预览" style="rounded=1;whiteSpace=wrap;html=1;" vertex="1" parent="1">
          <mxGeometry x="610" y="760" width="220" height="40" as="geometry" />
        </mxCell>
        <mxCell id="GYVFRlJBhWlMOk5l2gX6-20" value="ArchiveManageController" style="text;html=1;strokeColor=none;fillColor=none;align=center;verticalAlign=middle;whiteSpace=wrap;rounded=0;" vertex="1" parent="1">
          <mxGeometry x="870" y="765" width="170" height="30" as="geometry" />
        </mxCell>
        <mxCell id="GYVFRlJBhWlMOk5l2gX6-24" style="edgeStyle=orthogonalEdgeStyle;rounded=0;orthogonalLoop=1;jettySize=auto;html=1;startArrow=classic;startFill=1;endArrow=none;endFill=0;dashed=1;" edge="1" parent="1" source="GYVFRlJBhWlMOk5l2gX6-23">
          <mxGeometry relative="1" as="geometry">
            <mxPoint x="570" y="130" as="targetPoint" />
          </mxGeometry>
        </mxCell>
        <mxCell id="GYVFRlJBhWlMOk5l2gX6-23" value="CORE_FM_DATA主键ID" style="text;html=1;strokeColor=none;fillColor=none;align=center;verticalAlign=middle;whiteSpace=wrap;rounded=0;" vertex="1" parent="1">
          <mxGeometry x="540" y="70" width="60" height="30" as="geometry" />
        </mxCell>
        <mxCell id="GYVFRlJBhWlMOk5l2gX6-37" value="资源ID" style="edgeStyle=orthogonalEdgeStyle;rounded=0;orthogonalLoop=1;jettySize=auto;html=1;" edge="1" parent="1" source="GYVFRlJBhWlMOk5l2gX6-32" target="GYVFRlJBhWlMOk5l2gX6-36">
          <mxGeometry relative="1" as="geometry" />
        </mxCell>
        <mxCell id="GYVFRlJBhWlMOk5l2gX6-32" value="获取已挂接的文档" style="rounded=1;whiteSpace=wrap;html=1;" vertex="1" parent="1">
          <mxGeometry x="-40" y="206" width="120" height="40" as="geometry" />
        </mxCell>
        <mxCell id="GYVFRlJBhWlMOk5l2gX6-67" value="parentid：上级ID&lt;br&gt;dirtype：目录类别&lt;br&gt;userid：当前用户ID" style="edgeStyle=orthogonalEdgeStyle;rounded=0;orthogonalLoop=1;jettySize=auto;html=1;" edge="1" parent="1" source="GYVFRlJBhWlMOk5l2gX6-33" target="GYVFRlJBhWlMOk5l2gX6-66">
          <mxGeometry x="0.0068" relative="1" as="geometry">
            <mxPoint as="offset" />
          </mxGeometry>
        </mxCell>
        <mxCell id="GYVFRlJBhWlMOk5l2gX6-33" value="获取所有可挂接文档列表" style="rounded=1;whiteSpace=wrap;html=1;" vertex="1" parent="1">
          <mxGeometry x="200" y="206" width="147" height="40" as="geometry" />
        </mxCell>
        <mxCell id="GYVFRlJBhWlMOk5l2gX6-40" value="" style="edgeStyle=orthogonalEdgeStyle;rounded=0;orthogonalLoop=1;jettySize=auto;html=1;dashed=1;" edge="1" parent="1" source="GYVFRlJBhWlMOk5l2gX6-36" target="GYVFRlJBhWlMOk5l2gX6-39">
          <mxGeometry relative="1" as="geometry" />
        </mxCell>
        <mxCell id="GYVFRlJBhWlMOk5l2gX6-45" value="" style="edgeStyle=orthogonalEdgeStyle;rounded=0;orthogonalLoop=1;jettySize=auto;html=1;" edge="1" parent="1" source="GYVFRlJBhWlMOk5l2gX6-36" target="GYVFRlJBhWlMOk5l2gX6-44">
          <mxGeometry relative="1" as="geometry" />
        </mxCell>
        <mxCell id="GYVFRlJBhWlMOk5l2gX6-36" value="&lt;b&gt;getServiceInfoGroup&lt;/b&gt;&lt;br&gt;根据资源ID分组查询服务信息" style="rounded=1;whiteSpace=wrap;html=1;" vertex="1" parent="1">
          <mxGeometry x="-70" y="292" width="180" height="42" as="geometry" />
        </mxCell>
        <mxCell id="GYVFRlJBhWlMOk5l2gX6-46" value="" style="edgeStyle=orthogonalEdgeStyle;rounded=0;orthogonalLoop=1;jettySize=auto;html=1;" edge="1" parent="1" source="GYVFRlJBhWlMOk5l2gX6-39" target="GYVFRlJBhWlMOk5l2gX6-42">
          <mxGeometry relative="1" as="geometry" />
        </mxCell>
        <mxCell id="GYVFRlJBhWlMOk5l2gX6-39" value="ResourceDataController" style="text;html=1;strokeColor=none;fillColor=none;align=center;verticalAlign=middle;whiteSpace=wrap;rounded=0;" vertex="1" parent="1">
          <mxGeometry x="-302" y="298" width="170" height="30" as="geometry" />
        </mxCell>
        <mxCell id="GYVFRlJBhWlMOk5l2gX6-42" value="" style="shape=image;verticalLabelPosition=bottom;labelBackgroundColor=default;verticalAlign=top;aspect=fixed;imageAspect=0;image=data:image/png,iVBORw0KGgoAAAANSUhEUgAAAaYAAAE1CAYAAACsg0TuAAAgAElEQVR4nOy9f2wTV7rH/c3lrcQuakk39ZL0hoJjh0pVoUoUfsSiVYIo6aZS+xYnpqRSVZJ1WnGrrVRVJHUplF+OYVG1ldosjW9y2WoJYCft20oNJFQkd1s5AVxHC1V1IU5cIEsMbtTQFXcrVdx5/zhnZs6MZ8Y/4hCHno+EFGbmnHnOmTPneZ5zxs+TIwiCAA6Hw+FwsoR/m20BOBwOh8Nh4YqJw+FwOFnFDCimGI7XF8NcVAx3MPO1J3tvc5EHIfXZLifqu2JxpUIesQz9V+9H/FU6d+xyyuU8w9NugT7DcBcVw1zkxPHoDN4mm4n6UZ/Cs+FkEwbvZtAjvUNa72fKiPVpjBXxXc/IfTgzhqZiunnzpuE/w22pYDual/kQGRuBq2ymxNbDhE0dI4iM+eBMoVRps1imAp7ACCIdtTAlVXIY3m0WdI+NIDI2gkhzSXpiJ0GsqxXhAwFExrzYlD9jt+FwZgiDd7OsGZGxEZw9UJGZW5U1IzIWgAcueFXGcWnzCCIBN7CtPc5w5WQPmorpp59+wjvvvIMdO3bE/fvrX/+KnJwcw0orrYXKA0EPzB6/jsXEWlJKL0vhjTBllJ5PDMfrE3gRUT/qi4qxatsA+rfZaH1JeB5RP+p15QYQDSNcYcFidTnGAoz33Ijnk47FZl2qVpeiF6W2AofhZu8b9Ci9OQP5FH3OWpxsGYUlqieD+j7q/k6lH+gYsbnQP+DCKtW9yHjwy3JI8hn3A+spT8uCjvpRX++Bu57053Hah9JYpuMv0dhXetx6/aoqY/AsFOV0ZZDLJd0HBu9FyMO+w6r+v6OYULxM51S+FdY7KgsnVf4frYOLFi2C3W6H3+9XHM/JyYHdbjesMPbdqPaJtj4gMIJIPplImrpi6KgxIeSxYXTrCCIdABnIThwPeLEpX/RGvChNp2Us+bXoGKsl94UbHTXJ+UNEbhdGfUS+kKcY73c1oKNmHO4iB7z0klVFLgAV8AS82AQ/6h1A99gIkTvogbnej7NJe2HaXA0PAEuVxyQvKpX2RFXysQQ9WNWzAWfHvEpZo37Ut1pwdmwEJpDnt8pjRaS5xECGGI63jsITGMmAh0es7U1RP+pdwH6NvuzfNopXx0bgAnlO3mCtocce63LifWsAkTETkbXeBvfSaXj5A+2ALwAPbGgO+3D2AND0XQwoG4fbRmTrAJTjQVxd6Ij3tPX7lfYF046mrgr6LjnkMkEPzK0W7K8xARjWlyHN5mq/F9MZ4ZlnsbUC4e9iQJlarkJYKkYxEgVK+epDVqK7x7R27Vo89thjimMbN25Efr7ekyRWl+7E37hVmqBMNV56zTBOtgFeh2h5yZM9GTztsM/2nkqFG046WS22iksNJXCNkSWBygo3zo6NyEts46Pob6ySJ/2yKjgHRnFVqpCUTfolppbuyfXxk6ZpqYV4gCnsbcW+6gMONGgq+9AX7XBujZ+sYl/1KTyVVdsGkpDBhOJlA2i26e01ptgPCahk2lTanEjBxHC6h/WebWgeMLo+CaRxUgHPS4yiCfbCi3bYRW/F0S6fK7Sgss2huRdi9GxZT499FroYyQAgrWeh+V5kF6YaL/bDpeEhmrCpww24ZnpfmJMuhh8/2O12/PrXvwYALF++HE888YTB1WRw74crxWWRBnmPhp3gpTVpOoBmW0HNFvm16BgbwVNfaEzwdG0+sr53xj++qDwQYJ4Rs59mIAPZuyOyz87HMEbQ/USmTTO2J9roU/ad6KnQZxtxA03qZTm9fg16YG+T3xl2X2axtUJWto5ReNyMkaEnw12MuEISGWtWGWIxHK93Ae6Z3RfmpI+hYlq4cCE2btyI+fPnJ1zCEzEttaRw+xI81diO9w0VGVFQ3Y0DGB2Xj/aHyX9iXa6UrF2x3IxRaEFlWy+zH9YKr2IfKr09JkOrtKyZeG+XwozlTZYqgGG4GQuZWOLaG7+LrRXwtmpY72s3JN4s1pSBUNpMJtDwd+yZNPfaFN5nMmj1gwnrqoHmwwaKnHqq0/56q6wKzrZWY6MqvxYdYz6VZy2W1+hXaTwNwyt5TDGc7gGjbJmPZBLKkP6+pxbicw552BWQ9CH7nkrDNOQh8sa6nEShR/2oV3lGV8MDGvuyADCO0QELivkyXtaiucfEsnLlSvzf//0f7r///hkRoLTZB2uRDeZt9ECFm6x9R/2ot7nQD+Z4M/nTVLMVziIHzG0AGt3wVPTRi4YVez/eona5PnU5cU8onwxyexstZCtGM1MmZfJrsf+AE6uKiumBBnSPzYx1qpAbgNM3Qu9TAucBYJWtGM2ogOdAAxCmF5U142ycfMSiNNV40R0upntmkPsurk3kXq4yIxmUz4LcZ5q9kF+LVxuLYS8iCqbyQCDB8pN+P5hq3PDU22AuYuVjLGu6Qe4NjwPTenolcPksMNuKQYevJHesy6lYiqs8EJDur9uvZQ3wwEafUQM8Bypok4iyXcXcRx7j+jJkmtKX3ICNvM+VB9xwQtxz1n83oegHUlYcX4Bo7LYTw5Qrk18EORkPSRT0wPxFFXeRM0xaH25wpgH5IKK3emYm8MwzDHdRL55ilGvIU4z3rXNFfgOiftTb+lAVSOWnEuT5jW7VWKKN+lFvG8WrcUt8nGwh8z+wLWuA55IjC/cU5jammq2wbrP9cvfa7iRBD8xFc0kpAeKyuPSBQ1Ex7PDNIfm1CXmKYU5VKdHn1wz5Aw1lfS7dD4A42UHmPSYOh8PhcKYBj5XH4XA4nKyCKyYOh8PhZBVcMXE4HA4nq+CKicPhcDhZBVdMHA6Hw8kqfhmKKfgR9uftwv68XTjUrf7WehjH8j7CedXR693vSWXIv/hrdLnWg0PplEsDKRr4LzjmlzKiNWcuwUazVz5D49xqadxpFvPEcVIlYeSHZLh586bh+fvuuy9hqowZpexFNE0SZfNJkkUW2V9Dkz2KU/UfYnLrTjyfQhy1853nkNu7E6/MeD6qDEZg53BmAVONF5EaYlycVJ6hUdTJD4czcCdSX9ADc6sfzl9ArMC5TEY8pvTyN0Vxqv49nOrW9mbOH9yl4+UM41iexrlrPThU34Pr9Krr3e9peEdKyD0+w2VEcEKs82Biz+P8QX25gSiuf5uLvAe12qvXJtFyTMMy1MgHlV4eK2WeH/28StPLpWWYvynVfqBy2RUR6sWyJBfQcQ2L3DBnkGHeotQIeYrh9nhoO2m+KClQq37f6eexMsjfpChj9CzYdhnIgNTHZMjjxPEujWy0qszDepmk7wiFFlTOzp05KZARjyn9/E1TCEWeQNPkiyAKpw/n7S9iUfd7CJhfRtNkPsiE/iGOLSFey/Xuv2Gq7WU02acfNGvFGzux4o1hHMu7gEcmX8SKpEtOIfR5MV6afBGLrvXg0HIiNw7uwokWesmnuxACsLDtZbxiz8f5gx9i9OmX0dQR36a0iYalEHgy6XlRIQ+JdBDpUNmRBvmb0smllVYOKT3KmhEZaybWtkZaEKAdvaA5l6J+1Lv8iHXUGlSY+bxF3ksWnPU1YJWjD1UBH5y2XlwFcFW37wzyWBnkbxL7QmpHkQehsWaURv1okp6FGKaHhOLRf35pNhYDaO7ZQPJ2Rf2ot7UjVJNlYX/yrbAOkGfAPabsJWN7TKnnbwKAXJTWiS9ZCZ6ffBErEMX5z6dws/FD6l18iNCncolFS+4n55LwbGaSJVursQgAHixALj224o2daJp8GaXP5qL0wk40Te7EK3aiiK5/mwtLudgX+VjxdC6mLstek6nGqxGeX5+QpxhmzaR56eSxGsbJtga8qqEs9PM3pZdLK1EOqVT7wRimTfm16EikYBLmLUodKb8Vk4/MuO8M8lgZ5G9SenrJRPU2koFKksazkNqbtVliS+Aaq8LJDEZT52SejHhMIna7HSMjI/jf//3fJPI3GZGL0guv4cm45TBI+0Xkg4bPgDefQdMbv7yAsaXNI4jQJRKlchLX5ukyzYAcRT3zqCJyJyODaNkHPTAXOUieoGwK+HvH5NHrO/psm6nx4WAibdNMzKIS6pei4Mdw3OUCJE+U2ZfJt8IKlxSRHY0+RCTPUl+Guxcx2K1GBmdO1pDRr/LSyd8UTz5WPA2EOhN4RGUvounCSiz8dkLaV8Kn35O/r/Xgk8apFO75A65fS0vYJMnHokemMDooug/D6G+cQu4SWVuktcdkaJWmkseKeDhaebH08zeln0sLgG7+pnT32pS5npK/XpEzKMm8RdP/AjKZvtPLYwXd/E1i7qFYV6vcpmAvvGySwGZ5hSKRDGnve2ohyhr1oymZrLsJiX8WsS4n+X/QQ+Wmy5OKLeAwwhr7spzsIqMeE5CZ/E2L7JtQWv8h8YgAAGb8ju4BnWf3cQAs6d1Jl9SqYXtzF07k7cIJmFHalitlgrne/R4OS4rqQ+xvJOXI/k4JKtv+hsPLyZ6Q6IEpyny6C/sZGdJhxRvP4Ns8cm+A7j3NxFd7aeWxMmFThw+jTF4sKV+PQf6mdHJp6edvSh82B1AyXoB+zqBEeYsKYakAcCmMGEqmJbdu3xnksdLP32TCpq0NMDuK4YWqTWVVcDrEHGQU6hXqy5BhFHm0SA4p8Ts7xXhoK4ZXyiFlnFstk8+Ck33w6OJzmvgcPJyZJeQh6SSyavnRgLg8XndRLqK0nkXQA3OrZWYUMCdj/DJ+YHvXUgLngVGyWf8L/oHtHYHu68wlpQQAprUbgG02+VNxWx+qAnNcKaX1LOh+p6Nd/kCDk7Vwj4nD4XA4WQX3mDgcDoeTVXDFxOFwOJysgismDofD4WQVXDFxOBwOJ6vgiukXBflRIg/7z+Fwspm5q5iCHyUdL+/8wV04dgcmYzaKs1YcrrsmdxKNZK0boXvWkRVwyKMRHUAnmrYemc73FPKwkb6VkQkkeaXoBXMb3cjmqmjomXgnYl1OEkcw6kc9069JRzMPevQjtivkYyPkG0R/14ppqHdfnTLKsaIXpV8V3cKgvvQZVkXH1zqvM17ZftWNgq8sPyuK6ebNm4b/5vIX7JUHAoiMjTDRAkTEiNsjs/g7mBK4xrSicKdBRQXCX2Szgq2ApTD+KAlMOoLuxjsvEYvTR0IEnT0ANLuUL3ulVUPwOQrp7wA8FWKbmd9QMaGSuuHIjMG2zJqZ3ygxUfVF+UTlFutqBTSfHwnBJbVpmQtNCRViDMdbxfsE4AFTJuiB/ZIbZ8fEe43SEFIxHK93SDJEAhvQ62LSqejVNw1CHgfCjQ3TTxlS1iyHxwq4EXZoK7NZUUzp5W+CMjNsVUT7OJvriGauPdECXK5SZ5RV5kfaz+RyIhALIaMRiFPInQQoraW4PEpxeW/i44KxlqKxp6DMkcSe15YBwLKteBUaceUUUa7VOXk8cNeTdop5kqR7GVl5tM50vJbF1ookJ/rkrF3Sj0w/TzN/k2ntBlSqYt4BIJHEpx3TTdUmxvInY8MvP3dVviStftDPYzUMd70fx6Wxkkpke0LpS25UtvXGj/90LP58K6ywoFgRuHhAbiurANnnx0STV0bVj2HkEtDfM4AYiLIVjTvT2g06kzUpI8Yv1H0vYMKmjmYptNS66gq5ikILKgf6cDpK6jvdM0DrG8foQAOeEg3M/ApUQbzOoD4YvM9G45gqyP0vWeLaKI8vVXR6nX5VMD6KftUYH6FjD8Is8eWXXwp/+MMfFP9ee+01YWJiQqdESDj6mz8Jff+g/z33F8Hzx5DGdRNC3xbmOkEQ/v7Hd4Sj54zliXb9SfhzF3vvkLDPbBW2+G8k3aYb/t/rXz/hE7Zs8QnKsyFhn7lF+DphXTeEY1uswr5z8t9LW0JxdcSX+b1wTNWdX7eI9QjMdepjCWQ410Luf66FntdrByPDhE/YYrYK+87J8kv1q/rmhv/3TPvYshodlSbx/aCSnGm7dO25FmGpop2qdp9rEZbGPWPje8e1NYMo6p7wCVsYWW/4f69oi6KNOs9C2Wds21XvSlw/aIwxcQwJbH3K8fp1izWp/kyEsq2sLKp7MjLJbSVt2+fXen+1nh+5fqnZavBctd9N7XdRrI+9XkNuc+L69OcUo3HM3Ev1nn7dws6P6vGg3a9Sn2m2Sa4v40Fck2Xt2rW4dOkS/v73v0vHDPM3BS/g8ptP4HmtVBgYxrG8z3BZ+n8uSvcmlkEdEHYhG+iSLntlgpCnmLjkurmTRlWpKYh11D/ABNgE4Nwq/lUBz0tylGjXGP177QbANYBYTS1M0QH0YgP2J0p3ER1AL9zYH7e8l0gGAGUNqGptR6imijmoDkJaAY/0pxvOMuC0KP9X9E5f9aF/YACrilxyNY3MjcR0DzOMOsBs5QH5b6+jGF51gFiav8lbxFiEFe6k7uWlAVdJYNLZWdqtZPJslTaTNBCxrlFUVjdI49S0dgMqe0igVGOY3FdlVXBmIBlfafMIIokvSwq5rcSL6P0uBqAX3satiOi+I8NwF7XCEhjBJvhR36M6HfRg1TYLusfYvqHL5RD3C8WwSQbvBSXksZFEkNK7SMrAN4JIoR/1tmKM+kbgKlMFG250w1MxCjXK+gzeZ4NxHPI4ED4QgIuklVP0zcm2Brw6pvGEg8b9aqrxIlIDGrfRCUhznzyGZk0xAZnL33T+4Ge4LOVliuJU/fHEhYIf4USLHDH8evd7+CStuycmvdxJaeRRyq/Fq8ucOB2txbqv+mDd6p3meruODNJyjgnrqkfhVSz9OUiaheYSEFffhWRQRvGeBYIe2NtkxUOCn8o4D7gR3taHkShQyvZHmvmbSI4lMvE0dVXMSNtNSy3ANjmyuNN3h3IQaWZWTqaMBU/NSN4wJVfDA7CuN+7vxdYKeB2t8vgPjqIfzFJW0AOzgxiUen1aur4BaCVK/WqC90I2XuWxFOtqJWXKAKAWHb5RmFv9cHbUwhSXsXhU0Xda9Rm+z5rjeBjeNqAfSmW2qqgPnsBWTJv8ClRVuEhKHJVMs/pVXkr5mx58AAtbLtD9oWEcq1LaUgvNBeSPYJ8i460Imy1W4tkHSMoMmh9JSYb3mFLKnWTCumqg+XDqm8Gl6y3o/WoYp3ss8hp0IrkGXArlIsqUjAymmq3AF72KY9KeTrCdyflkUMfaDYBmzifKNPaYUkJa7x6GV50zaGktOgIb0Gtj9k8S5m9KRAmcByp08l1pQPsh2TEZ+qJd+sgikuRHL6alFmkvBQBCh13oZz4o0MxjpSL2VR/6G6tSUIJiokNlpuS095gMGcbJNvphTKGF2dcahpvZCzGt3YDKig1Yl0/la21HZXUF6YeoH/UO9SpHPKEvmDLQfy9iXU7NFRXTUgtN60Gv+25U8+MO4tXIfaddn8H7rDuOiffHfqxQWeHG2TEvNuWT1Z6TQVkGaTwY9KuC6AB62b0yhln/XHzlypXYuHFj4vxND1bD9mYEJ/J2YX/eBTzSa5ZOrahbCYip2AceQOmzyqKK8+LHD2UbUIpzOEzry2vLxR1HtSFqv0SWugDAVOOG55JD98MIXcqqYN3mQPOyqviXvIgsVZF02uIEWwJXwI2wQ5ZDVADJyVCCp9AuDcrSl9xyNOsvLPBUxBWIJ78W+8Uo6Sl+yp0quv1Q1gAPXFhVVAxzUS8sBzQEz69Fh8/CpD0nSyrNNp0N5SQw1bjhYV5wQ6hxIyZ7TETp+gYmdXqS/VrWjO5lYj9Qq5ta0uyzfd/qhlNRUE5Jv6png1SGfEhhQ/OA2N/MGGoTx5YNvdUz6zH3SxHWHYCPKpT8WrzaKMrdi6d8DXKB/Frsr+6j/UCWxIh8RIn2Y0Dx3Em/Kj8iet8qt0n3vRATJw7IfS71kepZxPdr/H2M6tN/n9MZxyQHmDi+Tq73yePBoF8VH9bEpV+RxxCPLp5B4nLfKOC5kzjTJYbj9clO4nS5yC1b9bEuJ1aFt87AzxX42OZklln3mO42RMss3uLguZN+KcT/qDT9z6glgp4UPQu6dMNYwazFzeFkM9xj4nA4HE5WwT0mDofD4WQVXDFxOBwOJ6vgionD4XA4WQVXTBwOh8PJKrhimoNI4f1nWxAOh8OZAe5uxcRGHY+LHp4u4o/opvHpb1ZAwyCpokpnNJr6dJHy6hBZZdmGNaNiG5PhnFGqH0fHR6zWknvuoswLJPe7+tP46bdVP5dWsnmxlOOYjYCdZN4i3ZxBie+rPx50+kg3qr4yMnymfnAeU0f1V6POSaWQR+w/g0j8NPRaaqMg/t2cE4opvfxNwzi2fASWCzvRNLkTLz09gsNJJhY0ItbVivCBACJjKcaxyyCmGi8icQFh06EClVK4/GxFnb4AkEKlBNzTzw8zHSrEXDk+ONscqpddS+65S2kzbScq4AmMKMafmIMsMhZAVY8tA8pJO5dWOoQ85LdfUt4imzgBGuQtSjJnkJJheHs2aIwHEinCKoWG8sEqhqBS5Xw6W93H5GJql+X2NcCblAwJiPrRtM0C57RzkaWTdyo15oRiSit/E41G/iSNRn49MgVIsfaA6cTCk3KsSKgsCF1riRlcQQ/MHj9TziMPVo28THEhT7SsEoWlx9RhkGulausG9GrFz9KxGkOeYrg9Hmr5+eOyWurme4ForaXzgplQvEyr3zUwsk5lSeK8RSO5E1OCpxrlOHJpyW2IMtSNMgeXnNtKaQnr5dhSWaeMhRzrcsLdxfRfyj8EJ2Fq2Fh7Gc+l9Z0sn57nsUqKc0gjYIs/SB4fRT/E8E/GeYskVDmD9DPKlsAlKWsyHkDrLl4GeMWkmsFeeMX6xkcVMQVNazcAYt+VNcs/pC6rUoZ/SpA7SdcDc7lg9TXjKXUbDXInye216cS9VOWdopz2aMiXwBMdkcaxc24opkWLFmkGec3JydEN/nr98g80sCtJCBgwr8SSDMhyNazxdILtJLy8aGVJv64fhts2ilfF4z7Azg6Wtj7ArcpOSeNMnWQmkpNtYqBDA09BZX3JmUITyFBYgapLvfHKgrUax3wAY7F5L1lw1teA/m19sAR8cNJEd7EuJ963Kq3naS1B5Neig7ajtDnJzLv5teiQ5A6gqscVt+QqpQOgE8n05SaBQavWmtKX2wAx9YBoPaPCjf1S9Id29MItW/etfsTUGU7HfIAjuaVn7zZxrATguaT2ApOg0KKd+DBpSuCiqxGmGm9clAtvD7Bf8jzos1V7HmKcw2gYYaoEYl1OmFst8Gh6C2wSPnpEnCQdo/C4Ze+QeI7Mu6SpvJlAsbTMWWsrjZNXpVztYIK0hg670K8lHqvMjN7nqB/1rRY54211H1ZJRocLzct8GmNxGG5bH6oCI/L4YvrADp/0XijjXoqGjy2+3gEXRtfL85rURwZzimIc+yxzQzEBJH/TY489pjhmmL8JADCBU/UfYnLrTrxiL1CdI5N80oEjqVVxcr3GRFNoQWWbI96LoXlO7DrWCBq3SsuB7EtYur5BaWElEalZmXEzBRlgwqatoCmb49urlZ3SuZW+WIz8Ur4XKVhmvIVF0mzPdDw11lNQy0D6wQ42xH9iuXWRAmUygUHvOIxHkF+Ljo5amNQZTlGCp6TI9cao8xbFe4EpQg2F6SpnEWnsMW3SHfuUq2KMwI5aFGucFw0VVkYyVsXlP1mpK/aRNKNmE6MgfMCtjFFIl/m6wcwTqiCtJ616BiejHA3eZ5LXjAn6KnqOdAmvWyscFc2dFD92YzjdAybvmxo58ng3HErvuoIJRr12AypF5Wswp6jzec1qPqZUSSV/06Il9+Nm1WeY7N2J58sAXJuAOrFFStBkdSFPMdxQvWhiIjva8f0VTMj5dPL1lDXA09qOEEqAL0YNBkeSaMrATDhlVbC2DuBqtXyOpCEIIFJjghikMzFp5JDKMMb5oBrgOTCKZpr4TjZJ0pSbPmd0ObHK4ZmxIKaLrRVEcW4TZW3OwP5iYq6GB2CQq0UbuvS1f0YkYolh5FIFLC8B+E7nknwrrAMO2JfJ42HkEoD18iXaeYvYOpicQfCjaRvgCYzQHE0emL9QynS8nnrjksE7DO82wBMg84GpOQBPvQ3eYC1cZdQDE9MqBT0wL6uSn23Uj3ob2Z/alEQOsBi085rFulrRjwH0s4kA24rJe7Ie04bNOxU3LsdH0b+sCqZU5pRoeO54TECK+ZvKlmMJzHiEKpDznedw883lWCFdkN4e02KrQR6H/Fp0jMlLW+nn6yEJ+E4Gh3HykpgTJkGJpRbtvD5JyVACZ/UoTqqyu4lLG7GuVt3cO0qZjfM3pb/HlBpG+aCKa7xkiUPybtPPfSViqtkKJ9rjvU4dSD8k+1UntVzFpZakPrpR5spB1I/329gPCkYxEgUMc+WolyeTgtQnezWYuVxa0QH0DpAPTBQ5pMS0DwDEvR7nejqJB9vRzHiSenmQ4u/Dep/iRy0kRxOLtESsUBqFsFSw3uo4Rge0Pu4YhtvBGqHDcFOlpDCCDd5nvbxmkvcnejiNJGlkpLnEIHeSCcXLBtD7VYz2lUt3JUGddyruHLNPmMycEvuqb24pJiCF/E0owfO9oPmbduHEtyvx0hszE1lZ+cksm7Qr/Xw9prUbEHY4EGYfuOgK21yyy86s355V5DRKLdeKaa0F4TZx5ClzrTRhgyr3jo7M6eaQShWDfkgmH5SpxkuXUBLlqUmWErh8qk1/A0xLLQCSW1rTihKeWKmZsMnN5NiyuWCVlhpL4Dwg1tcKy4EGRUnNvEUQN8Ed8Ip5iJhla2WZzC3baSHll7L1oSpAPVQ2l5YLeJXJpVXa7APEMo5ReMQyBnmLdHMGKfIMuYBqpu+CHtjbwOSYEvtI9SwU/cp+NNUKS4Dtb7LUxebTIu+twfucTl4zg9xJ7LvUhK3Mu6SfdwqAok/tEPNYJZpTlPm8eHTxFDHOucThJEHUj3pbH6qSWj6Mz3UU8mhMBhmAj21OtjCn9piyAVPNVliLbDBvm/39FM7MEvKQTLfxNKA7zf0kUmcqY6cETzU6YGf3B18eAHoAACAASURBVBrZPQwO5+6De0wcDofDySrm3B4Th8PhcO5uuGLicDgcTlbBFROHw+FwsgqumDgcDoeTVXDFxOFwOJysgiumrIMEnd2fdh6pYRzL+4iJop5JBvFNTg6+GQKu7MnBmT2DzLkoLjpycCYnB2dy7LjI/nh0aB89ri4DTB61ax7HeCeCYhlHJyaZU1f25Ej1fTOkUZfGvSR5h/bhTM4+XJl2X3A4nJmC/44pq4jiVP2HCD3yDJr0YnfNOhtxj0aunCt7CvDP5yaw2pdPlMrifbgivIWHxjsRLAcKBAEPgSiI4NEJlG3Ox5U9ObhhnYC1EwgrwiEN4pvF3bj3qoCHC4nCCe8xI+/tckwetWMCAawWysl1OXZcvNqNh6lM8zpJ3VrMs5oz3BccDmcm4IqJJfgR9ldFmAO5KL3wGp689hH2DzyA0m/PIfQpAJjxu8kXady9YRzL+wyXaYklUtDYHhzaDjzXUY1FAK53v4dPsAmv2PNxvfs99KMYU43ncBMA3nwGTW+UANdCGP3UjN9pKiWqtD4l/1vY9jJesedrngPMeESrTc+uxEtUHlDZ3UUkpUKqv/ZfYN2IeRAn+kH8uGMvfitQecYjuI3t+HHoLUxGuoHOD/AQlfNfF4DbF05jcnMdHnqbKKvJo6rKh07j1u43sJoqm1vhj4Edpbjythn/+gTIfbdcus9P+Bg/fRkFdJRRHIVmzKsFFqTUWg6HcyfhS3kSwzhW9QNKacbb370JLGzbJCUaRMsIsJdmw237AYHuKIhC+AzoJcebJp8Bqt7DqWuJ73a58XvYJneiafJllH77GY4FAVz7XhVoVub8wQ8x+vTL9D4vw/L5h6RM3Lln5LxT13pwqPUBvDSZqSy+5XhUIN5J3uZu2TMZj+CnWjMWgC6nvWtG7m5y6lb4Y8w354N4NwX4+bkjmJfgLpOREPVuyPLgDesRqkgi+Nlfil8VgizJLY7g3s6NirK36wo0lxMfelsg8hbWocxXh7xp9AKHw5lZuGJKFiYb7iL7a9RbmcDkp3IEc6AEj7w5hckkFNPCtg1UAeVjxdO5mLocxfXLP+hcHcX1b3NhKRe9ArkMMIxvW8yw2eM9huuDI7j56TkcpvtVhxvViT9SzEmVgFtH7QiH38BqXx1+pTgziG9yDuKeqwIefTzZ2iK46CjAz68LKNusWoIb2ocz75phFd7CA8zhvM3dWC0I5N9gKaYW870kDmcuwpfyJAqQ9+wUQst3kcjSz67ES2/cmUB41yNTgJnkkMLnE7iOEma5bXool/xmiEIz5vttmFgewOq3yyEu2eFJsuQ3UX4QueI+0FAEt2G815NnLkW43IafBwU8ugZ0yQ64D2bcU7sdE+8egZV6PVfCHwPWD+IrWbMOC3A6403lcDgzD/eYRK6FMIqV0rJXk2IvRo8C5D0bwbdiaPlrPQi05CJPXP779HvyRd21HnwS562IDOPbFuoNlS3Hkk/P4ZNudU6DfCx6ZAqjg1GpTH/jFHKX5MfJcP6gvN+1qLwYaOwz+EIvvZxU8ZTjvt3Agifp3s9QO6b8e3HfGiDvcTvm1drxQCEARHHx3e2Y99w646W0NeuwAKQ8AFz5rxdwe/c6PIR8PPDcRrn8eCdu7NiIex+PV7yTRw/iFl1e5HA4cwsexFVC/QEB5I8Fgh9h/8By8oGCmms9OLScfsQA5uMHAOcP7sKJFgAwo7TtB4wyHz+wy2psGfXHFPIHC8rjCk+I+cBhSe8zQNUFPEI/zkh0r3Q/fohnEN/k2HALALBR9pBAv6qr+5j8Z7foVamOUxaIXtLQPpwp304O1soeEtl3KsCUX3U9yBd/EzugUYbD4cwluGISiVM+wziW9zfkXXhN/gAiQ7Bf6HE4HA5HCd9jEilbjiVVn2F/y2fSoSW9OzOulDgcDodjDPeYOBwOh5NV8I8fOBwOh5NVcMXE4XA4nKyCKyYOh8PhZBVcMXE4HA4nq+CKicPhcDhZBVdMWcd08zElz/Xu93AoLspE+nz9p6P4938/Cuf/N1MSczicXwL8d0xZxVzIx6TFdXzy8mlcfXkzPsNRHJptcTgczpyG/46JZdbzMfXg0PLvYZPqZtHPx3T+4C58WyGGGhrGsTwakuhaDw51Aha13KowSoq20h8Ux7qcWLXNgu6xZpSm0IVf/+koDi1dB+//m6kwtBwO55cG95gk5HxMTz5IJvuAmeZjugaSj+nCTjR1UCXTHcUKO+R8TJJSeA+nLryGJxPc7XLj9/jd5E6soArnWLAEzyOJfEwd+RCV1LElbNw7HVrOYbKXyH3+4C4EuqNYYa/GK5PVPDQSh8PJSvgeU7JkbT6mBDy7EpVUvkXm3MTXU0w1XkRS9JY4HA4nE3CPSeLuzMfE4XA4cw3uMYnM2XxMBNF7YvMxJcPNyITm8ViXE+YiD1HSHA6HcwfhHpPIg6Ww4EMczjsnH5NyIemRjyf3rsSh5buwnx6RI5JXw/bmLpzI24UTMKO0LRejTMmbjR9if6O6TAmenwSO5cnnRBlWvPEMvmWOL2x7Ga/QJboVdSsRWE7OLWxbiSX4PqkmL7I/gSV5YkR15ccPqfL1n47imT+K/zuNf/+P+Xg/+ByeK0ivPg6H88uFf5UnwvMxcTgcTlbAPSYRno+Jw+FwsgLuMXE4HA4nq+AfP3A4HA4nq+CKicPhcDhZBVdMHA6Hw8kquGLicDgcTlbBFROHw+FwsgqumLKKYRzLY3Ix5e2i+ZJUOZry3sOpJOLxGTOIb3Jy8M0QcGVPDs7sGWSO78OVhOWjuOiw4+I4+/8cnMnJwZkc9jgwedROj7P3ATC0Tz5OZUkMex9VmfFOBJn6gkflCBq6MtB+0JJ7Ooj302vT5FG7Qj6lPGL/K9t6xtGJyYTlDRjvRJCpI/6++v3A9h973yt7tJ+For/j+twYtk7pXuxYUbTBYDzowrbVSDbVu6Ang8E4njxqJ9eOdyKYwfF1t8MVU1ZRgucnd6Kp10wiPkzuZH6Em4vSCzRc0oVijC7PhHLaiHsKp1sH4cqeAvzzuQmsFgSsvmrHPxeLL/QgJj6xwyoIWC0EsGCHTX5x17xFrhcErL56BD+VJ6EQh9rl+wzuxa1yZhJ//QXMH6T1CQHMr2sn54b2ISzJIKAAsgyTRw8CtIy1E5h6XW/iToHxTkTqSrFg93QrysfDPkHqo4LlLyCSqjJKiiguOmxSP6y+asc/X1cqwXD4DUmOss350vEJBKT+Rrly4p3XOSE/37fLkxNlvBM3LhyRnhW5VxQX3wUKBAGrhQnkgukH3fFgRDkeFeUSJpB7wZaEQjOQIdE4Xm5GXnKt51C4YmIJfqTwViTPJPgR9h/sYbyWj3BeKqT0co4xcfMOMdln2Wyx17vfw7HuHhwSyx0cTk3OB6the5ONnQcg6kd9UTHcQf1ieiywbsQ8q1lx7F+SxaucbGRrtgBTfvHoIH7csRe/pRMWxiO4je34cQgAyvGor46+mOW4T2+yHo/gdq0ZC+Luk4MzrNW65i1pYsSaddL1QD5+tRy4dYpav0OncYvWNxkJYd5z66TJ4aEn90rX5W3uxqNryPG8x+2Yp5CJ9cCUk42mVQ9AVpBv4T51GxnLOlz3sbKMZPXbcEuzg6L41wVgvpmNFnJatvxT8ES/36NuUwQ/+/fiPtoPKFyHe9GN78cBYBATdaUoiFMsUXz/CZC7hR4fj+AnfIx/fpmE4tT1fkg9t+Mm8nw87HsLD9G/H3huo3xKdzwk7gdIbWcNNL1nYSCDWn5mHEsUmjEfpfhVhgzBux2umCTkfExNkzvxuzeBhW2b5MgPLSPAXnLupbYfEJCW2Gg+psmdaJp8BqhKzpO53Pg9bJM70TT5Mkq//UxWaEmyyJyrG4A1OcrxqNCNhwvJ5Cy93ACA7fgnPqBWaKnkRSgt5Ank1tLLxyP4SVQCR+04864ZuZoKaBA/7lB6adKST3kIue/WycrjbdlTWD0ITGgttzDKRyxjtR4k9Z1ah9U+ub7bYTEBZBQX392u2SOTX3Yzk+IgvlkcwW9ZGRxyP9ywTkj9cO8nBYwH9h+YWh6QlJ3EeCeC5aLFLcDaKU9sCm9TCKgmNXHZqSCu3tt1EdynZfWzFrwQAFgL3v8Cfn5SlCHE9GsI/xINkKF22eigz/ZfkjITDZUIfvbTiXZoH84sjuDeTuVkfbuuIN64Ge9E8F2z5BFZn+tGeM+gbASUbwd22DSNAfH5ff/JxyoFLcqtHA+G/SAZHTb81PkBHi5M5lnoy6A3jvM2d1NvsRyPCqJi4ySCK6ZkuQP5mKZFfi06xkbgSpQ4MCkY72fNOizwR3BLbSFrcEtc8vHV4VdxZ8lyETsJAPTFlZb/5AlMsUdRrqFIxjsRVE0Ck0ft0pJdAWySNZ63+QPkXhAnu/8AntsbX9/QPoRZz2DoNG5hOybiZCCTkjzpMp4jXcKL9y6I0kNng8bEpPI245CXnQpgU3hG86T6iAX/UyQq902OjgdWewQFrId4IYJJlOPRwVJMLaZlTpkVRsdtRpmxhorYb2feNcMqvIUHmNtIz1UsQ5d2J7/sxm3/CwirPcfCOpTR5TjsFo2f+In8yp54BS21WTUeDPtBvB81LIjXm+hZ6MugN4456cEVk4Scj2l/3i6c+HYlnrtDQVavR/RSYhiXWWi+A6G7GW9Il0Iz5vtfwET4DWodkmUnmSguOsjLXKb30heuw721H+PncdAJHsi9Kk5sKkUy3ong4hcwf7CbUXKDmKiDNDE99DbZB5gYApR7Nd14ACHl0uXQPmLpXlVNhNIESf9JHthGWTb679E1dNJllNnEDuBWeWob/0Y89ORe4EJEcw/sVli04MlSIjoTWf1QLpux3sXbZtkbKjRjHqPMZEPFjHtqt2PiXTOstF9uhT/Wvo9qiU2x95TC/tOVPTmYuHAEVvX1muMh2X4gSl32qNOUQYQdx5y04YpJJBvyMSVL8COcaDHDxirOaewxGSEvb+XjV8vlPYTJo//B7DGRvaMFT4reRjummD0L0cI0nIDGT+Of7D6HtB6vXnobxDeLyUcOSqvZjHsUE4J670C8D/Fq5P0wamlf7VZ4clizDgt2HNSwfPPxwHPA1H/FKxuFlyAIKNgNLBgkE2+euRS3PzlNlMp4JyLSHhOZ4H8cEvtKb48JuHJqu2KvjO0T9RKpuMw0efSgcX2qvUVRhp9Eb6zQjPl+cb8JzHIZmdAlecY7cWPHRtz7ePw4njx6UFpiy3vcDogfpaTA5FE7UQjM8qzYdu3xQEjcD8QDJmPX+Fnoy8AQN4456cCji4tkRT6mYRzLExP9RXA47xzJu2QHACa7Lsz43eSLdClwJtiOiZztmACA2iOw+ohCeWjLEdxYXIAzdcC8zgByaw9KJR56O0D2QgAQj6KbTGxD+zCxAwBsOLODXlxLXm4ctTMfAexFgbh0U1iH3+7OoTJsRG7nXiBMrpImi3LxXsQCL9ucj4ffPYLgYvn4gkGBKptBfCMt5TD3oVb1bYAsYzHlHl1DlrfOLI6/T97mD/C9owBncsTWs3XqsKYBuShAOOcFhGuPoKBzI24AAPLx8Ot7cYa2Z8FgAAt2nKaFWLnl+4vcriPPQtlWZX3zOo9gARhvwP8CkQEgHiHzhZ34LJT3KcejV+1Mv+5FgUAnZrEf4mSgnoXqeecBQGEdzJ12hHNyIO6QLtBRKhKSIv9Ylp32OYzGg14/UA/rdtz9DZ6FgQwL9MYxJ214dHERno+Jw+FwsgLuMYnwfEwcDoeTFXCPicPhcDhZBf/4gcPhcDhZBVdMHA6Hw8kquGLicDgcTlbBFROHw+FwsgqumDgcDoeTVXDFlE3Q6OZyQNdhHFNEMp9t9HI4yefUOW5IzDs5eOaVPXJEaXXOHjn6syoPkSKCt06OIlUuJrZOIxkUshu1RxFl3agfOBzOdOGKKdt4NhdTAymmwbijaOVwUuXzUcU/m1cLGrl6ED9ir3bctLhcOsp4dGIkAmX0ZyZ+nRSUM4AFTFkxooCRDBg6jZ86A8i9cFoVKmcvEw1cnaspc7msOByOEv4DW5bgR9hfxQZzzEXphdfw5LWPsH/gAZR+ew6hTwFlSCA2jBD5Ue7zZSD5mLYDz9GQRmy0h+vd76EfxZhqPIebAPDmM3LEiUeegA1/w6lrJcof917rwaHl9HqAhirKp/f5HrmI4PKnZpS2/YBQ45QsB9umuBBLw3AXORA+EEBHjSmlrlpg3Yh5iI+zpuZW+GPMf86On7+MAubTwJPrgB2ncQtQKoc167AAB4nyyPCEbyRDHoArp0K4d8tb+FXYhh+H3gI0wuPkPW5HpC4ilRFJth84HE7ycI9JInvyMa2ouF+ZBBAAHqzGK2KA2cmXYfn8uHyfTyPA1pdR+mwEocgTeKmNptG41oNDrQ9IgWlfenoEh1NNSqhAL4cTiTF2q1wrh85G3PP4OtwTPo2Lp4D71phxT218zSQ4qB0PSErpYzkNA7OU99CWI0BdQYpp0I1kGMSPF8h92QSCaia/7Mbt3etoDDSjXFYcDme6cMWULHcyH1PZBlg+71PtLbGZcj+knhvl2ZWoLAOAXJTWlUiHrw+O4Oan53CYljscF+G8BK6xkZS9JU3EtAmDIGkfFPsu+XjA2o0prIsLbinlNSoHChRRm7WX8qQlu6t2/HOxRgZUXXRkGDqNW1Lqh3VYsINdzpNTWIQ/seunOuBwOBmFL+VJyPmYQgBZ9nrjDuZjUqwG5WPF0z+gn/Gizh/8DJelJb8oTtUfT6puacnvTrHmLawW1uGbnIO4uKVbShiYt7mbKp0oxGypCyBGggYuOgowsWcdHkp28i+sQ5mwjpQbqkNeEmkGtGS4cmo7sANy5HMAkJbzeKRoDmc24B6TSJblY1pkfwIYUGTbkxMDBvuUHpMOi8qLgUa156W8t7uoGPVdscSVpcJ4BD8BiE8YqAdZCoRm/iMjIvjZn+gaIxlIxtICJoeStZPJBMvhcGYF7jGJZEM+JsUSYAkewWc4ATMeAbCibiUCy2mZN1ei9NkfkmhTNZ5rew+H83bhBCPf8xlJv86izBsEiLl5oriYbBVr3kLB7hzc+DIKbAakPSZ6mvWsphhlNK9zAmXpJmULkaR3bB7gvMftiLx+GpOb+QcNHM5swaOLi/B8TBwOh5MVcI9JhOdj4nA4nKyAe0wcDofDySr4xw8cDofDySq4YuJwOBxOVsEVE4fD4XCyCq6YOBwOh5NV3LWKKfu/6YjiVP0uHOrmP+ZMnRiO18/AD4M5HE5WcNcqph9//BEffPABotG7f+I/f1CMoUf/1feQiBNJcL37PbnctAK8pkesywlzUTHMmhEoiAIyFxXDHdQsbsAw3EUeEl5qOrLV+xGL+lFf5MTxZIdS1I962iZzvR9iq9i2mj3D2tcbReIIepTlaOQOUo5tq9xvZrXcQY+2DAqS77uQR5abfUaKtmr2HZVdr38U8rHtSX48GMpg0A9im5I3fNjnYNSvKjRlUNWl23+ZIE25WeLGpBbGzy/kofcOeuRxLNylTE1NCX/4wx+E1157Tfjv//7v2RbnDhASjv7mT0LfP1It8xfh7zMlUhLc8P9e2OK/oX3yXIuwtCWUZs0hYZ+5Rfg6bcmIbEtbQoIw4RO2mH8vHJtIotCET9iidd9zLcLSLT5BbOnXLVZh3zlBEIQbwrEt4t8J5Fb0R0jYpyPT1y1WuU9ZeVSyKa5TkFzfSf2TQB5126V7t7QIW5jj+mPhhnBsS5L9L6J+Dmzf6faD/Cz0+yYe5bVJyprhZzF91OMwSZJ6R437RGr7uRZhKW3rXesxiQiCgO7ubvznf/4nfvghQRgfmkGW/FOmr2C9Enb57Xr3ezjU3SNH/qbeyvmDqmW6az04JHoyzH3il/LIEp/WeT0ZdLnWg0MHe5j6VNlwr01g6tkH4kMuKfqBLaOULc7DopZ/6t6NPpVWVXImxso08rDMRQ54VWdDHqWFnjT5VlhhQTEbqIO1dhnvInTYBauvGaVqyb4bRWV1BcQ47qXrG+D9YhiACcXLQP8GEOyFt8KCxWJB1ptytMv1dbUifMCNTXHBQ4Zxsq0Br4oR48dH0Y92nAwCsa/6gAMNVLYYRi4B/T0DtD/0+471iuS2xnC6B/C8RCOlRMMIYwC9X8X3buy7UWCZVWo7gh7YL7mx/yWLRmeniJ63mW+FlbYbAEJftEtjSb8fTNjUMQKXbsgupeUv3muxtULux+gAegfksaLdd4meBXPHrlaEpev0ZQCgPyZ1ZFAyjtGBClgKtepSvdM6Y9JIhqQotKBSHPsp6sc5g+gxsf+2bdsmDA0N6ZSYEPq2aHsc0a4/CX/ummCue0c4ek4+52G8jr//kZ77x+fCn7d8LkQ169A/9vc/vhN3LJEMBA2P6R+fC3/+jXydXHdIOPqbdwSP4h8t+4/PhT+zXtS5vwgesR3n/iJ4/mhgHU34hC3m1KwuI48p1XNKqzPe0vy6xRpnuaeFnlckWob+FmGp2SosNcvyKL0LYp2yluYN/+9JGYX1qfJCGOv06xarsM9P+ltRbsIneSE3/L8Xlm7xCcdaZC+APJuQsM9My9NrE/WdhCQDcw21dI+pnsnXLVQ2RV1MmxhZFX1gtgpLFd4X7S/xnO4zVFvmcjl2TBr1A3uN8fjS6BdD2YT455dABr0xrCmD7pjUl0Eupxyr8bBy6I9J4/cimecnc9d7TCK//vWvUVNTg9WrV+tckY9Fj5C0F8cUFn8U5z+fIkFXtXIhgc2tBKx4gwZJfbAUFozg/DWxDsRFEI9nGN+2mGGLi6GXWAZdpFxNwCJzLj1Ygucnd6LpwkosfFaMqE5jAl77HjffXC61B2XLsUSMkv7gA1jY8pn+HlZ+LTrGjCzOZCFr301wp5ArSuUpaFDaPIJIRy2mm31Kae2yjGN0YADN4SpExkYQGfPBus2F41HAVOOG55KDWpIuoLpBrq/LiVU9G3B2bATdcMheXbAX3satGl4RsbC9PcD+sRFExgLwXHIorNqrXU6sCm9FpKMWxYqyw3AXtcISGIFrrXzMqO8UezVaFnKrBWfHmrFOVa60eYT0gw+wU+s55HHoeHqAqcZL+20EEZ8FzTbR4iaejHiue5kLqzT3ZGxoHpD76Hi9Db3VAUTGfIBD7WFr9YMRBn0U9MDsALrHRnC2ug+rWM/IqO8SyBDraoW3sYoZZ/oy6I/JBDLQdzYyFkBVj03uI4UnynjQumPSSAaj56fNLyJW3mOPPQa73Y6FCxcaXrfijZ1Y8QZdMqtiI3HTFOspxc3Lx5Nb78ehwSieLA9h9JEn8Mq04u6lI0OGebAar0xWkyXCvF24mTD6erqQBIaxLifqu1JRTrNNISwVFfLyFkrwVOMATo4DyCcv5yZ6JtblpEtLw/BuAzwBojBNzQF46m3wBmvh0r0PWf5zrheVrAnrqivQ+10MKLPCOuCAfZkPkeYSiEoM68mSk9fRCk/ASyaW4Cj6kWA5LepH0zbAExihZTwwfyG2tR32VjfOUmUfCg8AVo06yqrgRCtGosMYbQP6YYN5m3x6VVGfLJOiTK+mSKXrG4AvyN8hjwPeRrmtx+tprwXb0Qw3ztaYAJjgCrhRb2tHqKY5vX7QJYbjre1w+kbIhFzjRXe4GO93NaBj7YBO3yXzLMRxURJ3x5TQfX5qyBhqDpO8M8ddLuBAAJEaE4gC1X4W6cA+Pz3uao/p3/7t31BbW4v6+vqESollxRs75fTkyMeKp4FQZxpfrJQtR+7nIZwfHEFuRTIDjOR3CsTtH01DhlR58AEsbLkg7Std7/4bLqv3oR6sxiuTz8ielEiG95hMS1OZLMhEKe0peDK4x6QhV/+2do31cxOKl7H7LMM42cas24tE/WjaZqGWbyEsFQMYlfJQMWv9hRZUtvXS+wzDzVi7i60V8r4UYjjdMwDrUhOIMgSc6+l4C7ajeaABT5UBprUbUFmxAevySZnjre103ytR34l7JqSM2NZ11RXyvlnUj/fbKlC1Vsuj6IW3YgPW5RODQ/KKAm5UVrhxdswbZ4HHulqVe23yGSI3s/co/R1slz2mQgsqB0ZxVerWUfTT+vT7wQjSR+/H7WsSIyH8nfRtIUYugT4Lvb5LLAPxltSeiZ4MRmNSXwYlZAxJ4wZyG2JdrfJ4MBiTxjLI91E/P00SLUnOVaLRqBCNRhNfKKHed2G/ViN7OlrntPaJWP7+R3Vd4r6Uco/nKPNVFiuHel9JSwZyD+afuCeUaJ9LdV5bPmVbPZqyiSJmdo9JONcSd065D6HaPzjXwhybwT2mODnY+yjX05Vf22ldLyjW+bX2Q6Qyqv0B+Zx6f4C9l/JrKIXc7F6DQd/J96H7Z+q9MkO5DfpctcekX4Ztj6qtbN+1+BR7TPrPSL8fFDLE9Z+eHPry6fedwbMw+sLR4F567dWVwWDcseNhi9+nMx7ix6S2DAbPTwceXZwzq8S6nPp7SUEPzF9U0WUaDofzS+GuXsrjzA36t9m0P/8ua5A+GMjkJ+gcDie74R4Th8PhcLIK7jFxOBwOJ6vgionD4XA4WQVXTBwOh8PJKrhi4nA4HE5WwRXTrMHzMXE4HI4WXDHNeYZJZHMm0vf5g+p4f7PLlT05OLNnEBjahzM5+3BFPDG0D2dycnAmJwfBo8kp6Mmj9qSvTVq2HPGfHRfH5XOTR+044+jE5HgngqpzHA5n5uCKadbIx5MdO/FKXMDWdMjFwm8vKFNaZBnzrOb4g2vewmpBgLVz450XiGHBoEDlAKZe78Qke3K5GXmzJRiH8wvlFxHENWmCH2F/VYT+Rxk09fzBXTjRQv5e2PaypFCud7+HT1CM3MZzuAwANLDp9YO7EDDL1+FaDw5tB57rqMYi5j5sXYQoTtXL0cPZ83oyAPfDthUIdEexwqAuSEFXh3Es7wLwZgSX7OEs9QAAIABJREFUW3JR2nY/Qo0Ruc5rPTi0/BxuAgDM+N3ki3K0cQzDXeRA+EAg9eCqhWbMqwUWJHHplT05mNgh/m8vCoS38JD6oqF9OFO+HQsGBTy6hrT3oqMAU35yWj6eHHmP2xGpi+AWoFRGhWbMRyl+lSC8F4fDyQxcMUlEcar1B5Re2BkXwft693sImF9G02Q+xMn+2BIx8jhws/F72CZ34nkQ5dEfrMbzdSsR2B7CdTuJvn19cAR4ehMJhlr2IpomRaWm5PzBDzH69Mto6lB6UolkQNly5LaS+8kQr+xJpo5PuqN4xQ4AEUyZX8bv3vwQJz4vxku9wOGBCQATOLactGcFQJR1fQ8WTSOK+ENvC1Sp1KHMl0KZt+l/hvbhzJ5BPPR2uXzBeCeC5SHkXhXwMFUYV/YU4OfXBaz2AcAgvsmx4+LVbul8Iia/7Mbt3W9ICjBvc7ekoB4VyvWKcTicDMMVkwTJx3Ri+S5M9jITvpgL6dMPsb9RvnrJVvlvdT4m8ncpLDiO89eAJx+k+Zj2JpmPaVInH5OBDEAJKp/+G/qDwCPMUdbLIrKKf9G8TweBJVursQgfkcPBC7iMCC7n7cIJ8dJnH1DcxzU2kqAd02fyqB3huo/lA7sD0p+36wpwBhuRq1A6g/hxB3BrRw7OSFduRC4Sc6uclqk9AquPKyAOZ7bhiolhrudjWlRejCk2NUbwI5xokZfitDw0Td58Bk1vzGLg1PFOROoge0ND+3DmlHx6XucRzK97AT+PA1B4QzpLfgkgS36D+CbHhsjRdcjbnIl9Pw6Hky784wcN5mw+pgerYcMFfMsek3IpDaO/cSopmZe0/A2nruldQDKGxgVczTjink4UF9/drjq3Do8KAaA8B98MicfKcd/u7biR9hd75Sjo3Ijbde3yV4McDmdW4B6TxDCO5X1GPmAAQDb9ieW8yL4JpfUfYn/eZ8w59oMAPUrwyCOf4USjGb9jPvW63v0eDktKgizPEe8sH092PIPJPHnJTvwgIVkZVlQAJ6qAJRUAyjagFB/icN45AGaUtuUisWoqwfO9F7B/+S4p4Vf8BxqZQblc9zHO1IneSx1+uzsHEznbMYGNyO3cC4TVpcvx6NUjCC7OQbBzAmWb8/HQ2wH8mFOAM3X0ktojsPrqkv6qLm/zB/j+kwL8OPQWkMJHExwOJ7Pw6OIcDofDySq4x8S5uxnvRHDxC7itcWoe9bQ4HE52wT0mDofD4WQV/OMHDofD4WQVXDFxOBwOJ6vgionD4XA4WQVXTBwOh8PJKrhimoPEupww1/sx0z9x5XA4nNngLldMNFdR3nsGkQxSr9NdVAxzkRPH53SOvxiO1xcrFFysy3kHIjqkQNSP+iInjkeJrLJs4jMoTkFBD8Nd5JF+NJwZ2agMRcUwe4ZV57TknruEPExbmX6PdTkVx6ffVvJs3UF6T6ZfQx5yPBHKcUzHudY7G/TEtSfueFFy9xTvqz8edPpITwaF3MnLkKyMuvUFPUrZFfKI/aeUTSF31I/6lI3m+HdzTiimmzdvGv7T/OL9Wg8O5V3AI5PPYEkGZYl1tSJ8IIDImBebZuknMKYaLyIdtUgx6YQGFahEH05ntYK1oDiun0kg2UjAjcrZEEmkwo2zYyOIjPngbHOoXnYtuecupc20naiAJzCiGH+VBwKIjI0gMhZAVY8tA8qpApYMpRgJeWzorabyBTag1yZOgDEcbwW6qdweuNAkyl3WTNtDxljYkYxBMwxvzwaN8RDDcZcLVh+tb8wH67Z2Ul/Uj3qHKMMIzlb3yTIE22W5fQ3wJiVDAqJ+NG2zwNmY+FJjTNjUMSL1Ufcypu8yxJxQTD/99BPeeecd7NixI+7fX//6V+Tk5MQXerAarxiGDUo/5pt1qVolqCwIXWuJGVxBD8weP1POIw9WlfUgW4oJPAWFpcfUoScDgKqtG9B7WMNC0rEaQ55iuD0eavn5iTyMLKxlre5bYq2l84KZULxMq981MLJOZUnivEUjuRNTgqcagfB36nIpyG0I89wVMhJL8zhjqcvKUVlGeVw9Dsnzj3U54e5i+k/TcjbChE1bG9DfM6C0oNO0+BdbK1BpVWmo72T59DyPVdsG6MFhnGxrwKti3rDxUfSjHSeDVNaOZpRSuddVV2gLMT6K/goLFtP/Kj1HdiyXwCUpazIeQOsuXgZ4v6B9GeyFV6xvfBT9jVVUBsC0dgMg9l1Zs5zvrKwKTlYmg/fZ0ANzuWD1NeMpdRvZ+hztilNye21oHlAXJPWOXIof46c9GvIl8ERHpHHsnBuKadGiRbDb7XHHc3JyNI/PJFfDGk8n2I7mZT7ZymoWA7YOw20bxavicR9gZwdLWx/gptbSgVG83xUD8mvxaqP48pA6TrY14KkywNBTUFlfkTHxpUsgQ2EFqi71xisL1moc8wGMxea9ZMFZXwP6t/XBEvDBOTCKqyAT2/tWpfU8rSWI/Fp00HaUNo/AVZawBC0zwsjgiltyDXls5HnRiWT6cg/jZFsFqtaa0pfbgJDHQb10Yj2jwo39UpLGdvTCLVv3rX7EEMPxegfgY59fckvP3m3iWAnAc0ntBSZBoQWVdDykRwlcdDXCVOONS0bp7QH2S54HfbZqz+MAVTLRMMJUCcS6nDC3WuDR9BZiON0zoJhcpWU5xyg8btk7JJ4j8y5pKm8yHkSvr7R5BGetraS+L6qUqx2XwrJxdNiFfi3xWGVm9D5H/ahvtVCvjXhgqySjw4XmZT6NsTgMt60PVYEReXwxfWCHT3ovPBWqcqLCUtc74MLoenlek/rIYE5RjGOfZW4oJgBYu3YtHnvsMcWxjRs3Ij8/3fUSMsknnYWVWhUn12tMNIUWVLY54r2YYC+8aIddxxpB41ZpOZB9CUvXNygtLMaq0iP2VR9woCH+ukQywIRNW0GUokZ7iQXjgJc55dxKXyxGfvHl7t9m07WwTDVeRmHOFKynoJaB9IMdPsZ4SCy3LgMurKL9A99sLe0yHkF+LTo6amHCOEYHRGMGIBb8AEbHE9dWKY0h4kXEe4EpQg2F6SpnEWnsMW3SHfuUq11OrApvRaSjFsUa50VDhZWRjFVx+U9W6op9pLh3CQA1CsIH3NJ4iHU5sYou83WDmSfKmtG9TBxDxThp1TM4GeVo8D7HvupD/4Bcn+Q50iW87maNDAfBXngV77HcjtM9gOclvawI1EgW28Qq6Ao3nLQvTWs3oFJUvgZzimIcl1XNrVh5drsdIyMj+N///V8sX74cTzzxxJ27eX4tOsZqyVIWVC8aPSd2fH+FG2dFq6iRnQSTpKwBntZ2hFACfDFqMDiSRFMGZsIpq4K1dQBXq+Vzx10u4EAAkRoTyGTfm8SNKuAJzN7eG0C8C6/U3hiO17uYsw3wHBhFc08YMZQwe3Rpyk2fM7qcWOXw4KkZUrqLrRVEcW4TZW3OwP5iYq6GBwBrioXo0tf+GZGIJYaRSxWwvATgO51L8q2wDjhgXyaPh5FLANbLl4Q8xbBfcuNsh847ll+BqgoXVep+NG0DPIERMlaCHpi/UMp0vJ5645LBOwzvNsATIPOBqTkAT70N3mAtXGXUA2umlwY9MC+rkp9t1I96G9mfUoxNnTklBrLfpza2Y12t6McA+osYRdpWTN6T9Zg2pesbgFb1O0UZH0X/siqYUplTouG54zEBwMKFC7Fx40bMnz8/A0t46e0xLbbqrEUDVEHJS1soq4KzrTWNr/dMWFc9ipPBYZy8tAHrkpgwTUst6Bc3VVmSkqEEzupRnFSllhCXNmJdrSrrRk9moFlrv4qS/h5Takj7EsH2OO+nuMZLljgk7zax3Ikw1WyFE+3xXqcOpB+S/aqTWq7iUktSH90UwlLBLAdH/Xi/jf2gYBQjUQAYhlvT6ifnFMuTSUHqk70aTGuPyZDoAHoHyAcmpqUWeV8r6keTtMdE9nqc6+kkHmxHM+NJxrqcVCkZfEgUHUCvwvsUP2qJ4Xirej+GKiWF0iiEpYL1VscxOqD1cccw3A7WCB2GmyolhRFs8D6b1m4ANOYAyfsTPZxGwOmjWw6FFlS2iUv57HgwoXjZAHq/itG+cumuJIS+aEdldYVmH4a+aFfsEyYzp8S+6ptbigkAVq5ciY0bN+L+++9PcKX4qfhnuIwphJbvwv76HlyfAZmUn8w6EJaWFUrg8lnQbEt9Y920dgPCDgfC7AMXXWGbS3bZmfXbswdGZRdfUgDJyWBaa0G4TRx5ZBPb6yDXN2GDcvNVT+YaNzyXHDqbwxnEoB9KX3ID4rLcFxbVurgop5cuoRD5pi93CVw+1aa/AaalFgDJLa1JipN5fomVmgmb3G6E6fMz21ywSkuNJXAeEOtrheVAg6KkvKSpXJ4km+AOeDFAyjLL1soymVu208IrtakPVQHqoZY1wAM6DlzAqwfkh17a7APEMo5ReMQyogJjlr7E5654n22jeFX0hOn+L3nHXEA103dBD+xtANqYcVTvR0z9LBT9yn401QpLgO1vstQltVd6bw3e5/xa7FfMAUkYBIo29eIpZo+JfZeasJV5l5Qf1rxvVXlpTJ/a4aPnEs0p8vLkqp4NPLp4qsS6nGiCO/m9KQ5HTdSPelsfqpJaPiRLHuwyYcijMRlkAD62OdnCnNpjygZMNVthLbLBvG3291M4M0vIU0ys4Dga0J3mfhKpM5WxU4KnGh2ws/sDjeweBodz98E9Jg6Hw+FkFXNuj4nD4XA4dzdcMXE4HA4nq+CKicPhcDhZBVdMHA6Hw8kquGLicDgcTlbBFVPWEcWp+l3Yn0f/pfyj4GEcy/sI52dEtkF8k5ODb4aAK3tycGbPoMF1+3BF48zkUTuCR6Oqa3NwJicHZ3TKTB/2Hjk4k2PHRfWPW4f24UxOjkq2NBjvRJC5l1jf5FE7c3/6T9V/4jXfDLFyp9on6rbqtDcVaN+cycnBGUcnJlOWQ+v+9LyiPr0yRv0QxUWH3Fa57xJzZU965VJB+dyV/aA4x46F8U4Ec+y4OE7aNu0xOQfhiimriOJU/YcIPfIMmiZ3kn8d1Vg022Ip2Ih7MpQrh0w4B3HPVQGrBQGrhbfwUKaqjmMvCgTxPt14WNGGQXxTHsKC3RuneY8oLr7+AuYPivcJYH5dO64AyNvcTY+Rf9bOjZhnNctFxzsRqSvFgt3TFAHleJS5z2ohgAUoxa/SfmZRXHwXtO8mkIsXEEliopw8ehAYFNsKTL2uVGhX9tjw0+69mMfex2GTyqy+asc/X09CCQ6145/PTZAyg3txqzw5RX5lTw5uWCekfnp0TRKFUoU+U2ncDZZi6r9EBTSIiU/ssIrPaIdNpRyn88zmPlwxsQQ/kj0VNvNt8CPsP9jDeDKsRyKGPiL/jokhQK714BDj7Vzvfg+HuqPS38e6e3BILHeQhhW6FsLop2b87g2tgJJKT0qsK/7cZ7is16Y47yv9nFQLrKqJVWG52nCLvZixuMN1H0uHJ48exE+dH6iUBIG1ZuM8KdaCZ88pjidvBV/ZY8NPnR+gQB2wVOH9MPfR8YqAfPxqOXDrFJ18hk7jVq0ZC+LuOIiJulL8drP4C1tRob2F+zTk+5dkWSstbraP9Kxq0scNVOErvQult6LneeTjYZ9oMOTjgedUylvnWeRt7pYm+7zH7YwCImUmLhyBeQs7fiL42b8X94kKonAd7kU3vmfaq9kPa95CmdiPa9Yp+1pvPIx34saFIzBv1vqFs4EHlup4KDRjPrbjR1rHlVPbmXemHI/66pBH/75P0yAh42m++Rf4K36BQwkJR3/zJ6HvH+R/f//jO8KfuybIf879RfAw56Jdf6LnJoS+Le8IR89p1PGPz4U/b/lciArqMuRvz2/+IvxdEJR1nPuL4PljSFM6hTyq+yrPhYSjYt0aMijrDwn7zFZhi/9Gyr2l5vJuCOc6RRkCwgXsFS4LgiBcPSKcE/8WBOH7zo3SdZd3Q7jQeUQ4BwhDgDC0O6Bd+eBe+ZyqPn0YGYSAcEG8h/o+g3uFodojwvcq2ZTlldcpmRD+p3aj8D9X5SPfd240bI/yPvR6eu3l3RAuDLJtYPpVV9YJ4X9q2XJafWAsR/x9lW3SvE+Sz4Jtn6Luq0eEc1Kfqu45uFcYkv6v3w8KdJ+RWAeVdXCvMLT7iPA/teKYkNug3w/pjocJ6T7xz0frPhxBEATuMSXLm0/gyQfJn4vsr+EVez6ACUx+asYjTN6bR96cwuS1xNUtbNtAs+vmY8XTuZi6HMX1yz/oXB3F9W9zYSkXLSe5DDCMb1vMsNnjrarrgyO4+ek5HKYe0+HGKdUVKeak0mUQP+7Yy3gAMpNfdgOSxa5s078uALc+AcziMtEFeTlDsf5evj2J+qCyXFmvjV3eIvchVi1Zwst9V7RcGYZO4xa2Y0JDBuVeSAGm/Ex7j9oRpks0BbBp7MkMYqIOuPfxfEnmSF0pCt4u12oRAKZf16zDAn8EtxDF9598jNt1BZoyyLIcxK3d6xR9xXpZsvc6iB93ALfKdTxeqWwBppYHJE/I8FmIDO1DmGmf6J3Ge8nleHSwFFOLqQynzMitTdQPDOOdCKqfpc54mIyEgB3dwLviUmMIE3sGjfshrfEQxcX/v72zj43qyhL8z4Naooft4HRBsImBFLbJbgYzi8cE7J2ODGpCILPQ4LYBR4rAtE1EWp1VxGDz3ebDH2kralZJGuzBm0HCNjYFDbsxIbTASnrLdqjYOzjDLrGhGnCoMqYUkwg1UoRq/3jf9W1DQtk5P8lS+b137zvv3lf33HPurXMKklVXoxOyQ1m2igsznOfgh4rEytNJxrZCiULeBbBiHus2fz8m9IB7COwwZcaT8IGHAeY+snWlibUbVSUabyhuim8XawOJ4iZyu72Qch53ISTe9Ctf1o79dJ6LVp/iDqPBw/y1SSiDxfmQ9520chXfgDrYnIBpCXTq50/QefIoaW8Ce5zMD6EwbuzN4Z5+zsuVgtfVM4rSSbypPJNtp4e/FiTj6SjEpg3mjTXc27OZ+eog5PvEwQNO4EnYgUe7wa4EOvc4mb8z4Mb9bu7n20kG/soqEm8GrpWZ0WQxyd+xH8+ufSSra3m+xjzc+knjeChu7E3A03OUtOZwCjQEHfvpzO4i8aZDrVcZ+B+QTGehcVlfgoM7Nx08u2A78/3bdfk/T8jkieYQ9ZraQfm/Adc0ZW3PaI/w74PNnknfnkX6tbaf5eE+6caHPXw79DP896HjMEMcJW1tEpDE7JtHcU07zI21202uVUXZzw/pVvzhIhaTxq0urjKPdcPadJCMbYWby6Z1JWdlIjbVsuLUHWVN51YrJ4OsFY1uLleq1lBWBjNOXeSkI3BWlcSU54a42u7Vy1woGSJxRlKQDJdqjDWmKdnpUPJRhB16I19jsmLnR/kmX/peY6Zps2fy4OR5xWrob8BtWmOakLbKWI9RrQDDn64t/nq58rYxO7XZM3mgbigIhVbe11gTctavDNjqfRZsD96Q0OBhfnMhtgWLmLCrJuxuNn2toOOwaYZs50f5J/hWL+Pm2xbzZhFVWaw3BrfATRHJe2BCuz/kAOj7xMGDDDs2kpi0EtNCejCaAgxSXPqal9IOCtk8sWcHt8OuU+WpSslqWUbsC82CsSjPgI0ZN48yLv8oaUGbUTTLKrQ1ZrSD8hyfq0op1AaGkO9Dip1xu87rchv1RWiHkbwPKXbGmS27fjcPTGuOmgUaqq9/6Ihi0piaSSqG2yu2rdpJLN43j6El6vUZF0k8+4bi8pu6jJytbs7YyqnOuENqbaKl5N2SQ/pmBbQyzGWNbzmJ+jlDhjmbzcdPM1S7kTVZqgyb7FxXZbicu5wZ+jMtY2XtV4oMgZszHilJPPvmPt0F8vVip7EIvWADibxCX0ICnW/CUw3G4rltrUNxd6kukG9WepTBJaWQp/ZobpPXYeU+41YLtiuul6BFaKsMbvIMGQJcOoQZxKwEuJZMi9rT1x8FzY1mcTkl8ezbR7mfbb6XMeiGVRYRMdxHfSfzSFMHMdvad0nsyaEzqB0glAJU2s7UFwnn+ZGpL6bvdDJedw2aNkZok4kWrZzpXmH7QrFWHnDC0n7RNqOY3be30zzGpoYI7aBNggz3m9ZPEd6HlEKy2glZX9h2GMn7kFKI3dw+2ZCsKfeO/Xh2AbtyQtxLkOjiGq4jVLdlULrZyCDZZPsYW88b+trSo2LAcYCTrI5TF5sgCMLjRdaYNLIymLHkNNWVp/VDM87ufuRKSRAEQYiMWEyCIAhCXCFrTIIgCEJcIYpJEARBiCtEMQmCIAhxhSgmQRAEIa4QxSQIgiDEFaKY4o6HzccUO+aI54+Cz37fyNNPN1L8x+9KYkEQfgjI75jiClM+pvpQqS/ilQFObjzPzY1rOU0jBx+3OIIgjGrkd0xmXEeoXuI2HUgks+cNFt86QnXbJDIvX6TrFICdpb5X1ejg3TSZciDNOLtbCRV0q5WDO2ClGnPPHO1hwHGAC6QzVHKRuwBblysRJ261cjDjDjl63WZUpXVK+c8cnPVSTTmXc9X70k2TrYfnfK8y51YrBxsgNVDuW60czFDvHfis6g+KB48X8/yWVBzXysgcRhN+9vtGDj6ziLpfxFd6Q0EQRg9iMel007TkKzJ7lGgPl2rKcdpXKwP1LaCyF3p2U1qvKhmHlzl5cK7oNJzdTamuFA5wrucNFke52/WSOyz17WaOqnCaXHNZwx3ubs0IoZTgUs0hrr68kdL6JDQl1TRDU0YRqLyI76wi96WacpwOL3PylvGab5mERhIEIS6RNaZYidt8TFFYMY+FqnxT7ImRrzUx+Zd1uIdpLQmCIDwKxGLSGZv5mARBEEYbYjFpjNp8TAqa9WTOxxQLd92ekMcHjxdjn1mlKGlBEITvEbGYNKZmksoh3rddNI6tmMe6iApKycd0MKOcavWIEZF8GTlbyzljK+cMdjJrE7lqKnm35BDVJYFl5rLGB00245wmw5zNy7lsOj6xdiOvqS66OYXzcGYo5ybWzmMGd2J65Cl5LzDDpkVUt25+GC6f/b6R5b/T/jvP06+P5x3XSlYmRyolCIIQjOzK05B8TIIgCHGBWEwako9JEAQhLhCLSRAEQYgrZPODIAiCEFeIYhIEQRDiClFMgiAIQlwhikkQBEGIK0QxCYIgCHGFKKa4opsmmykXk61czZcUkKPJdoBzMcTji0w7nyck8HkH3NibQOfedtPx/dyIWt7LlYI8rvSb/0+gMyGBzgTzcfA15qnHzfcBOvYbx1VZomO+T0CZ/gZcpvpcjUYEjbAyqO0QSu6HQbtfuGfyNeZZ5LPKo7W/9Vk7CxrwRS0fgf4GXKY6gu8bvh3M7We+7429ofvC0t5BbR4Zc536vczviuUZIrwPYTE/ayTZAr4L4WSI8B77GvOUa/sbcD3C92usI4oprpjLGt9uSs/alYgPvt2mH+EmktmjhkvqSedqxqNQTqv4UcrD1qFwY28y36z0MN/vZ/7NPL6Zpn2h2/GczCPN72e+38mEXTnGF3fBduV6v5/5N49yPzsGhdhx2LhP+z7uZZsG8TdfYXy7Wp/fyfjCw8q5jv306TL4ScaQwddYA2qZtAYYejPcwD0M+htwF2YyYc/DVpTEs81+vY2SM17BPVxlFBNerhTk6O0w/2Ye37xpVYJ9fZt1ObLWJunHPTj19ibbOvCOa/AY/bszOzZR+hu43XNU7yvlXl6uvA3Jfj/z/R4SMbVD2PchEtnM1uTye0jsyYlBoUWQIdp7nGHHFtvTCyqimMy4jlisFd0ycR2huqbVZLUc4ZJeyGrlNJni5h00ZZ81Z4sdcBygydHKQa1cTffw5Jy6jJyt5th5gLeFopnpVLjCFwvHhLRVjEuzW479VZ/xWgcbYzabzFCLdrSdr3ft4yl1wKLfzQN28HUHQDazmwvVL2Y2T4QbrPvdPMi3MyHoPgl0mmetC7brAyMLFunXQxI/zoB759TZb8d57qn1+dxdjFu5SB8cpi/ep19nW+tg9gLluO1neYyzyGS2wKyDTchZPWAoyO08EfiMppl1X+EJaxl91p/DvZAN5OWvPTDebo4Wct6Y+Q/DEr2zN/CZ3Hzbso8n1HYgZRE/wcGdfoB2PIWZJAcpFi93TkLievV4v5v7nOCbT2JQnGGtH6WeB0EDeRLPNm9nuvp50spVxqmw70P0dkB/dvMELVxfRJAhUH7Te6yTYmc8mfz4EU0ExzqimHSMfEylvt0s3QoTa1cbkR8qe2Gfcm5d7Vc4dRebmo/Jt5tS33JYEpslc73kDjm+3ZT6NpJ5+bSh0GJkij0xbADW2Mhmtt/BsynK4Kx/uQHYwTe8q85CM3UrwjpD9pCYr17e7+a+pgQa8+h8205iSAXUzte7rFaa7vLJ7iLx7UJDeew0LIX57eAJ5W4xKR+tTFpajVLfuUXMbzbqe9CnJYD0cuXtHSFbxPeJwzQotvP5NDdPmWUoMNrhdppHb4efnEw2WWCvM5Th1JWdTn8Drmxtxu0nrcEY2CzWpt8ZMKhpbqfkoHofFLp5ItSs3zyD9zvBPINveYVvF2sydJnatYu/ahOQjsPGpEPt27/qykybqLj5tkUdaDv20znNzU8arIP1g8Lk4MlNfwOut+26RZS20kHf3nZjEpC9A3blhJwMaP135+SJAAWtyW19HyK2gz7pyOF+w7s8mxJLX4SXIdx7bFvrUK3FbGb7NcUmREMUU6x8D/mYHoqkfOqv9bItWuLAmDBZPwsWMaHFzb3AGXII7mkun+ZCfhx0VnEXmQcBUL+4uvvPGMAsaxTZIRRJfwOugEHA15inu+ySydFn47a175LYow12r8PKfcH1deynz2wZdJznHjvwBMmgDErGoGuyHFUXXrB1oSg9GjaEGJgCrM0gDLdTMjkWy2icXp8yg7/v9hptkxDGAss/SrLZQuxx4yOb2e2ZDE2H78GVAAAdHklEQVRTy5yzWyYdD0zKzDxR0dqt8207af7tTDLdRu9XrYzq2vV94uBByyv0BVqOKYVkqe449miTn+CB/MbeYAWtP3PA+xCxHbT7qRMLxeqN1hfhZQj3HgsjQxSTjpGPqdpWzpnL81j5PQVZHXCHS4kRucxE+/cQuttkDYUlxc74llfw9G1WZ4eK28nAy5UC5cucFe5Ln7KIn+Sf4Nt+1AEeEm9qA1uAIulvwDXtFca3O0xKrh1PIfrANH2nsg7g6QDrWo2DSXRZXZcd+5WZ7s2AgVAfINU/3QJbZcim/s1eoA66JmXm2QX3soe38B+J6Yv3QY875BrYvT5tBq+4EmmINuvH6jYzWxc77YY1lGJnnEmZGRMVOz/K34HnbTtparvc6zsR+j4BLjbL2tMw1p9u7E3A03OUtMDrQ74PsbaDotQNi3qEMmiY32NhxIhi0oiHfEyx4jrCmUo7OWbF+RBrTJEw3FtJ/DjDWEPwNb5uWmNS1o4mLNasjcMMmdYstBlmxAGo/zzfmNc5dH98oOutnc+nKZscrLNmOz+yDAiBawfafRSrxlgPU2faNx0WS44Fi5iwqybEzDeJSSth6H8EKxuLleD3k7wHJrQrA6/NnsmDk+cVpdLfgFtfY1IG+K87tLYKt8YEN87tsKyVmdsk0EWquZl8jTWR6wtYW9RkuK9ZYyl2xrdo602Y3GXKgK7L09/A7V2r+MnPgt9jX2ON7mKz/SwPtE0pw8DXmKcoBJN7Vnv20O+DQvR2UCxg5d2N3BfhZTAR9B4LI0Gii2vERT6mbppsWqI/N+/bLip5l/IATNl1sbPU96rqCvwu2IEnYQcegPyjpDUrCmX6+qPcnpZMZyGMa3CSmF+jl5i+06mshQCKReFQBraO/Xh2AeTQuUu9OF/5ctOYZ9oEsI9kzXWTUshTexJUGVaR2LAP+pSr9MEiW7uXMgPPWpvEs28fxTXNOD6h3a8qm3Y+1105pvuos+oHoLixTOVmL1DcW53Tgu9jW/sudwqS6UzQnt5cZxgWbCCRZPoSXqEv/yjJDau4DUASz765j071eSa0O5mw67xayCy3cX+NB4VKX1if1VrfuIajTMBkDbS8osgAikVo2mGn9YX1PtnMvplnatd9JPvVgVlrhyAZVMsioL9tACmF2Bvy6EtIQFshnRBGqejoivyEIbva5kR6H8K1g2phPQi6f4S+iCDDhHDvsTBiJLq4huRjEgRBiAvEYtKQfEyCIAhxgVhMgiAIQlwhmx8EQRCEuEIUkyAIghBXiGISBEEQ4gpRTIIgCEJcIYpJEARBiCtEMcUTanRzI6BrN02WSOaPm3A5nIxzIXPcBORJMs6FyzcUcNwUwTsoz09gvpyQ4X8CZLNEmg6f88goFxj7LFIOoPB5qfQ269gfJkCpIAggv2OKP1YkMtTWDVlzo1/7WAiVw8mUzydUcM0wIWP0SM7NoX5ovCo4TBBK2B/bWiX23rdvRokYYCH0L/LDytDfgGuam6f8TkiosZ7TcgA1J6lx9vZzQ63bUl9/A65pxjkgZAggQRCsiGIy4zpC9RJzMMdEMnveYPGtI1S3TSLz8kW6ToE1JJA5jJDyo9w1WSj5mHbASjWkkTnaw4DjABdIZ6jkIncBti43Ik489wI5fMy5W3OtP+691crBDPV6UEMVJan3uUMibq6fspNZ+xVdJUOGHOZnCgqx1E3FzAL63nJS/8vJw2qqCWmrGEf0Qdb3iYMHe0JEg453UgrJ8gO083nguQXbyTIHNcUIIfT1rn085Q/MS7UdzM+fYmdcPpED4wrCDxhx5enETz6mOblPWpMAAkxdxmtagFnfRlI/OGbc55QbNm0kc4WbLvcLrKtV02jcauXge5P0wLTrXu7l/eEmJbQQLoeTEmPsXnZgDh1zgEyTi0t1t01ffxQKk8OkND9hpGGIOWV2JEwpLEz1RZYhBsw5gKLkpZq+U83ImlJIVqRAoILwA0cUU6x8n/mYsl4k9YOPAtaWzJlyD6mWm8qKeSzMAkgks9BwAQ6093L31EXeV8u9HxThfC7brvUO21oKiZY2oR1FAQSt9aipJ8wpLLScODfz+GZa4PqONbXEw1tc+/QkfZb6IsoQhVA5gIiWl0oQhGiIK0/HyMfUBYrba/P3mI/J4hVLYs7LX3HBZEVdqjnNdd3l5+Vc0bGY6tZdft8XC7Yz37+IzxNquLLewY8z4Bu3FxZEkCGlkCz/Iq4UJOPpKMT2ONx+w5XBtHamr4Ol2BnfkoNHT/Gh5qVa/N2KLghjDbGYNOIsH9OUvBegzZJtz0gM6PrIajGFYUp2OpQEWl7We1fMTKfo+GD0yoZDv5v76kfFVfZ6DG4yN9+2RLvmuyZWGcLlAIqcl0oQhNgQi0kjHvIxWVyAc3mO05zBznPAnMJ5ODPUMlvnkbniqxieaRkraw/wvq2cMyb51jyS9OtmrHmDwJybp5CsdrclrxF7nOhZbU2KYFyDx9hUEAZz3iBaEugM3G23y5T3ybKzz5RjCi0HTyQZAp5pWgKdal6hexFyAIXNSyUIQsxIdHENycckCIIQF4jFpCH5mARBEOICsZgEQRCEuEI2PwiCIAhxhSgmQRAEIa4QxSQIgiDEFaKYBEEQhLhizCqm+N/T4eVcUTkHHd7olwoBDHKs6Dv4YbAgCHHBmFVMX3/9Ne+++y5e79gf+C/VaDH01L+iViXiRAwMOA4Y5R4qwOvIGDxejH1mOvaQESgUBWSfmU6FK2TxCHRTMbNKCS/1MLIVtTDobaFoZjHHvFaZzH+6fN4WikzHA5+pqypEGUud2n1C30spE0WGcHhbKCpqIZI61/rDUperyrhPlPKhCdUXStSRoPrM7RfuXq4q7FWh3tVBjhVp7Rd7/w8eLx7GJEeV29JX1v6I9V01v/uhn2cYMpj7KIQM4b5n5vfRHtheEftCe2ajzPDa0aCrSn1+V5Ve35j+HdMXX3xBVVUVq1at4oUXXnjc4gSQxOL63Y8kjNqczbuZs3kkPwju5kLJkyz1vaEGlH08LAyXdsN1mLJZzbjrA3NTTWZ1fS+rvw/hZqUxmb4I9x7kWNE2SFE/b9tGWnMv9VmgDCCH6fplGZkoX8B30py4r1mftasqh7PLnLjrJyuDQU4V6deUMpBLlbOO1ZbfYkeS4SHwtlC6JZXikjbLsaICcFzrJRNl8Ck9nvvQgX+7qgroK9nAwi+s9y/Kucqvr/VS/1C1f3cMHn+PvrecuM3P7zps9J+rCntBFS/p/ReObupaX+TTa3VMVtPPVPy8l20xRGUJKUNSGe5rZcpn9R3qUmUYPF7M832bcF+rs1bkqiLviwo+vZbPZLS+HVT6NkpfDB7fRtmsDRS3hTg5AhamWV/eMWsxafj9fhwOB//yL//CV19FCeOjZpBV/qzpK8xWidn9NuA4wEFHqxH5W7VWLtUEuOlutXJQs2RM9wl25SkuvlDnw8kQllutHKxpNdUXkA33loehFZOCQy5Z2sFcxipbkIWlzrCGb92EJ/CFNc8MI1lY9pkFBHwNlZnZSGb8SWmkkUp6qEAdrsOUzdqkKo7JpM+Cuj+p7eI6S11uKtMAvC2880UF1UEDejcf1m7g19rx/qtc4DAfDqcNLTJAtBn8+apQM2RNqZbxkvni/qtcKFmiD7KT//FFaG0z2tAyUw+oL1xfqANi9bpUi1xd7yv3Dzmgm2fvBYet5fTnyaEsYKDs1S0FsyVqlfv5LW0hj4dqu5t9baQ9E9CHWWWGos5aQnFI2QLbZy7b6hWFAHN5qSS0bDHLYKb/Khe0945u6rak4igLkXg0JZWFbR9xXrX6zrca9Ubri9ItqTjKloQ42WZYcxYr0PpOhrSsUlJZqMntH6MMDQ35f/Ob31j+tmzZ4u/o6AhTwuP/aP3v/R99GXzGe/z3/j8c95iu+62/8aJxruqn/+r/N/Xsv/1OPfflB/4/rP/A7w1ZR/hj//a73wYdiyaDQpe/8acB8n/5gf8PPzWuM+ru8jf+9Lf+KsufWvbLD/x/MD2P/+K/+qu057j4r/6q33WFaDtNrGb/enuaf//F8JcEcrvlV/71LbcfybnPKtNMx7r8++2V/s8Czj+zvtkfusaRcNvftP5X/qaA7rrd8iv/M/Y0/zOVpra6WOl/prLZ37Q+TTmnyeZp9q9XZbrd8iv/M+ub/U2VWhveNl0fTvZgGT6rNPdBl3+/XT0f0D+3W36ly2j+bCl/sdJyX0sbepr96wPa2CxD6L4IkEevW32Olkr9ea3lTc94sTKk3Na26PLvN9dhfo4AucO/Z4bcep+a/ypDfBcC2ivoXKgygc83QhmM86a61DZuqkwLPqfXH3g8Ul8o76Tyfli/Y8r9tf/N1wW+D9EZ0648M3/7t3/LqlWrmDdvXpgrkpjy3BBnMsrxWQKdern0wRB3TxlBVwFmbDI+G7mVVLcaAJmkcoxLt2DxVC+XPoDUfdFi43VzudJOji/wuugyhEXP1QRT7Inqwbms8c0NyrILgOsOd7dmGK69rAxmnOphAJgydRITK09TfdkTOrhtUj711/JjECoaI8msq1oe18Jfn1nWizvs2RHgOkwZL/KpqbsGjxfzvOqiuVmVjr2ogk/r8+EvV6H2Kjh7cSep11V1416nlLt5vJi8vk246+fSVbVNDfhrddl1VaXzfFUabvPsN0iGbj6shbradJOVkkuV/rGCYvV9mPyPL7KwtY9Bb58yA74WYladVYZjVjrPz9wGQPFbFbr7bfDPH8FbFSFm1eH7oqtK6ddtSYDF6O/nalsbdbM2qS6pbipmbuPYP9axuv8sdSWbcAd9fQY53wpVFSHkBsBkiWYtobjtLDcBwsqN6sLaxgVTHS8Bk39Zh/uXSh98GM7l5m2hqOAqVc4ytCcfPF5stchKAq2MQY4VmdrkIWTQzivli8FZx+r+q1xoO0zapl7cZSjW2LYWFtXn6y5Emntxp7RQlJPO1eZetmWF74tFf96muNfDuBwXvrVBbdfJLFqWy9m/DEJWf9TvZiA/CMX093//9+Tl5TFx4sSI1ylrNarLbIk5EreaYn1YcfOSWLzpSQ62e1mc3cXV517gtYeKuzcSGR4xU5fxmm+ZotBs5dyNGn19pCgJDJXF1IpHk8jwkTPIsfcOU7ypF0O6buq2QJVTcdFMLnNSVZRDnSufbc+kQskS3d2mK4WkNNLaCsib1awqnEF6vwB+HnzHzJ9vgD9FkwFgA45QaxyB3t/+q1yYtQT+/B4XaOPCTJOLrDaduhJFpswydVADZWCbtURZk4itoUwoSvMCOdi3GEefn/kRVc4KUnNzqVqnKZm5vFTSxocjySocCm8ffbp7KxyKOxN9/aabiplnY6xfUSZpzb2GS9XbQukWqHKqx1xV2AP7ryhHGej1d/whZNBIymVJ7jau9qO6x4zJiEVBH39P6eMsgHzqm69if6+F4vrcMH0xCK1t0NaGvda4Xd3MwxQ391pcmKC6HH8+GRh+J47pNaa/+Zu/IT8/n6KioqhKycyczbuN9OQkMedl6GoYwY61rAwSP+jiUnsvibnhZnVmlPxOzqD1o4eQYbhMncTEyh59XWnA8THXA9ehpi7jNd9yZmj5pjQe8RrT5GdSo1+kk0JqrrE201X1CNeYQuE6TBmmL7wuQ5syIACKFZBLagrKAFF71tjB9OePuDArjcnq+kLxz+ca9bZt4KWgGamihCxrbiFlmMtLJYd5J4bdUV1/Uuqb/Ms63Nd69T9HCRQ391otMwC6qSi4qg9Yk59J5cKWwyF2voXrC2XCod/LWcHC3Ao+vVbH6qTJpM9q4+yfB/V7fVgbqu26qdDXmKxlBo9vC1pj0ltPb29Vbm2dzNtC6RZrIW2dZfD4e0HvUGi6qVCVUrAlpa1NKv1npqtKVUoh1n+GL4MJbxtntXcoKY00fR0Jy7rn5GdS4Ys+/fsw+Jer6mafcH2hWPDGu9JMMRtwXAv13Kb+U9+HWN5JjTFrMd2/f5+ysjKmTIl1Pt9Nk+001/X/7SxVXWpT8laTWXSIattp07lXY9jJNpfnnjvNmRI7S035ugccB0xpzhX3nGKdJbG4fjk+m+Gy0zLQRpLhUk05ZyqVo9czyul6GEsmKIeTnaU+pS6r3Ips3/duPqtrRJl5Fzf3si1rMqs3bcBeoLiwipubKa4d5kwzdinCWCqTWV1RQVFOup6QuFifQedT36wsagOQW8Gn6m7DzLJmPpyplVF24SnWjuJq0QYm6+7FcDIo9aXNNFkluYo7cTJA2zbdLUdJs3VnV7hnLdI2FQTsEMwq49O3inleeybdUhtZX2SWOVlSZMhtbrtfl6STN/Owco/mDdSplkfmugrIUcosfKuZqtz3TDUeVstgaW+yNlBFjtIOuRU43srlHYAAuRe+VUGxJYtaaHTFW5Ae0FdmuXOpemsD+gZPVxV5tQAFhvWh9tNIZLB+L8wW81y2OV+kKCedMv2c+i4EuGmt72S4vojMhS2hykxmdX0zV03vZNiduCoSXVx4rAweL6aUMO46VxX2Py0JOaMUBGHsMqZdecLo4MKWnNBbSLM2UPVFwQh/YCsIwmhFLCZBEAQhrhCLSRAEQYgrRDEJgiAIcYUoJkEQBCGuEMUkCIIgxBWimB4bko9JEAQhFKKYRj3dSmRzU6TvSzXlNMXR9uobexPo3NsOHfvpTNjPDe1Ex346ExLoTEjA1RibgvY15sV8bcyyJWh/eVwxRU/xNebRWdCAr78BV8A5QRC+O0QxPTaUfEyv5cXwc+qoJDLxco81pUWcMS7NHnxwwXbm+/2kNaz6/gUyMaHdr8oBQ2824DOfzLBje1yCCcIPlDEbkmhEuI5QvUSLP20NmmoO+6OFCQIlTM9J0kksuaiEM1LDAQ3UlOO0G9dZInmb7mOuS8HLuaJDdJ0Kvlc4GeBJcjaB0+FlToS60EMVddNk64Gtbq5XJpJZ+yRdJW6jzlutHMy4yF0gOPzSSCJ/q6TYGZcPE2K49MbeBDy7tP/2kezfzvTAizr205m9gwntfmYvUJ73SkEyQy3KaeN4bNh+loe70M09sCqjFDvjyeTHD5uITxCEmBDFpOPl3HtfkdmzOyiC94DjAE77Rkp9Sqz+c0WHaJphpMa4W3KHHN9u1qAojwuuZawpnIdzRxcDeWqcufZeeHm1Er8u61VKfZpSs3Kp5hBXX95Iab3VkoomA1kZJL6n3M/AmiV3wHGAkw4vr+UBuBmyb2Tp1kOc+SCddWfh/TYP4KEpQ3meOaAo66JWpjxEFPHpO/2qUikkq3kYZXaq/3Tsp3NvO9N3ZhsX9Dfgyu4i8aafZ1WFcWNvMt++6Wd+M0A7nyfkceWmQz8fDd8nDh7s2awrQNtah66gZvuzwxUTBOERI4pJZ7TnY5rLwpc/5oILnjMdNVtZiqzaJzs5eUlQAzM2LWMKR5TDrh6u4+a6HsQVWDHJcp9t13qjPMfD42vMo6/whHFgj1P/+KAwmU5WkWhROu18vQvu7UqgU79yFYlE5162Wib/KGnNooAE4XEjisnEaM/HNCU7nSFzagzXEc5UGq64UBZaSLYup3TzYwyc2t+AuxDDGurYT+c54/S4hqOML3yFb/sBizUUxuUXBcXl187nCTm4GxdhW/so1v0EQRgpsvkhBKM2H9PUZeTQw2XzMT2XUjcXTCkrIsk8o/Jjzt0Kd0E3FaECrj5ytDUdL1fe3hFwbhGz/U7ITuDzDu1YNk/s2cHtEe/Yyya5YRUPCg8buwYFQXgsiMWkM3rzMZmZkwtnlsCMXCDrRTI5xPu2i4CdzNpEoqumuaw520N1RrmeAC54g8ajwequO0FnoWa9FPLUngQ8CTvwsIrEhn1GHhudbGbfPIprWgKuBg9Za5OYvtPJ1wnJdBaql+QfJa25MOZddba173LnZDJfd2yHYWyaEATh0SLRxQVBEIS4QiwmYWzT34Br2is8CHFqnGppCYIQX4jFJAiCIMQVsvlBEARBiCtEMQmCIAhxhSgmQRAEIa4QxSQIgiDEFaKYBEEQhLhCtouPJf5PM+VnlLgFiVmv8sbip/RT3nN1HHKp8cKXbubV//xYJBQEQYiKbBcfg3jP1XGMFRbFpNHdVEPPfxTFJAhC/DJqLKYBxwFOup+ESjd3t84j8/JFuk4ZYXnC5yqyhhoKzKVkhAYyhfix5CMKqM+SswnMwVXDywB4WyjK2UZacy/bsoiK91wdHzGTr1zdShgh+xJ2r8kAejhS+X/J2FrAXFCspP/3n9RzgiAIo59Ro5gA7lbC0p55ODMu4ju7kUyOMXALBtrD5yoacHzMUO1GSoNivXVzoeRJlvreCI55N3UZr/m0vEZezhUd41z2Gyye2k3TEiNn06Wacpz21SyeGkO+pBHgdvlYvnUzc+nhSGUHrZ4MliWPvD5BEITRwKhSTEreoy6cK+axMAs1lXjkXEVTZjzJ3SWHqHYHpnJIxrbiNGdsBxgISicRGNA1kcx9kSSLIV9SUj711/KH9byJWbmKVcQUJk0cVlFBEIRRy6hSTOGJkKtIzRaL64gSmVvPNaRld/Vyrqic6lNml9xpruvXKRaTQjK2FUN0aZG3V8xj3WbFQhpZziZBEAQhkDGwXTzGXEVZr1LaM4+Jlz0MBJRfXL+bpVuH8JlyEE20qz4z10d0nVIP3uriKvNY59tNqW83pXq68Rhk8LZQNDOdCtcwHy8kd/F4AHo4ckayBwmCMLYYExZTpFxFganFZ5zdrSiTgA0OivWjfJxTOA9nhuqW2zqPzBVfKSemZpKq5zcylatf9hA5m4ZLBi9mdXDo/RouMpF5WdNxq7mezFvC4QjlLmNreHdTDae1PRvuGsrPTGTeumJZsxIEIe6Q7eLDwXWE6rYM01pVN022j7GJC08QBOGRIYppWARuitAyzz42gQRBEMYcopgEQRCEuGIMbH4QBEEQxhKimARBEIS4QhSTIAiCEFeIYhIEQRDiClFMgiAIQlwhiimOuf3HkxT/cSD6hYIgCGMIUUyCIAhCXDG6fsdkyYVkBE0dcBzgJKvV/Edq0NV9RjQGS94lLYQQEPiDWfOPZcPmVgojg5bqQo+rtzUgmvlw8jF5nBRnXafVcnA877hWsjJ5gJMbnbD0P/Dr1+8AsOzdRdT9Ygq3/3iS7eRQ94spgHrdb1eyMhn1//P8+n8ptZX+z7X8JjOKHIIgCI+BURQrz8u594xcSDHjOsL7H6SzzqcpI1N9Rafh7G5KAxRF+NxKEWRwfUTXc8sprZ/LQ5OcQ92XOQGKxsx9fv2XWXz55WLg3/nvT1/is18sZlqEKj/7/XlublzLl4dQy5zkpEtTWoIgCPHDKHLlJTHlOSXlRNMwInRfanMzY1OgUkKPFL4wyHpRcyuVHKLaVk61zWQFRZJh6iQmVp6muqiVkKtCSfnUX4ste210xvPO6r9TP/8dv/lyMf8Q8fp/53//Dqr/ayNPP93I009fovpRiCEIgvAdMIosJpizeTdzNitutuol32WcuvC5lcLKoGW9vdXKQVs5dy0uw3hgEqejKjBBEITHzyiymAzmbN7NutpEhq579WN33R4ABhzHTBYOTLEncv29EFbM1GQST13kQpD1FVt+p1AyKPUu4zXfcmacumO95wjzMbX+5c6Irr/9R6e+ngR/x3/55zsclB1+giCMAkaRxRQY2dvOUp+yIWFK3gvMsJ2muvK0mj+pV79qSt4bLHWXGzmUdEtmLmt6PBzMKNfdWpr1Ez63UngZLBssUDZMPGwupqd+MYvSpy/x9O8uYWx+iPH6f57BO/9kKKJ/+G9zyHj6PE+/rh74pxl0H8rhqYeUURAE4VEzunblCYIgCGOeUenKEwRBEMYuopgEQRCEuEIUkyAIghBXiGISBEEQ4gpRTIIgCEJcIYpJEARBiCtEMQmCIAhxhSgmQRAEIa4QxSQIgiDEFf8fy18WYkVpG5YAAAAASUVORK5CYII=;imageBorder=default;" vertex="1" parent="1">
          <mxGeometry x="-757" y="158.5" width="422" height="309" as="geometry" />
        </mxCell>
        <mxCell id="GYVFRlJBhWlMOk5l2gX6-54" value="浏览" style="edgeStyle=orthogonalEdgeStyle;rounded=0;orthogonalLoop=1;jettySize=auto;html=1;" edge="1" parent="1" source="GYVFRlJBhWlMOk5l2gX6-44" target="GYVFRlJBhWlMOk5l2gX6-53">
          <mxGeometry relative="1" as="geometry">
            <Array as="points">
              <mxPoint x="21" y="468" />
              <mxPoint x="183" y="468" />
            </Array>
          </mxGeometry>
        </mxCell>
        <mxCell id="GYVFRlJBhWlMOk5l2gX6-55" value="下载" style="edgeStyle=orthogonalEdgeStyle;rounded=0;orthogonalLoop=1;jettySize=auto;html=1;entryX=0.5;entryY=0;entryDx=0;entryDy=0;" edge="1" parent="1" source="GYVFRlJBhWlMOk5l2gX6-44" target="GYVFRlJBhWlMOk5l2gX6-47">
          <mxGeometry relative="1" as="geometry" />
        </mxCell>
        <mxCell id="GYVFRlJBhWlMOk5l2gX6-44" value="groupName ==&amp;nbsp;&lt;b&gt;SGSFILES120&lt;/b&gt; or &lt;b&gt;SGSFILES110&lt;/b&gt;&lt;br&gt;从当前资源下的服务中筛选出文档服务" style="rounded=1;whiteSpace=wrap;html=1;" vertex="1" parent="1">
          <mxGeometry x="-134" y="387" width="309" height="43" as="geometry" />
        </mxCell>
        <mxCell id="GYVFRlJBhWlMOk5l2gX6-50" value="" style="edgeStyle=orthogonalEdgeStyle;rounded=0;orthogonalLoop=1;jettySize=auto;html=1;dashed=1;" edge="1" parent="1" source="GYVFRlJBhWlMOk5l2gX6-47" target="GYVFRlJBhWlMOk5l2gX6-49">
          <mxGeometry relative="1" as="geometry" />
        </mxCell>
        <mxCell id="GYVFRlJBhWlMOk5l2gX6-47" value="&lt;b&gt;download&lt;/b&gt;&lt;br&gt;根据文档ID下载文档" style="rounded=1;whiteSpace=wrap;html=1;" vertex="1" parent="1">
          <mxGeometry x="-220" y="506" width="180" height="42" as="geometry" />
        </mxCell>
        <mxCell id="GYVFRlJBhWlMOk5l2gX6-49" value="ArchiveManageController" style="text;html=1;strokeColor=none;fillColor=none;align=center;verticalAlign=middle;whiteSpace=wrap;rounded=0;" vertex="1" parent="1">
          <mxGeometry x="-438" y="512" width="170" height="30" as="geometry" />
        </mxCell>
        <mxCell id="GYVFRlJBhWlMOk5l2gX6-57" style="edgeStyle=orthogonalEdgeStyle;rounded=0;orthogonalLoop=1;jettySize=auto;html=1;" edge="1" parent="1" source="GYVFRlJBhWlMOk5l2gX6-53" target="GYVFRlJBhWlMOk5l2gX6-56">
          <mxGeometry relative="1" as="geometry" />
        </mxCell>
        <mxCell id="GYVFRlJBhWlMOk5l2gX6-60" value="图片/视频" style="edgeLabel;html=1;align=center;verticalAlign=middle;resizable=0;points=[];" vertex="1" connectable="0" parent="GYVFRlJBhWlMOk5l2gX6-57">
          <mxGeometry x="0.3618" y="2" relative="1" as="geometry">
            <mxPoint x="27" y="-1" as="offset" />
          </mxGeometry>
        </mxCell>
        <mxCell id="GYVFRlJBhWlMOk5l2gX6-59" value="word/excel/ppt/pdf" style="edgeStyle=orthogonalEdgeStyle;rounded=0;orthogonalLoop=1;jettySize=auto;html=1;" edge="1" parent="1" source="GYVFRlJBhWlMOk5l2gX6-53" target="GYVFRlJBhWlMOk5l2gX6-58">
          <mxGeometry relative="1" as="geometry" />
        </mxCell>
        <mxCell id="GYVFRlJBhWlMOk5l2gX6-53" value="文档类型" style="html=1;whiteSpace=wrap;aspect=fixed;shape=isoRectangle;" vertex="1" parent="1">
          <mxGeometry x="143" y="503.25" width="79.17" height="47.5" as="geometry" />
        </mxCell>
        <mxCell id="GYVFRlJBhWlMOk5l2gX6-63" value="" style="edgeStyle=orthogonalEdgeStyle;rounded=0;orthogonalLoop=1;jettySize=auto;html=1;dashed=1;" edge="1" parent="1" source="GYVFRlJBhWlMOk5l2gX6-56" target="GYVFRlJBhWlMOk5l2gX6-61">
          <mxGeometry relative="1" as="geometry" />
        </mxCell>
        <mxCell id="GYVFRlJBhWlMOk5l2gX6-56" value="&lt;b&gt;publishDownload&lt;/b&gt;&lt;br&gt;根据文档ID下载文档" style="rounded=1;whiteSpace=wrap;html=1;" vertex="1" parent="1">
          <mxGeometry x="-25" y="598" width="180" height="42" as="geometry" />
        </mxCell>
        <mxCell id="GYVFRlJBhWlMOk5l2gX6-65" value="" style="edgeStyle=orthogonalEdgeStyle;rounded=0;orthogonalLoop=1;jettySize=auto;html=1;dashed=1;" edge="1" parent="1" source="GYVFRlJBhWlMOk5l2gX6-58" target="GYVFRlJBhWlMOk5l2gX6-64">
          <mxGeometry relative="1" as="geometry" />
        </mxCell>
        <mxCell id="GYVFRlJBhWlMOk5l2gX6-58" value="&lt;b&gt;publishPreview&lt;/b&gt;&lt;br&gt;根据文档ID使用apose预览文档" style="rounded=1;whiteSpace=wrap;html=1;" vertex="1" parent="1">
          <mxGeometry x="214" y="598" width="180" height="42" as="geometry" />
        </mxCell>
        <mxCell id="GYVFRlJBhWlMOk5l2gX6-61" value="ArchiveManageController" style="text;html=1;strokeColor=none;fillColor=none;align=center;verticalAlign=middle;whiteSpace=wrap;rounded=0;" vertex="1" parent="1">
          <mxGeometry x="-235" y="604" width="170" height="30" as="geometry" />
        </mxCell>
        <mxCell id="GYVFRlJBhWlMOk5l2gX6-64" value="ArchiveManageController" style="text;html=1;strokeColor=none;fillColor=none;align=center;verticalAlign=middle;whiteSpace=wrap;rounded=0;" vertex="1" parent="1">
          <mxGeometry x="430" y="604" width="170" height="30" as="geometry" />
        </mxCell>
        <mxCell id="GYVFRlJBhWlMOk5l2gX6-66" value="&lt;b&gt;findListGet&lt;/b&gt;&lt;br&gt;根据文档上级ID、目录类别和当前用户ID获取文档资料列表" style="rounded=1;whiteSpace=wrap;html=1;" vertex="1" parent="1">
          <mxGeometry x="183.5" y="330" width="180" height="53" as="geometry" />
        </mxCell>
      </root>
    </mxGraphModel>
  </diagram>
</mxfile>
